<mxfile host="65bd71144e">
    <diagram id="rQbOQ3HFhISXG-68y-ER" name="Page-1">
        <mxGraphModel dx="1070" dy="770" grid="1" gridSize="1" guides="1" tooltips="1" connect="1" arrows="1" fold="1" page="1" pageScale="1" pageWidth="850" pageHeight="1100" math="0" shadow="0">
            <root>
                <mxCell id="0"/>
                <mxCell id="1" parent="0"/>
                <mxCell id="xN60sLdvEwKI37UPjvCN-135" value="Private Network" style="rounded=0;whiteSpace=wrap;html=1;shadow=0;glass=0;dashed=1;sketch=0;fontFamily=Courier New;fontSize=12;fontColor=#000000;fillColor=#F5F5F5;gradientColor=none;labelPosition=center;verticalLabelPosition=middle;align=right;verticalAlign=top;opacity=30;spacing=0;spacingRight=7;" parent="1" vertex="1">
                    <mxGeometry x="256" y="306" width="611" height="406" as="geometry"/>
                </mxCell>
                <mxCell id="XqaXXzpBMMEumLQ30ndg-2" value="Kubernetes Cluster" style="rounded=0;whiteSpace=wrap;html=1;shadow=0;glass=0;dashed=1;sketch=0;fontFamily=Courier New;fontSize=12;fillColor=#dae8fc;labelPosition=center;verticalLabelPosition=middle;align=right;verticalAlign=top;opacity=40;spacing=0;spacingRight=7;strokeColor=#6c8ebf;" parent="1" vertex="1">
                    <mxGeometry x="291" y="333" width="577" height="380" as="geometry"/>
                </mxCell>
                <mxCell id="FAwcwf4mKVhv5pW4rXHg-4" value="Meta-Worker" style="rounded=0;whiteSpace=wrap;html=1;shadow=0;glass=0;sketch=0;fontSize=22;fillColor=default;verticalAlign=top;opacity=15;" parent="1" vertex="1">
                    <mxGeometry x="618" y="363" width="200" height="100" as="geometry"/>
                </mxCell>
                <mxCell id="FAwcwf4mKVhv5pW4rXHg-3" value="Meta-Worker" style="rounded=0;whiteSpace=wrap;html=1;shadow=0;glass=0;sketch=0;fontSize=22;fillColor=default;verticalAlign=top;opacity=30;" parent="1" vertex="1">
                    <mxGeometry x="614" y="366" width="200" height="100" as="geometry"/>
                </mxCell>
                <mxCell id="FAwcwf4mKVhv5pW4rXHg-1" value="Control Node" style="rounded=0;whiteSpace=wrap;html=1;shadow=0;glass=0;sketch=0;fontSize=22;fillColor=default;verticalAlign=middle;opacity=30;" parent="1" vertex="1">
                    <mxGeometry x="324" y="570" width="200" height="100" as="geometry"/>
                </mxCell>
                <mxCell id="FAwcwf4mKVhv5pW4rXHg-2" value="Control Node" style="rounded=0;whiteSpace=wrap;html=1;shadow=0;glass=0;sketch=0;fontSize=22;fillColor=default;verticalAlign=middle;opacity=15;" parent="1" vertex="1">
                    <mxGeometry x="328" y="566" width="200" height="100" as="geometry"/>
                </mxCell>
                <mxCell id="Xc9OFvZ67c28g_YzAC6t-25" value="Harbour&lt;br&gt;Infrastructure&lt;br&gt;Layer" style="rounded=0;whiteSpace=wrap;html=1;dashed=1;dashPattern=1 4;fontFamily=Helvetica;fontSize=22;fillColor=#F5F5F5;labelPosition=left;verticalLabelPosition=middle;align=right;verticalAlign=middle;spacing=5;spacingRight=7;" parent="1" vertex="1">
                    <mxGeometry x="227" y="731" width="661" height="83" as="geometry"/>
                </mxCell>
                <mxCell id="xN60sLdvEwKI37UPjvCN-11" value="&lt;span style=&quot;font-size: 12px;&quot;&gt;Wireguard&lt;br style=&quot;font-size: 12px;&quot;&gt;&lt;/span&gt;" style="sketch=0;pointerEvents=1;shadow=0;dashed=0;html=1;strokeColor=#6F0000;fillColor=#a20025;labelPosition=center;verticalLabelPosition=top;verticalAlign=bottom;align=center;outlineConnect=0;shape=mxgraph.veeam2.wireguard;glass=0;fontSize=12;aspect=fixed;fontColor=#000000;fontFamily=Courier New;fontStyle=0" parent="1" vertex="1">
                    <mxGeometry x="115" y="348" width="40" height="40" as="geometry"/>
                </mxCell>
                <mxCell id="xN60sLdvEwKI37UPjvCN-12" value="IPsec" style="outlineConnect=0;dashed=0;verticalLabelPosition=top;verticalAlign=bottom;align=center;html=1;shape=mxgraph.aws3.vpn_gateway;fillColor=#F58534;gradientColor=none;shadow=0;glass=0;sketch=0;fontSize=12;fontFamily=Courier New;labelPosition=center;aspect=fixed;" parent="1" vertex="1">
                    <mxGeometry x="185" y="347.99999999999994" width="40" height="40" as="geometry"/>
                </mxCell>
                <mxCell id="xN60sLdvEwKI37UPjvCN-13" value="" style="endArrow=classic;html=1;rounded=0;fontSize=16;strokeWidth=2;fillColor=#60a917;strokeColor=#2D7600;startArrow=none;entryX=0;entryY=0.25;entryDx=0;entryDy=0;" parent="1" source="xN60sLdvEwKI37UPjvCN-14" target="xN60sLdvEwKI37UPjvCN-1" edge="1">
                    <mxGeometry width="50" height="50" relative="1" as="geometry">
                        <mxPoint x="100" y="385" as="sourcePoint"/>
                        <mxPoint x="220" y="440" as="targetPoint"/>
                    </mxGeometry>
                </mxCell>
                <mxCell id="xN60sLdvEwKI37UPjvCN-14" value="" style="sketch=0;pointerEvents=1;shadow=0;dashed=0;html=1;strokeColor=none;labelPosition=center;verticalLabelPosition=bottom;verticalAlign=top;outlineConnect=0;align=center;shape=mxgraph.office.security.lock_protected;fillColor=#7FBA42;glass=0;fontFamily=Courier New;fontSize=12;fontColor=#000000;aspect=fixed;" parent="1" vertex="1">
                    <mxGeometry x="163" y="381" width="20" height="27.34" as="geometry"/>
                </mxCell>
                <mxCell id="xN60sLdvEwKI37UPjvCN-16" value="&lt;font face=&quot;Courier New&quot; style=&quot;font-size: 12px&quot;&gt;Administration&lt;/font&gt;" style="endArrow=none;html=1;rounded=0;fontSize=16;strokeWidth=2;fillColor=#60a917;strokeColor=#2D7600;verticalAlign=bottom;labelPosition=center;verticalLabelPosition=top;align=center;labelBackgroundColor=none;spacing=1;targetPerimeterSpacing=0;sourcePerimeterSpacing=0;" parent="1" target="xN60sLdvEwKI37UPjvCN-14" edge="1">
                    <mxGeometry x="-0.2853" width="50" height="50" relative="1" as="geometry">
                        <mxPoint x="212" y="232" as="sourcePoint"/>
                        <mxPoint x="274" y="385.09" as="targetPoint"/>
                        <Array as="points">
                            <mxPoint x="212" y="290"/>
                            <mxPoint x="93" y="290"/>
                            <mxPoint x="93" y="395"/>
                        </Array>
                        <mxPoint as="offset"/>
                    </mxGeometry>
                </mxCell>
                <mxCell id="xN60sLdvEwKI37UPjvCN-122" value="&lt;font style=&quot;font-size: 12px;&quot;&gt;Ingress Traffic&lt;/font&gt;" style="endArrow=classic;html=1;rounded=0;fontFamily=Courier New;fontSize=12;fontColor=#000000;strokeWidth=2;entryX=0;entryY=0.75;entryDx=0;entryDy=0;fillColor=#0050ef;strokeColor=#001DBC;labelPosition=right;verticalLabelPosition=middle;align=left;verticalAlign=middle;labelBackgroundColor=none;exitX=0.464;exitY=0.072;exitDx=0;exitDy=0;exitPerimeter=0;spacing=5;" parent="1" source="FAwcwf4mKVhv5pW4rXHg-25" target="xN60sLdvEwKI37UPjvCN-1" edge="1">
                    <mxGeometry x="-0.4505" width="50" height="50" relative="1" as="geometry">
                        <mxPoint x="106.99999999999932" y="444.75" as="sourcePoint"/>
                        <mxPoint x="450" y="510" as="targetPoint"/>
                        <mxPoint as="offset"/>
                        <Array as="points">
                            <mxPoint x="135" y="445"/>
                        </Array>
                    </mxGeometry>
                </mxCell>
                <mxCell id="Xc9OFvZ67c28g_YzAC6t-15" style="edgeStyle=orthogonalEdgeStyle;rounded=0;orthogonalLoop=1;jettySize=auto;html=1;entryX=0;entryY=0.25;entryDx=0;entryDy=0;labelBackgroundColor=none;fontFamily=Courier New;fontSize=22;strokeWidth=2;exitX=1;exitY=0.25;exitDx=0;exitDy=0;fillColor=#60a917;strokeColor=#2D7600;" parent="1" source="xN60sLdvEwKI37UPjvCN-1" target="xN60sLdvEwKI37UPjvCN-4" edge="1">
                    <mxGeometry relative="1" as="geometry">
                        <Array as="points">
                            <mxPoint x="561" y="395"/>
                        </Array>
                    </mxGeometry>
                </mxCell>
                <mxCell id="Xc9OFvZ67c28g_YzAC6t-22" value="OpenStack&lt;br&gt;IaaS" style="rounded=0;whiteSpace=wrap;html=1;fontFamily=Helvetica;fontSize=22;dashed=1;dashPattern=1 1;" parent="1" vertex="1">
                    <mxGeometry x="679" y="742" width="200" height="60" as="geometry"/>
                </mxCell>
                <mxCell id="Xc9OFvZ67c28g_YzAC6t-23" value="auto-controlled&lt;br&gt;Bare Metal" style="rounded=0;whiteSpace=wrap;html=1;fontFamily=Helvetica;fontSize=22;dashed=1;dashPattern=1 1;" parent="1" vertex="1">
                    <mxGeometry x="457" y="742" width="200" height="60" as="geometry"/>
                </mxCell>
                <mxCell id="Xc9OFvZ67c28g_YzAC6t-24" value="self-managed&lt;br&gt;Bare Metal" style="rounded=0;whiteSpace=wrap;html=1;fontFamily=Helvetica;fontSize=22;dashed=1;dashPattern=1 1;" parent="1" vertex="1">
                    <mxGeometry x="235" y="742" width="200" height="60" as="geometry"/>
                </mxCell>
                <mxCell id="Xc9OFvZ67c28g_YzAC6t-26" value="Block Storage" style="edgeStyle=orthogonalEdgeStyle;rounded=0;orthogonalLoop=1;jettySize=auto;html=1;exitX=0.75;exitY=1;exitDx=0;exitDy=0;labelBackgroundColor=none;fontFamily=Courier New;fontSize=11;strokeWidth=2;entryX=0.942;entryY=-0.012;entryDx=0;entryDy=0;entryPerimeter=0;labelPosition=left;verticalLabelPosition=middle;align=right;verticalAlign=middle;spacing=5;fillColor=#e51400;strokeColor=#B20000;startArrow=classic;startFill=1;endArrow=classic;endFill=1;" parent="1" source="xN60sLdvEwKI37UPjvCN-4" target="Xc9OFvZ67c28g_YzAC6t-25" edge="1">
                    <mxGeometry x="0.7941" relative="1" as="geometry">
                        <mxPoint x="926.0000000000002" y="541" as="targetPoint"/>
                        <Array as="points">
                            <mxPoint x="760" y="489"/>
                            <mxPoint x="850" y="489"/>
                        </Array>
                        <mxPoint as="offset"/>
                    </mxGeometry>
                </mxCell>
                <mxCell id="FAwcwf4mKVhv5pW4rXHg-27" style="edgeStyle=orthogonalEdgeStyle;rounded=0;orthogonalLoop=1;jettySize=auto;html=1;exitX=0;exitY=0.5;exitDx=0;exitDy=0;fontFamily=Courier New;sourcePerimeterSpacing=0;targetPerimeterSpacing=0;strokeWidth=2;fillColor=#e3c800;strokeColor=#B09500;" parent="1" source="xN60sLdvEwKI37UPjvCN-4" edge="1">
                    <mxGeometry relative="1" as="geometry">
                        <mxPoint x="245" y="232" as="targetPoint"/>
                        <Array as="points">
                            <mxPoint x="565" y="420"/>
                            <mxPoint x="565" y="290"/>
                            <mxPoint x="245" y="290"/>
                        </Array>
                    </mxGeometry>
                </mxCell>
                <mxCell id="xN60sLdvEwKI37UPjvCN-4" value="Meta-Worker" style="rounded=0;whiteSpace=wrap;html=1;shadow=0;glass=0;sketch=0;fontSize=22;verticalAlign=top;" parent="1" vertex="1">
                    <mxGeometry x="610" y="369.91" width="200" height="100" as="geometry"/>
                </mxCell>
                <mxCell id="xN60sLdvEwKI37UPjvCN-8" value="Gateway" style="rounded=0;whiteSpace=wrap;html=1;shadow=0;fontSize=16;sketch=0;glass=0;opacity=15;" parent="1" vertex="1">
                    <mxGeometry x="328" y="362" width="200" height="100" as="geometry"/>
                </mxCell>
                <mxCell id="xN60sLdvEwKI37UPjvCN-7" value="Gateway" style="rounded=0;whiteSpace=wrap;html=1;shadow=0;fontSize=16;sketch=0;glass=0;fillColor=default;opacity=30;" parent="1" vertex="1">
                    <mxGeometry x="323" y="366" width="200" height="100" as="geometry"/>
                </mxCell>
                <mxCell id="xN60sLdvEwKI37UPjvCN-1" value="&lt;font style=&quot;font-size: 22px&quot;&gt;Frontend Node&lt;/font&gt;" style="rounded=0;whiteSpace=wrap;html=1;shadow=0;fontSize=24;sketch=0;glass=0;aspect=fixed;fontStyle=0;verticalAlign=top;" parent="1" vertex="1">
                    <mxGeometry x="319" y="370" width="200" height="100" as="geometry"/>
                </mxCell>
                <mxCell id="Xc9OFvZ67c28g_YzAC6t-14" value="" style="shape=image;verticalLabelPosition=bottom;labelBackgroundColor=#ffffff;verticalAlign=top;aspect=fixed;imageAspect=0;image=data:image/png,iVBORw0KGgoAAAANSUhEUgAAAPoAAAD6CAYAAACI7Fo9AAAABHNCSVQICAgIfAhkiAAAAAlwSFlzAAAJxAAACcQBVcMmEAAAABl0RVh0U29mdHdhcmUAd3d3Lmlua3NjYXBlLm9yZ5vuPBoAABZsSURBVHic7d15mFTVgcbh37lV3Q0Nzb6joCIKEdxFY3QERQOigpAYRQgxLoSJkziZGHdr2i2ImmQ0GpOMUYNKIhkFjKIRolHEJUSNgFHcEBCRHbqbXmo580d1Q9NU3apeavN87/PcB/uup6z66p6655x7jbUWEfly83JdABHJPAVdxAEKuogDFHQRByjoIg5Q0EUcoKCLOEBBF3GAgi7iAAVdxAEKuogDFHQRByjoIg5Q0EUcoKCLOEBBF3GAgi7iAAVdxAEKuogDFHQRByjoIg5Q0EUcoKCLOEBBF3GAgi7iAAVdxAEKuogDFHQRByjoIg5Q0EUcoKCLOEBBF3GAgi7iAAVdxAEKuogDFHQRByjoIg5Q0EUcoKCLOEBBF3GAgi7iAAVdxAEKuogDFHQRByjoIg5Q0EUcoKCLOEBBF3GAgi7iAAVdxAEKuogDFHQRByjoIg5Q0EUcoKCLOEBBF3GAgi7iAAVdxAEKuogDFHQRByjoIg5Q0EUcoKCLOEBBF3GAgi7iAAVdxAEKuogDFHQRByjoBSh6mCnKdRmksCjoBch6dI0MNzNyXQ4pHAp6AQoutxsxTIgcbq7IdVmkMCjohcrwIoafR44wV+a6KJL/FPRCZfgEAxhmRY401+S6OJLfFPRCZfi4PuhguC1ylLkx10WS/KWgFyqPT/Cg0VQeOcbclONSSZ4y1tpcl0FaKHKsqQJKm8yeGVxmVZWXveiMXqAix5nBGEobVd8bpqsjx5k7cls6yTcKegGKjDClGP43Qcgbph9HRpif57KMkl9UdS8wkePNicBvgMPSWP1e4D+Cr+tNdp2CXiDCJ5guwEzgMuLn7XT9GphR9JreaJcp6AUgfKKZAtwJ9G7hLh4ALitaamNtVyopJAp6Hgt/zRwK3A+MbIPdPQx8t+gVhd1FwVwXQBILn2RGYpgPdGqjXU4jXuWf1kb7kwKiM3oeCp9sBgDvAh0ysPufFL1s1fzmGDWv5SOPm/Do0KTnW1tNPw2fYo7P6uuRnFPQ85HhZJ828tZOAQwXZfPlSO4p6PnI0D+DQQfDhPAos1cTXXiU6RceZTpn/LVJTijoeSB8qum/1wzD1gwHvTeGsibH/BaGiRl5gZJzCno+MPwqfJoZ0ujvTzMcdDBNBsMYLsAwOVMvUXJLQc8D1lBpDX+tG20G1P+92BrI8BRtOH7daDPIGo6zhlF1o01LO+VIHlPQ84HHB3j0xePpujNMJzwWZeiKe8O0pXiR3dTo+BfUzw/gcV4WXrFkmYKeDwwf1Fenh2GYi+ENDLsyWG1/p8nxL2i07PzMvljJBQU9HxjWNQraGRjuxPBSBoP++4ZD140xwzB8pdGyY+rGGH0uvmT0huYDw8AmQZzBnps/tvW0EcOcRsf+RpPlJRj2z/RLluxS0HOs7kzTHcP1CQJ5EoYvMhD0+4sX2trdBTBMSrDO4Ay/bMkyDWrJobqzzOF4zAMOTLB4OLB691+BFhzA1P9rof4a+w7gV/XHPhi4F49hCbY8GFjUgiNKnlLQc6TubHN2fRXab+DKgN3/VcSe4DZXDIhRQ3yo6tV1Z5vRGN871Axs4ZEkTynoOVB3jpmB4R5Sn6f3/LQyQHGStVJ9AVQDhnbAD9Is4s4015MCoaBnWd14cz6G+5q9YRRMSQsOaMFW0tzawOctOJLkMQU9i2onmACG/27RxjHiYW3uA5Or4j/RmxH0GLC4mUeRPKer7tkU74F2aMqeawEw3RLMByhpxgTYKp/jFCecv7hknl3buNi1E1tUl5A8oqBnk+G/0mkCMz2A7kD7JsuCxMOZ5mSrfI7jgem1z/wwhqsaF7l2khmD4ReZ+N8h2aOqezYZDvJd7oHpB6ZhXNl+YD8DaoFSMN332Z+/YrDVCeaXxENu2oHdsNeS8pI/2bca/qj9hhmDYR7wSYojSZ7TPeOypPabxgMiJItnMZiBCS642aRbpBaLf1HYGjBFQMf4ZNrV77oC7Ke7134VOLlkro3Wl3c6cHe8ZFigW8lcu72FJZEc0xk9S0rm2ljteeZjYNA+CwPgHYr/u9HCsJtBSTa1YLfs3u924Nslj9to7XmmBPglhkuaHH0E8JeWlUJyTUHPJo/XSBB005fM3O/Vh11DvH3doxIYW/IH+2Ht+WZ/PP5EPNRNHYeCXrAU9GyKt59fuM/s7qRuNmtp9T2RzWA3AoZVwHXAEbUXmJsxjCT5Z0IDXQqYgp5FJXPs0trJZgFwzl4LLJhkvd7amK2G2MeAIQaUAXPT3LRH5kolmaagZ5vhWuAsGjVt2rr6i2Xx5ZkVBW8wxD7EI0rfZmypoBcwBT3LSh61K2ummIdhz73V7WdgDqJlI9SaqwhqS4Os3t6F9cs78nl1GRuqy1hfXcaGSBkBYvQpqqBf+wr6tK+kb/sK+rSvYECH7b3Ua6ZwqXktB2qmmjJgCXB4wzxvKHj+rezN06RmsK2qPU+/eQgLXj2U55YPZle4eX1py4pqoxXhkseA+cCz1oaq2qysknEKehurmWbaAbcA44BuxK+nVwIVjaY3gAeB54F+ABRB4BQwTa++t6Iqv3NXCbNfPJL5rw/hpZUDicbarCNkLfGyPwk8am2oNsX6kmMKegbUfMcY4GLgduJhT+Qz4uPDf0h945opg8Aomj9wpcmXQV0kwG8WHsstc0aypaJ9M3fWbGuB64FHrA3pkcx5SkHPoJqLTA9gFvg+6+wjGrWtm14QGEmLRiFYa3j8pcO44cHT+GRDV4yxWJvpq3u7++69A1xtbWhhpg8ozaegZ0HNd801wG3pru8Ng8CRzTvG8o97c8kd4/nHqn4YAzl4WxsC/yIwzdrQmqyXQJJS0LOk5hIzG5iyzwKP+Ajwxoqh6DzSvgq/YMkQpt40iaqa5tb5M2YTMNHa0JJcF0TiNEw1WwyPJBouGji6vgts42Gq7YkPUU1jKOpPHzuZSdedz67aVraUesSvDQRpi09FD+CvxpRf3Oo9SZvQGT1Lai4zJcTvwrpXc7TZD4JnQuzd+AQQ+Gp8vu/+6oJcetN45jw7vPm/xYuAdlDcMQBBiERjxJp8DjxjKAp4xMKWcGUMaoiPvUtfQ1X+buBH1oaiKdaXDFLQs6hmulkJfGWvmQaKLqo/i6cpHAkw5ntTePHvie4SnUQQKIXiTgHqolH69urIOV8/lEEDu9G/bxn79e3Efn07EY1Z1q3fybrP49Oqj7Yw/7n32bajmmIvQN3OKOwC0ottQ9gftTa0788WyRr1jMsiGx9E8pV95u8A0yn9/fzg1rHph9yr33ep4aABXZk8cRgTxgzh6OHJe78OPnDvFsFYzLJ02VrmPfsec55YwRebK4nutPHeAf7niYZqxoXGlK+wNjQzvUJLW9MZPYuqZ5hZwJVN5wdHQ+CI9PZx7+wR/OCmM1OvaIAOEOjs0btnB2bdcDqTzx2OaWVrWzgc49ePLOOG21+gqqqO8LYYpO4jZ+unc60NLWhdCaQlFPQsqv6+uRT4TdP5geMgONJnw/pwLl5yEGOnTSEWM/6/yT0I9vQo7hDglqtO5fsXHUdxUdt2pK+orGPWfa8w854l2BpLdItNdXa3xCv9X7U2tLxNCyMpKehZVH25GQm80HS+dwgUTfLfdvXaLhz99e+xs6LEP+RFUNTLo1/fMp6dM4UhB2d20NnSZWs5a+ocKnfUEt4YS+e3+6fAEdaGdmS0YLIXNa9lk+FNEjz33H4OJhAfqppsunbmaHbsbOcf8mII9PI4ccQA3lr0vYyHHODEY/fn7UXTGTy4O8E+XjpXfQYC12S8YLIXBT2L2t9jd2KYu0/QqyC2lnhIEkzLVvTj8QWJnoXYSDBeXZ80biiLHp9K187tMvpaGhvQvzNvLLyU44/pT1FvL9WnygJXGFOeogFR2pKCnm2G3ybqOBN+Huwu4m3cTaaryk/379JqoKhXgMMP683Dd08gGGz927p58y4qKurSXr9DaRHzH7qAPn3KCPb0/EbdGeJ9CW5qdSElbfqNngPV/2n+Bvxb0/mmDIq/DaZ/wwxY+Nxgxk3Y5zZzewn29Ojep5S3F02nT6+Ou+dfeeXzVFTsO4J0yJAeXHHFCXvNW7++gnvv/TtPP72Kjz7aRmVlPOQdOhQxYkR/zj13KBdffBSlpf7dbFe+v4kRY39LzfYIsW2+n60Y8d/qK3x3KG1CQc+B6h+ZnsDrJHouegACh0FgBHiDDIcfO4OVK3slP6OXgtfVsOzZyzhqWJ+9Fh1yyD188MHWfTY58sg+vPXWdCA++OXaaxdz111LCYf9R5kecEAXHnpoAqec4v9U5aeeX8U50+bAFsC/UvCMtaFxvmtIm1DVPQfa/8xuwnAyhpf3qcbHILoc6h6AJT/sz4oVPiE3UNQ1wPSpx+wTcoDi4sRNatu2xR/fEonEuOiiecycuSRlyAFWr97O2LGP8MILq33XO/v0Qxgz6mCKuqf8eJ1pTPmAVCtJ6ynoOdL+LvuZNYyyhhutocIaaDotePtQ/52UQrDIEPrRyISL27VLfAl8+/YaAG644QUefvifzSp3dXWEyZP/j507/W8qc8cNpxMxFlJfEzwn5RrSagp6DpXeaaOld9qbMRyA4WYMOxqf3Z/6YGjya1oGirp6XHX5SfTumfjpD+3bJ/49XVFRx3vvbeauu5a2qNwbNlQya9YrvusMG9KLqd84nOLuKTvqKOhZoKDngdI77NbSO+yNePTDYxIej36wvUfF+1t7JO9s1i5+1r/i0hOSrUFRUeK3NxazTJ/+593V9eOP78+sWafz2muX8NxzU7juupPp3dv/0TGzZ7+T8uYWV19+EnWxaHxIbXKjjClvRk9/aQkNaskjpbfbXcATwBMjgjdeDfw02bqBDoZTv3YgnTslvwmzXzPbSy/Fn6544YXDefDBCXt9KZxxxiCmTTuS0057mLVrdybcfs2aHaxYsZHhw3slPcbQwT04+IBufFi11e+iXBAYAzyedA1pNZ3R81RdNDA26UIDlBi+efY+A+H2Xi3FCJYxYw5m9uyJCc/8gwd344EHxvtu/847X/guB/jW+MMo7pSy+q4r7xmmoOevQ5IuKYaYtYz/+pBWHSAUOsV3NNtppx1Iv35lSZd/8sm2lMeYeOZQ6qJRv7qjBQan3JG0ioKeh4wpDwA9k65QDIcO6k7P7qUtPsbIkQdwwgn+vVA9zzBuXPIM7tiR+nbuRw/vS4fSYr/f6Qaa9WgoaQEFPT/1wu/WkB4M3K9zqw6QKuQN+vdPfp1s165wWvvo07Njqk9av7R2JC2moOcn3w9+oNiwf7/WBX3gwPS279Ur+dX3dHtV9u9bluqOtsXGlHdPa2fSIgp6fvKtygaLPfr27ui3SkoDB3ZJa73OnVv/aMWB+3XGBFPe2kbV9wxS0PNT8jYrwHrQq4d/O3cqHTqkdw/4VFfu09GrRweCxSn34/uapXUU9PyUuPG6nrGG7TtqslWWVtu+o4ZYJGU1X3ecySAFPT+t91sYC8dY/0VFtsrSams+20E0nDLon2ejLK5S0POTb9DDtTHWrfc96eeVtZ/tTHUvuRiQuveNtJiCnp/8z25R+HRd4dR0N2yqTBX0TXqSS2Yp6HnI2lAtkLzbWQRWfbyF6prmPSMpF9Z8toPtO2v8HudkiT8rXjJIQc9fa0h2p/RaqK2L8Je/fZTdErXAkwvfIxjw/Aa1GGBt9krkJgU9fz1PslssxiAYC/DEM//KbolaYO5TK4lWpbwQtygbZXGZgp6/5vstDFdEmbfwPSKR1LeAypVNW3bx6j/WYatTBv2pbJTHZQp6/loKbCZZ9b0GKqrq+NPT72a1UM3xwJw38YyB5GNfLPBPa0OfZq9UblLQ85S1oRiwgGTV9yiYavjJzc9TF86/C9Zbt1dz6y9eJrI95vdMNkP8NUqGKej5bZ7fwthOy/oNFdz/+2XZKk/abvufl6mtiaTzpFUFPQsU9Py2CNhKsnNiFKI7LTfOepFtedQl9qPV27j7gdfjj1ROfja3wCrgH1krmMMU9DxmbagauAW/BxxVwa6qMJMu/iPRaO4fxlFZVce4qY/G2813+a5qgKutDeW+0A7Qk1rynDHlxcTPfANIFvggBHp7zJh2LPfcuudWc++88wVbt1Yn3OSoo/qmNQR148Yq3n13U8Jl/ft3YvDgbrv/thbO/vZjPPfCR0Q2pHyE8lJrQ19LWQBpEwp6ATCmfDLwqO9K7YCucP/tZzF96jFZKVdT19y2mFn3vUJso4XUN585ydqQ/83hpc2o6l4Y5gBv+q5RA1TAjKv+zMxfLslKoRpEIjEuv+4ZZv5yCbGtaYV8nkKeXTqjFwhjykcCi9nzlLbESsHrYvjW+MP43c/H064ks7fu37ajhokX/5GXX1tDdEss/oWTnCXeqn6ktaH3M1ow2YvO6AXC2tCLwDX4hRxgF8Q2W+YueJcTz/4dy/+1MWNlWvLGGo4+/de88toaohvTCrkBvqOQZ5/O6AXGmPLZwJSUKwahqKdHxFgmnzucW64axQH7p3efuFSW/2sjV936PAv/+iHBqEdkcyw+ojy1W60NXd8mhZBmUdALjDHl7YC/ASPS2qAdFHXzsB5cNuUYLpw0nBOO3g/Pa9694CKRGC++upqH/vg2jz25gqD1CG+Jpnr+eWPzgXPVnJYbCnoBMqa8H7CM5tw5tQMUdwlQF4vSrXN7Jo4byrjRgxk0sBv9+5bRrUv73ataC5u37mLd5ztZ9fEW5j/7Pk/95X0qd9VRbALUbYtC4la7ZFYCJ1gbqmzWVtJmFPQCZUz5UODPwEHN2jBI/Czf0SNs9tS3S4oD9O7RkWg0xsYtVYTrR8UZA4GoR6Sy/jd487vVvwWcY21oXbO3lDajoBcwY8q7AXOBU9lzsasZOyD+YIUA8cuygfq9xIgHuuHf5n9EGsoyl/jFN/8+cpJxCnqBM6Y8CNwNzKAlYW97DR+oEHCLfpPnBwX9S8KY8n8Hfga0/tEqLdPwJVMBTLM29GSOyiEJqB39S8La0H3EHz/8MOk2drWtCPGaxSCFPP/ojP4lZEz5cOB2YGyqdduABf4AXG9t6OMsHE9aQEH/EjOmfBTwY2A0e55Q3prf8Y23rQKeAWZaG/Lvhy85p6A7wJjyMmAMMAEYByR6ZnLjECf7MthI/I4w84DF1oby524X4ktBd4wx5UXAvwHDiHe46dfo337EG9TW10+fN/r3TeC1+nvZSYFR0EUcoKvuIg5Q0EUcoKCLOEBBF3GAgi7iAAVdxAEKuogDFHQRByjoIg5Q0EUcoKCLOEBBF3GAgi7iAAVdxAEKuogDFHQRByjoIg5Q0EUcoKCLOEBBF3GAgi7iAAVdxAEKuogDFHQRByjoIg5Q0EUcoKCLOEBBF3GAgi7iAAVdxAEKuogDFHQRByjoIg5Q0EUcoKCLOEBBF3GAgi7iAAVdxAEKuogDFHQRByjoIg5Q0EUcoKCLOEBBF3GAgi7iAAVdxAEKuogDFHQRByjoIg5Q0EUcoKCLOEBBF3GAgi7iAAVdxAEKuogDFHQRByjoIg5Q0EUcoKCLOEBBF3GAgi7iAAVdxAEKuogDFHQRByjoIg5Q0EUcoKCLOEBBF3GAgi7iAAVdxAEKuogDFHQRByjoIg5Q0EUcoKCLOEBBF3GAgi7iAAVdxAH/D+JFGBHnZO1DAAAAAElFTkSuQmCC;" parent="1" vertex="1">
                    <mxGeometry x="430" y="385" width="103" height="103" as="geometry"/>
                </mxCell>
                <mxCell id="Xc9OFvZ67c28g_YzAC6t-21" style="edgeStyle=orthogonalEdgeStyle;rounded=0;orthogonalLoop=1;jettySize=auto;html=1;exitX=1;exitY=0.75;exitDx=0;exitDy=0;entryX=0.75;entryY=0;entryDx=0;entryDy=0;labelBackgroundColor=none;fontFamily=Courier New;fontSize=22;strokeWidth=2;fillColor=#0050ef;strokeColor=#001DBC;" parent="1" source="xN60sLdvEwKI37UPjvCN-1" target="xN60sLdvEwKI37UPjvCN-106" edge="1">
                    <mxGeometry relative="1" as="geometry">
                        <Array as="points">
                            <mxPoint x="574" y="445"/>
                            <mxPoint x="574" y="528"/>
                            <mxPoint x="470" y="528"/>
                        </Array>
                    </mxGeometry>
                </mxCell>
                <mxCell id="Xc9OFvZ67c28g_YzAC6t-17" style="edgeStyle=orthogonalEdgeStyle;rounded=0;orthogonalLoop=1;jettySize=auto;html=1;exitX=1;exitY=0.25;exitDx=0;exitDy=0;entryX=0.25;entryY=0;entryDx=0;entryDy=0;labelBackgroundColor=none;fontFamily=Courier New;fontSize=22;strokeWidth=2;fillColor=#60a917;strokeColor=#2D7600;" parent="1" source="xN60sLdvEwKI37UPjvCN-1" target="xN60sLdvEwKI37UPjvCN-106" edge="1">
                    <mxGeometry relative="1" as="geometry">
                        <Array as="points">
                            <mxPoint x="556" y="395"/>
                            <mxPoint x="556" y="512"/>
                            <mxPoint x="370" y="512"/>
                        </Array>
                    </mxGeometry>
                </mxCell>
                <mxCell id="xN60sLdvEwKI37UPjvCN-125" value="Monitoring" style="edgeStyle=orthogonalEdgeStyle;rounded=0;orthogonalLoop=1;jettySize=auto;html=1;exitX=0;exitY=0.5;exitDx=0;exitDy=0;entryX=0.5;entryY=0;entryDx=0;entryDy=0;labelBackgroundColor=none;fontFamily=Courier New;fontSize=12;fontColor=#000000;strokeWidth=2;fillColor=#e3c800;strokeColor=#B09500;verticalAlign=bottom;labelPosition=center;verticalLabelPosition=top;align=center;" parent="1" source="xN60sLdvEwKI37UPjvCN-4" target="xN60sLdvEwKI37UPjvCN-1" edge="1">
                    <mxGeometry x="0.1063" y="-54" relative="1" as="geometry">
                        <Array as="points">
                            <mxPoint x="565" y="420"/>
                            <mxPoint x="565" y="345"/>
                            <mxPoint x="419" y="345"/>
                        </Array>
                        <mxPoint as="offset"/>
                    </mxGeometry>
                </mxCell>
                <mxCell id="xN60sLdvEwKI37UPjvCN-106" value="Control Plane" style="rounded=0;whiteSpace=wrap;html=1;shadow=0;glass=0;sketch=0;fontSize=22;verticalAlign=middle;" parent="1" vertex="1">
                    <mxGeometry x="320" y="573.91" width="200" height="100" as="geometry"/>
                </mxCell>
                <mxCell id="Xc9OFvZ67c28g_YzAC6t-1" value="Persistent Storage" style="edgeStyle=orthogonalEdgeStyle;rounded=0;orthogonalLoop=1;jettySize=auto;html=1;exitX=0.5;exitY=1;exitDx=0;exitDy=0;entryX=1;entryY=0;entryDx=0;entryDy=0;fillColor=#e51400;strokeColor=#B20000;strokeWidth=2;fontFamily=Courier New;labelPosition=right;verticalLabelPosition=middle;align=left;verticalAlign=middle;spacing=5;labelBackgroundColor=none;endArrow=classic;endFill=1;startArrow=classic;startFill=1;" parent="1" source="xN60sLdvEwKI37UPjvCN-4" target="xN60sLdvEwKI37UPjvCN-119" edge="1">
                    <mxGeometry x="-0.6854" relative="1" as="geometry">
                        <Array as="points">
                            <mxPoint x="710" y="510"/>
                            <mxPoint x="810" y="510"/>
                        </Array>
                        <mxPoint as="offset"/>
                    </mxGeometry>
                </mxCell>
                <mxCell id="FAwcwf4mKVhv5pW4rXHg-23" value="" style="group" parent="1" vertex="1" connectable="0">
                    <mxGeometry x="177" y="178" width="111" height="52" as="geometry"/>
                </mxCell>
                <mxCell id="FAwcwf4mKVhv5pW4rXHg-21" value="" style="verticalLabelPosition=bottom;html=1;verticalAlign=top;align=center;strokeColor=none;fillColor=#00BEF2;shape=mxgraph.azure.user;fontFamily=Courier New;" parent="FAwcwf4mKVhv5pW4rXHg-23" vertex="1">
                    <mxGeometry x="-2" width="47.5" height="50" as="geometry"/>
                </mxCell>
                <mxCell id="FAwcwf4mKVhv5pW4rXHg-22" value="" style="sketch=0;aspect=fixed;pointerEvents=1;shadow=0;dashed=0;html=1;strokeColor=none;labelPosition=center;verticalLabelPosition=bottom;verticalAlign=top;align=center;fillColor=#00188D;shape=mxgraph.mscae.enterprise.cluster_server;fontFamily=Courier New;" parent="FAwcwf4mKVhv5pW4rXHg-23" vertex="1">
                    <mxGeometry x="55" y="2" width="40" height="50" as="geometry"/>
                </mxCell>
                <mxCell id="FAwcwf4mKVhv5pW4rXHg-25" value="" style="html=1;verticalLabelPosition=bottom;align=center;labelBackgroundColor=#ffffff;verticalAlign=top;strokeWidth=2;strokeColor=#001DBC;shadow=0;dashed=0;shape=mxgraph.ios7.icons.cloud;fontFamily=Courier New;fontColor=#ffffff;aspect=fixed;" parent="1" vertex="1">
                    <mxGeometry x="105" y="527" width="64" height="40" as="geometry"/>
                </mxCell>
                <mxCell id="j3j-qxB6jaAF0OhbkdxI-2" value="" style="shape=image;verticalLabelPosition=bottom;labelBackgroundColor=#ffffff;verticalAlign=top;aspect=fixed;imageAspect=0;image=data:image/svg+xml,PHN2ZyB4bWxucz0iaHR0cDovL3d3dy53My5vcmcvMjAwMC9zdmciIHhtbG5zOnhsaW5rPSJodHRwOi8vd3d3LnczLm9yZy8xOTk5L3hsaW5rIiB2aWV3Qm94PSIwIDAgNjYuOTU5IDY1Ljk1OSIgZmlsbD0iI2ZmZiIgZmlsbC1ydWxlPSJldmVub2RkIiBzdHJva2U9IiMwMDAiIHN0cm9rZS1saW5lY2FwPSJyb3VuZCIgc3Ryb2tlLWxpbmVqb2luPSJyb3VuZCI+PHVzZSB4bGluazpocmVmPSIjQSIgeD0iLjQ3OSIgeT0iLjQ3OSIvPjxzeW1ib2wgaWQ9IkEiIG92ZXJmbG93PSJ2aXNpYmxlIj48cGF0aCBkPSJNNTMuMzc1IDU3LjkwMmMtMi4zMjYtMS4yNDYtMy42NTUtMi42MzItMy45NDktNC4xNDYtLjI4NC0xLjQ2Ni4zNzEtMy4wOTggMi4wMDEtNC45ODhhMjQuNjEgMjQuNjEgMCAwIDAgNi4wNDUtMTYuMTc5YzAtMTMuNTk0LTExLjA2MS0yNC42NTUtMjQuNjU0LTI0LjY1NWgtLjIyYy0xMy41OTUgMC0yNC42NTIgMTEuMDYxLTI0LjY1MiAyNC42NTUtLjAwNSA1Ljk0NyAyLjE0MiAxMS42OTQgNi4wNDYgMTYuMTggMS42NDQgMS45MDMgMi4yODEgMy40NjggMi4wMDkgNC45MjEtLjI4MyAxLjUxMi0xLjYxNCAyLjkyNy0zLjk2IDQuMjEtMy41OTgtMy02Ljc3OS03LjAwNC04Ljc0MS0xMS4wMjJhMzMuMTQgMzMuMTQgMCAwIDEtMi40MzYtNi44NDRBMzIuNjkgMzIuNjkgMCAwIDEgMCAzMi41OTFjLS4wMDgtNC4zNTguODYyLTguNjczIDIuNTU5LTEyLjY4N0EzMi40OCAzMi40OCAwIDAgMSA5LjU1NCA5LjU0NmMyLjk2Ny0yLjk3NyA2LjQ4NS01LjM0OSAxMC4zNTctNi45ODNDMjMuOTMxLjg2MSAyOC4xOTggMCAzMi41OTggMGguMjJjNC4zNTktLjAwOSA4LjY3NC44NjMgMTIuNjg4IDIuNTYyYTMyLjUxIDMyLjUxIDAgMCAxIDEwLjM1NyA2Ljk4MiAzMi41IDMyLjUgMCAwIDEgNi45ODQgMTAuMzU3YzEuNjk4IDQuMDE0IDIuNTcgOC4zMjkgMi41NjIgMTIuNjg3YTMyLjc2IDMyLjc2IDAgMCAxLS44NTUgNy40NDMgMzIuMzQgMzIuMzQgMCAwIDEtMi40MzcgNi44NDNjLTEuOTYyIDQuMDItNS4xNDEgOC4wMjUtOC43NDQgMTEuMDI1TTQxLjM0OSA2NGMtLjM3OS0uMjQtMS42NzItMS4yMDEtMi45MzMtMi45NDgtMS4yMS0xLjY3LTIuNjM0LTQuNDQtMi41NTktOC4xNDkuMDQ4LTIuMjMzLjQ5NS00LjQwNiAxLjM0Mi02LjQ2LjgzNC0yLjAzNSAyLjAyNi0zLjg5OSAzLjU0Ni01LjU0bC4wMS0uMDEyLjMzNS0uMzg4Yy41NzUtLjY2NiAxLjE2Ny0xLjM1MyAxLjY0MS0yLjE1OS41NzMtLjk2Mi45OTctMi4wMDQgMS4yNi0zLjA5Mi4zODktMS42NTUuNDEtMy4zNzUuMDYzLTUuMDM5LS4zMjEtMS41Mi0uOTU5LTIuOTkzLTEuODY5LTQuMjYzYTExLjYxIDExLjYxIDAgMCAwLTMuMjk1LTMuMTA0IDExLjUgMTEuNSAwIDAgMC00LjQzNC0xLjYxNSAxMS4zNCAxMS4zNCAwIDAgMC0xLjYyMy0uMTE1SDMyLjZhMTEuNDMgMTEuNDMgMCAwIDAtMS42MjEuMTE1IDExLjQ5IDExLjQ5IDAgMCAwLTQuNDM0IDEuNjE1IDExLjYzIDExLjYzIDAgMCAwLTMuMjk3IDMuMTA0Yy0uOTA1IDEuMjgtMS41NDEgMi43My0xLjg2OSA0LjI2My0uMzQ3IDEuNjY0LS4zMjUgMy4zODQuMDY1IDUuMDM5LjI1MSAxLjA1NC42NzcgMi4xMDMgMS4yNTggMy4wOTIuNDc1LjgwNSAxLjA2OCAxLjQ5MiAxLjY0MiAyLjE1OWwuMzM3LjM4OC4wMDcuMDEyYzEuNTA4IDEuNjE3IDIuNzEgMy40OTQgMy41NDkgNS41NGExOC4xNCAxOC4xNCAwIDAgMSAxLjM0MiA2LjQ2Yy4wNzcgMy43MDktMS4zNDkgNi40NzktMi41NTcgOC4xNDktMS4yNjUgMS43NDctMi41NTYgMi43MS0yLjkzNiAyLjk0OGwtMS44ODgtLjU2OGMtMS44NzktLjYzMS0zLjY5Ny0xLjQzMi01LjQzLTIuMzkzYTkuMjcgOS4yNyAwIDAgMCA0Ljg3My04LjE0M2MwLTIuMjU3LS44NzctNC40MjEtMi42MDctNi40MjItLjAyNi0uMDMxLS4wNTMtLjA1Ni0uMDcyLS4wNzdsLS41MTgtLjU2Ny0xLjM4OC0xLjYyNmExOS40NiAxOS40NiAwIDAgMS0zLjMyNS03LjEwNiAxOS41OCAxOS41OCAwIDAgMS0uMTA3LTguNTEzIDE5LjUyIDE5LjUyIDAgMCAxIDMuMTY0LTcuMjI0IDE5LjYyIDE5LjYyIDAgMCAxIDUuNTY2LTUuMjQyIDE5LjUgMTkuNSAwIDAgMSA3LjUxNC0yLjczN2MuOTA2LS4xMjkgMS44Mi0uMTkzIDIuNzM1LS4xOTJoLjI0NWExOS4yNiAxOS4yNiAwIDAgMSAyLjczNi4xOTJjMi42NjcuMzgzIDUuMjI2IDEuMzE2IDcuNTE1IDIuNzM3IDIuMTY0IDEuMzQ5IDQuMDkgMy4xNjMgNS41NjcgNS4yNDMgMS41MjYgMi4xNSAyLjYyMSA0LjY0OSAzLjE2NiA3LjIyNGExOS42NSAxOS42NSAwIDAgMS0uMTA4IDguNTEzIDE5LjQ2IDE5LjQ2IDAgMCAxLTMuMzI4IDcuMTA2Yy0uNDIyLjU3NS0uODkxIDEuMDgtMS4zOSAxLjYyNmwtLjUwMS41NTNjLS4wMDYuMDA1LS4wMS4wMDktLjAxNS4wMTMtLjAxOS4wMTktLjA0OC4wNDYtLjA3Mi4wOC0xLjc1NCAyLjEwOS0yLjYwNyA0LjIwMS0yLjYwNyA2LjQyNyAwIDMuNDEgMS44OTQgNi41NCA0Ljg3NyA4LjE0M2EzMi41NCAzMi41NCAwIDAgMS01LjQzMSAyLjM5M2wtMS44OTEuNTY4bS04LjY1OC0yNC42NzVjLTMuNTQ2IDAtNi40MzQtMi44ODctNi40MzQtNi40MzRzMi44ODctNi40MzUgNi40MzQtNi40MzUgNi40MzMgMi44ODcgNi40MzMgNi40MzUtMi44ODIgNi40My02LjQzMyA2LjQzNCIgc3Ryb2tlPSJub25lIiBmaWxsPSIjZjA0MjRkIiBmaWxsLXJ1bGU9Im5vbnplcm8iLz48L3N5bWJvbD48L3N2Zz4=;" parent="1" vertex="1">
                    <mxGeometry x="691" y="415.06" width="40.61" height="40" as="geometry"/>
                </mxCell>
                <mxCell id="j3j-qxB6jaAF0OhbkdxI-5" value="" style="shape=image;verticalLabelPosition=bottom;labelBackgroundColor=#ffffff;verticalAlign=top;aspect=fixed;imageAspect=0;image=data:image/svg+xml,PHN2ZyB4bWxucz0iaHR0cDovL3d3dy53My5vcmcvMjAwMC9zdmciIHhtbG5zOnhsaW5rPSJodHRwOi8vd3d3LnczLm9yZy8xOTk5L3hsaW5rIiB2aWV3Qm94PSIwIDAgNTUgNjUiIGZpbGw9IiNmZmYiIGZpbGwtcnVsZT0iZXZlbm9kZCIgc3Ryb2tlPSIjMDAwIiBzdHJva2UtbGluZWNhcD0icm91bmQiIHN0cm9rZS1saW5lam9pbj0icm91bmQiPjx1c2UgeGxpbms6aHJlZj0iI0EiIHg9Ii41IiB5PSIuNSIvPjxzeW1ib2wgaWQ9IkEiIG92ZXJmbG93PSJ2aXNpYmxlIj48cGF0aCBkPSJNMzYuOCA2LjJWMGgxNi4zdjIwLjFIMzkuMnYtNC42aDkuM1Y0LjdoLTcuMXY2LjFIMzBWNC43aC03djYuMUgxMS4zVjQuN0g0LjZ2MTAuOGg5djQuNkgwVjBoMTUuOXY2LjJoMi41VjBoMTYuMnY2LjJ6bTExLjYgMjIuNnYyNS42YTQuOTEgNC45MSAwIDAgMS00LjkgNC45SDkuN2E0LjkxIDQuOTEgMCAwIDEtNC45LTQuOVYyOC44aDQzLjZtNC42LTQuNkguMXYzMC4yYzAgNS4zIDQuMyA5LjYgOS42IDkuNmgzMy43YzUuMyAwIDkuNi00LjMgOS42LTkuNlYyOC44em0tMjYuNCAxNGMyLjggMCA1IDIuMyA1IDV2NS4zSDIxLjV2LTUuM2MwLTIuOCAyLjMtNSA1LjEtNW0wLTQuN2MtNS4zIDAtOS43IDQuMy05LjcgOS43djkuOWgxOS4zdi05LjljMC01LjMtNC4zLTkuNy05LjYtOS43eiIgc3Ryb2tlPSJub25lIiBmaWxsPSIjNGFhMGQ4IiBmaWxsLXJ1bGU9Im5vbnplcm8iLz48L3N5bWJvbD48L3N2Zz4=;" parent="1" vertex="1">
                    <mxGeometry x="747" y="415.06" width="33.85" height="40" as="geometry"/>
                </mxCell>
                <mxCell id="j3j-qxB6jaAF0OhbkdxI-6" value="" style="shape=image;verticalLabelPosition=bottom;labelBackgroundColor=#ffffff;verticalAlign=top;aspect=fixed;imageAspect=0;image=data:image/svg+xml,PHN2ZyB4bWxucz0iaHR0cDovL3d3dy53My5vcmcvMjAwMC9zdmciIHhtbG5zOnhsaW5rPSJodHRwOi8vd3d3LnczLm9yZy8xOTk5L3hsaW5rIiB2aWV3Qm94PSIwIDAgNjUgNjUiIGZpbGw9IiNmZmYiIGZpbGwtcnVsZT0iZXZlbm9kZCIgc3Ryb2tlPSIjMDAwIiBzdHJva2UtbGluZWNhcD0icm91bmQiIHN0cm9rZS1saW5lam9pbj0icm91bmQiPjx1c2UgeGxpbms6aHJlZj0iI0EiIHg9Ii41IiB5PSIuNSIvPjxzeW1ib2wgaWQ9IkEiIG92ZXJmbG93PSJ2aXNpYmxlIj48cGF0aCBkPSJNMzIgMEMxNC4zMjcgMCAwIDE0LjMyNiAwIDMyczE0LjMyOCAzMiAzMiAzMiAzMi0xNC4zMjcgMzItMzJTNDkuNjcyIDAgMzIgMHptMCA1OS45Yy01LjAyOCAwLTkuMTA1LTMuMzYtOS4xMDUtNy41aDE4LjJjMCA0LjE0Mi00LjA3NyA3LjUtOS4xMDUgNy41em0xNS4wNS05Ljk5M2gtMzAuMXYtNS40NTRoMzAuMXY1LjQ1NHptLS4xMDgtOC4yNkgxNy4wNDdsLS4yOTctLjM0NGMtMy4wOC0zLjc0LTMuODA0LTUuNy00LjUwOC03LjY4LS4wMTItLjA2NiAzLjczNC43NjYgNi40IDEuMzYzIDAgMCAxLjM2Ny4zMTYgMy4zNjQuNjgtMS45MTgtMi4yNS0zLjA1Ny01LjEwNy0zLjA1Ny04LjAzIDAtNi40MTUgNC45Mi0xMi4wMiAzLjE0NS0xNi41NSAxLjcyOC4xNCAzLjU3NSAzLjY0NiAzLjcgOS4xMjYgMS44MzctMi41MzggMi42MDUtNy4xNzIgMi42MDUtMTAuMDE0IDAtMi45NDIgMS45NC02LjM2IDMuODc4LTYuNDc3LTEuNzMgMi44NS40NDggNS4zIDIuMzgyIDExLjM1LjcyNiAyLjI3Ni42MzMgNi4xMDYgMS4xOTMgOC41MzUuMTg2LTUuMDQ1IDEuMDUzLTEyLjQwNSA0LjI1NC0xNC45NDYtMS40MTIgMy4yLjIgNy4yMDUgMS4zMTggOS4xMyAxLjggMy4xMDYgMi44NzMgNS40NiAyLjg3MyA5LjkgMCAyLjk4NC0xLjEwMiA1Ljc5My0yLjk2IDggMi4xMTMtLjM5NyAzLjU3Mi0uNzU0IDMuNTcyLS43NTRsNi44NjItMS4zNGMwLS4wMDEtLjk5NyA0LjEtNC44MjggOC4wNXoiIHN0cm9rZT0ibm9uZSIgZmlsbD0iI2RhNGUzMSIgZmlsbC1ydWxlPSJub256ZXJvIi8+PC9zeW1ib2w+PC9zdmc+;" parent="1" vertex="1">
                    <mxGeometry x="635" y="416" width="40" height="40" as="geometry"/>
                </mxCell>
                <mxCell id="j3j-qxB6jaAF0OhbkdxI-7" value="" style="shape=image;verticalLabelPosition=bottom;labelBackgroundColor=#ffffff;verticalAlign=top;aspect=fixed;imageAspect=0;image=data:image/svg+xml,PHN2ZyB4bWxucz0iaHR0cDovL3d3dy53My5vcmcvMjAwMC9zdmciIHhtbG5zOnhsaW5rPSJodHRwOi8vd3d3LnczLm9yZy8xOTk5L3hsaW5rIiB2aWV3Qm94PSIwIDAgNjUgNjUiIGZpbGw9IiNmZmYiIGZpbGwtcnVsZT0iZXZlbm9kZCIgc3Ryb2tlPSIjMDAwIiBzdHJva2UtbGluZWNhcD0icm91bmQiIHN0cm9rZS1saW5lam9pbj0icm91bmQiPjx1c2UgeGxpbms6aHJlZj0iI0EiIHg9Ii41IiB5PSIuNSIvPjxzeW1ib2wgaWQ9IkEiIG92ZXJmbG93PSJ2aXNpYmxlIj48ZyBzdHJva2U9IiMyODRhNmEiIGZpbGw9Im5vbmUiPjxwYXRoIGQ9Ik0zMS43NjYgMjMuN2wtNi42NS03LjUxOCIgc3Ryb2tlLXdpZHRoPSIuMjYiLz48cGF0aCBkPSJNMTAuNzkzIDE3LjkwOGw1LjIwNSA3LjYiIHN0cm9rZS13aWR0aD0iLjEzIi8+PGcgc3Ryb2tlLXdpZHRoPSIuMjYiPjxwYXRoIGQ9Ik0zMS43NjYgMjMuN2w2LjU3OC03LjZtMS4zNzQgMTUuOTg3bDcuODA3LTYuNTc4bS03LjgwNyA2LjU2OGw3LjgwNyA2Ljg2N20tOS4xMDggOC42NzZsLTYuNjUtNy4zNzNtLTYuNjUgNy4zNzNsNi42NS03LjM3M20tMTUuNzYtMS41OTJsNy41MTgtNi41NzhtLTcuNTE3LTYuNThsNy41MTggNi41NzhtOC4yNC04LjM4NmwtMTUuNzYgMS44MDdtMTUuNzYtMS44MDZsMTUuNzYgMS44MDciLz48cGF0aCBkPSJNMzkuNzE4IDMyLjA3N0wzOC4zNDMgMTYuMW0xLjM3NSAxNS45NzdsLTEuMyAxNS41NDIiLz48cGF0aCBkPSJNNDcuNTI1IDM4Ljk0NGwtMTUuNzYgMS4zbS0xNS43NTgtMS42bDE1Ljc2IDEuNiIvPjxwYXRoIGQ9Ik0yNS4xMTYgNDcuNjJsLTEuNi0xNS41NDJtMS42LTE1LjkwNWwtMS42IDE1LjkwMyIvPjwvZz48ZyBzdHJva2Utd2lkdGg9Ii4xMyI+PHBhdGggZD0iTTguNzc4IDI3LjUyMmw3LjIzLTIuMDI0bTEuNTE3LTE0Ljc0Nmw3LjYgNS40MjJtMS43MjYtOC44MmwtMS43MzUgOC44Mm0xLjczNS04LjgyTDM4LjM0MyAxNi4xIi8+PHBhdGggZD0iTTM2LjYwOSA3LjM1NGwxLjczNCA4Ljc0Nm03LjU5Mi01LjM0OGwtNy42IDUuMzVtMTQuMzk1IDEuODA2TDM4LjM0MyAxNi4xbTkuMTgyIDkuMzk4bDUuMjA1LTcuNm0tNS4yMDUgNy42bDcuMzczIDIuMDI0bS03LjM3My0yLjAyNGw3LjIzIDEwLjk4OE0zNi42MDkgNy4zNTRsLTExLjQ5NCA4LjgyIi8+PHBhdGggZD0iTTQ3LjUyNSAyNS40OThsLTEuNi0xNC43NDdtMS42IDI4LjE5M2w3LjIzLTIuNDU4Ii8+PHBhdGggZD0iTTQ3LjUyNSAzOC45NDRsNy4zNzMtMTEuNDIybS03LjM3MyAxMS40MjJsNS4yMDUgNy4wMTJtLTUuMjA1LTcuMDEybC0xLjYgMTQuMTY4bS03LjUwOC01LjQ5Mmw3LjUxOCA1LjQ5NCIvPjxwYXRoIGQ9Ik0zOC40MTcgNDcuNjJsMTQuMzEzLTEuNjYzTTM4LjQxNyA0Ny42MmwtMS43MjQgOC44OG0xLjcyNC04Ljg4TDI2Ljg1MSA1Ni41bS0xLjczNS04Ljg4bDEuNzM1IDguOSIvPjxwYXRoIGQ9Ik0yNS4xMTYgNDcuNjJsMTEuNTc3IDguODhtLTExLjU2Ny04Ljg4bC03LjYgNS40OTRtNy42LTUuNDk0bC0xNC4zMzMtMS41OTJtNS4yMTQtNy4zNzNsLTUuMjE0IDcuMzczIi8+PHBhdGggZD0iTTE2LjAwNyAzOC42NTVsMS41MTggMTQuNDU4bS0xLjUxOC0xNC40NThsLTcuMy0yLjI0bTcuMy0xMC45MTdsLTcuMyAxMC45MTYiLz48cGF0aCBkPSJNMTYuMDA3IDM4LjY1NWwtNy4yMy0xMS4xMzJtOC43NDgtMTYuNzdMMTYuMDA3IDI1LjUiLz48cGF0aCBkPSJNMTAuNzkzIDE3LjkwOGwxNC4zMTMtMS43MzUiLz48L2c+PC9nPjxnIHN0cm9rZT0iIzI0NDA1ZCIgc3Ryb2tlLXdpZHRoPSIuMTAxIj48cGF0aCBkPSJNMTcuNTI1IDEwLjc1MkwxMS45NTkgOC4xNW01LjU2NiAyLjYwMmwtLjQzMi02LjA3Mm05Ljc1OCAyLjY3NEwxNy4wOTMgNC42OCIgZmlsbD0ibm9uZSIvPjxwYXRoIGQ9Ik0yNi44NTEgNy4zNTRsLTQuMTkzLTUuMTMybTQuMTkzIDUuMTMyTDI4LjU4NSAxLjJtLTExLjA2IDkuNTUybDUuMTMyLTguNTNtMTMuOTUyIDUuMTMyTDI4LjU4NSAxLjIiIGZpbGw9Im5vbmUiLz48cGF0aCBkPSJNMzYuNjA5IDcuMzU0TDM0Ljc5My45OTNtLTcuOTUyIDYuMzZsNy45NTItNi4zNm0xLjgxNiA2LjM2bDQuMTk0LTUuMTMzbTUuMTMzIDguNTNsLTUuMTQzLTguNTI4IiBmaWxsPSJub25lIi8+PHBhdGggZD0iTTQ1LjkzNSAxMC43NTJsLjUwNi02LjA3Mm0tOS44MzIgMi42NzRsOS44My0yLjY3NW0tLjUwNCA2LjA3M2w1LjctMi44OTJtLTUuNyAyLjg5Mmw5LjkwMyAxLjUxOCIgZmlsbD0ibm9uZSIvPjxwYXRoIGQ9Ik01Mi43MyAxNy45MDhsMy4xMDgtNS42MzhtLTMuMTA4IDUuNjM4TDUxLjY0NSA3Ljg2bTEuMDg1IDEwLjA0OGw2LjUwNi0uNTA2bS02LjUwNi41MDZsOC45IDUuMDYiIGZpbGw9Im5vbmUiLz48cGF0aCBkPSJNNTQuODk4IDI3LjUyMmw0LjMzNy0xMC4xMm0tNC4zMzcgMTAuMTJsNi43MjMtNC41NTRtLTYuNzIzIDQuNTU0bDcuNTE4IDEuNTE4bS03LjY2MyA3LjQ0Nmw3LjY2My03LjQ0NiIgZmlsbD0ibm9uZSIvPjxwYXRoIGQ9Ik01NC43NTMgMzYuNDg2bDcuODgtMS40NDZtLTcuNzM1LTcuNTE4bDcuNzM1IDcuNTE4bS03Ljg4IDEuNDQ2bDYuNzIzIDQuNDgybS04Ljc0NiA0Ljk4OGw4Ljc0Ny00Ljk4OCIgZmlsbD0ibm9uZSIvPjxwYXRoIGQ9Ik01Mi43MyA0NS45NTZsNi40MzQuNjVtLTQuNC0xMC4xMmw0LjQgMTAuMTJtLTYuNDI0LS42NWwzLjAzNiA1LjdtLTMuMDM2LTUuN2wtMS4xNDcgOS45NzYiIGZpbGw9Im5vbmUiLz48cGF0aCBkPSJNNTEuNTczIDU1LjkzMmwtNS42MzgtMi44Mm0wIDBsLjQzNCA2LjNtLS40MzQtNi4zbDkuODMtMS40NDZtLTkuODMgMS40NDZsLTUuMTQyIDguNjc1IiBmaWxsPSJub25lIi8+PHBhdGggZD0iTTM2LjY5MyA1Ni41bDQuMSA1LjI3N20tNC4xLTUuMjc3bDkuNjg3IDIuODkyTTM2LjY5MyA1Ni41bC0xLjkgNi41MDZtMS45LTYuNTA2bC04LjA5NiA2LjUwNiIgZmlsbD0ibm9uZSIvPjxwYXRoIGQ9Ik0yNi44NTEgNTYuNWwxLjczNSA2LjUwNk0yNi44NTEgNTYuNWw3Ljk0MiA2LjUwNk0yNi44NTEgNTYuNWwtNC4xMiA1LjI3N20tNS4yMDYtOC42NjVsNS4yMDUgOC42NzUiIGZpbGw9Im5vbmUiLz48cGF0aCBkPSJNMjYuODUxIDU2LjVsLTkuODMgMy4wMzZtLjUwNC02LjQyNGwtLjUwNiA2LjQzNG0uNTA2LTYuNDM0bC01LjYzOCAzLjEwOG0tMS4wOTQtMTAuMTkybDEuMDg0IDEwLjE5MyIgZmlsbD0ibm9uZSIvPjxwYXRoIGQ9Ik0xNy41MjUgNTMuMTEyTDcuNjIzIDUxLjc0bTMuMTctNS43MTJsLTMuMTggNS43bTMuMTgtNS43bC02LjUwNi42NW02LjUwNi0uNjVMMS44MzkgNDEuMDRtNi44NjctNC42MjZMMS44MzkgNDEuMDRtNi44NjctNC42MjZMLjg5OSAzNS4wNCIgZmlsbD0ibm9uZSIvPjxwYXRoIGQ9Ik04LjcwNiAzNi40MTRsLTQuNCAxMC4yNjVtNC40NzItMTkuMTU3TC44OTggMzUuMDQiIGZpbGw9Im5vbmUiLz48cGF0aCBkPSJNOC43MDYgMzYuNDE0TC44OTkgMjkuMDRtNy44OC0xLjUxOEwyLjA1NiAyMy4wNCIgZmlsbD0ibm9uZSIvPjxwYXRoIGQ9Ik04Ljc3OCAyNy41MjJMLjg5OCAyOS4wNG03Ljg4LTEuNTE4bC00LjQ4Mi0xMC4xMiIgZmlsbD0ibm9uZSIvPjxwYXRoIGQ9Ik0xMC43OTMgMTcuOTA4bC02LjUwNi0uNTA2bTYuNTA2LjUwNkwyLjA1NiAyMy4wNG04LjczNy01LjEzMmwtMy4xLTUuMzQ4bTMuMSA1LjM0OGwxLjE1Ny05Ljc2IiBmaWxsPSJub25lIi8+PHBhdGggZD0iTTE3LjUyNSAxMC43NTJMNy42OTMgMTIuNTYiIGZpbGw9Im5vbmUiLz48L2c+PGcgc3Ryb2tlPSJub25lIiBmaWxsLXJ1bGU9Im5vbnplcm8iPjxwYXRoIGQ9Ik0xOS42NTUgMzUuODM1bC4wNTMtNy42IDcuNjA1LjA1My0uMDUzIDcuNnptOC4yMjgtOC4zNzJsLjA1My03LjYgNy42MDUuMDUzLS4wNTMgNy42em0tLjAwMiAxNi42N2wuMDUzLTcuNiA3LjYwNS4wNTMtLjA1MyA3LjZ6bTguMy04LjM3bC4wNTMtNy42IDcuNjA1LjA1My0uMDUzIDcuNnoiIGZpbGw9IiMyNTZlYTUiLz48cGF0aCBkPSJNMzUuNzQzIDE4Ljc0NGwuMDM3LTUuMjc3IDUuMy4wMzctLjAzNyA1LjI3N3ptLTEzLjI1LS4wMDFsLjAzNy01LjI3NyA1LjMuMDM3LS4wMzcgNS4yNzd6bS05LjE3MiA5LjRsLjAzNy01LjI3NyA1LjMuMDM3LS4wMzcgNS4yNzd6TTEzLjMxNSA0MS40bC4wNTUtNS4yNzcgNS4yOTguMDU1LS4wNTUgNS4yNzd6bTMxLjU5OC0uMWwuMDM3LTUuMjc3IDUuMy4wMzctLjAzNyA1LjI3N3ptLjEwNy0xMy4xMmwuMDU1LTUuMjc3IDUuMjk4LjA1NS0uMDU1IDUuMjc3eiIgZmlsbD0iIzMzNzhiYyIvPjxwYXRoIGQ9Ik05LjAyNiAxOS42M2wuMDI0LTMuNDcgMy40NjMuMDI0LS4wMjQgMy40N3ptNi43Ny03LjA2MmwuMDI0LTMuNDcgMy40NjMuMDI0LS4wMjQgMy40N3ptOS4zMi0zLjQ5M2wuMDI0LTMuNDcgMy40NjMuMDI0LS4wMjQgMy40N3pNNi45ODcgMjkuMjRsLjAyNC0zLjQ3IDMuNDQuMDI0LS4wMjQgMy40N3pNNTAuOTggMTYuMjA4bDMuNDctLjAyNC4wMjQgMy40NjMtMy40Ny4wMjR6bS02Ljc3My03LjE4bDMuNDctLjAyNC4wMjQgMy40NjMtMy40Ny4wMjR6bS05LjM1LTMuNDA2bDMuNDctLjAyNC4wMjQgMy40NjMtMy40Ny4wMjR6bTE4LjE0IDIwLjE4NmwzLjQ3LS4wMjQuMDI0IDMuNDYzLTMuNDcuMDI0eiIgZmlsbD0iIzE2OWJkNiIvPjxwYXRoIGQ9Ik0yMi40MiA1MC40bC4wMzctNS4yNzcgNS4zLjAzNy0uMDM3IDUuMjc3em0xMy4yNSAwbC4wMzctNS4yNzcgNS4zLjAzNy0uMDM3IDUuMjc3eiIgZmlsbD0iIzMzNzhiYyIvPjxwYXRoIGQ9Ik01MC45NTcgNDcuNzNsLjAyNC0zLjQ3IDMuNDYzLjAyNC0uMDI0IDMuNDd6bS02LjY5OCA3LjEzNGwuMDI0LTMuNDcgMy40NjMuMDI0LS4wMjQgMy40N3ptLTkuMzIgMy40MmwuMDI0LTMuNDcgMy40NjMuMDI0LS4wMjQgMy40N3pNNTIuOTk1IDM4LjEybC4wMjQtMy40NyAzLjQ2My4wMjQtLjAyNCAzLjQ3ek05LjAzMyA0NC4yNmwzLjQ3LS4wMjQuMDI0IDMuNDYzLTMuNDcuMDI0em02Ljc3MiA3LjEwOGwzLjQ3LS4wMjQuMDI0IDMuNDYzLTMuNDcuMDI0em05LjI3NiAzLjQwNWwzLjQ3LS4wMjQuMDI0IDMuNDYzLTMuNDcuMDI0ek03LjAxMyAzNC42NmwzLjQ3LS4wMjQuMDI0IDMuNDYzLTMuNDcuMDI0eiIgZmlsbD0iIzE2OWJkNiIvPjxnIGZpbGw9IiMwMGE4ZGEiPjx1c2UgeGxpbms6aHJlZj0iI0MiLz48dXNlIHhsaW5rOmhyZWY9IiNDIiB4PSIyLjQ3NCIgeT0iNS42NzgiLz48dXNlIHhsaW5rOmhyZWY9IiNDIiB4PSItMy4zNDgiIHk9Ii01LjAyNCIvPjx1c2UgeGxpbms6aHJlZj0iI0MiIHg9Ii00Ny4yNDQiIHk9Ii05LjMxOSIvPjx1c2UgeGxpbms6aHJlZj0iI0MiIHg9Ii01OC4yMzciIHk9IjExLjY0NSIvPjx1c2UgeGxpbms6aHJlZj0iI0MiIHg9Ii03LjU3IiB5PSItOS4zMTgiLz48dXNlIHhsaW5rOmhyZWY9IiNDIiB4PSItNTcuMTQ0IiB5PSI1LjY3NiIvPjx1c2UgeGxpbms6aHJlZj0iI0MiIHg9Ii0zNi40NzIiIHk9Ii0xNS4xNDIiLz48dXNlIHhsaW5rOmhyZWY9IiNDIiB4PSItNTQuODE2IiB5PSItMC4wMDIiLz48dXNlIHhsaW5rOmhyZWY9IiNDIiB4PSItNTEuMzk0IiB5PSItNS4wOTYiLz48cGF0aCBkPSJNMTYuMTIzIDMuNzNsMS44OC0uMDEzLjAxMyAxLjkxNi0xLjg4LjAxM3pNMjcuNzM1LjAzNGwxLjg4LS4wMTMuMDEzIDEuOTE2LTEuODguMDEzeiIvPjx1c2UgeGxpbms6aHJlZj0iI0MiIHg9Ii0xMi42NjciIHk9Ii0xMi42NjciLz48dXNlIHhsaW5rOmhyZWY9IiNDIiB4PSIzLjQyMiIgeT0iMTEuNTc0Ii8+PHBhdGggZD0iTTMzLjg1IDEuODhMMzMuODYzIDBsMS45MTYuMDEzLS4wMTMgMS44OHoiLz48dXNlIHhsaW5rOmhyZWY9IiNDIiB4PSItMTguNDE3IiB5PSItMTUuMjE1Ii8+PHVzZSB4bGluazpocmVmPSIjQyIgeD0iLTcuNTcyIiB5PSIzOC41ODEiLz48dXNlIHhsaW5rOmhyZWY9IiNDIiB4PSIzLjQyMiIgeT0iMTcuNjE2Ii8+PHVzZSB4bGluazpocmVmPSIjQyIgeD0iLTQ3LjI0NiIgeT0iMzguNTgiLz48dXNlIHhsaW5rOmhyZWY9IiNDIiB4PSIyLjQ3NCIgeT0iMjMuNjY4Ii8+PHVzZSB4bGluazpocmVmPSIjQyIgeD0iLTE4LjQxOSIgeT0iNDQuNDc4Ii8+PHVzZSB4bGluazpocmVmPSIjQyIgeD0iLTAuMDAxIiB5PSIyOS4zMzYiLz48dXNlIHhsaW5rOmhyZWY9IiNDIiB4PSItMy4zNDkiIHk9IjM0LjQzMiIvPjxwYXRoIGQ9Ik00NS40OTMgNTguNTM0bDEuODgtLjAxMy4wMTMgMS45MTYtMS44OC4wMTN6bS0xMS41NDIgMy41NWwxLjg4LS4wMTMuMDEzIDEuOTE2LTEuODguMDEzeiIvPjx1c2UgeGxpbms6aHJlZj0iI0MiIHg9Ii00Mi4wNzciIHk9IjQyLjE0OCIvPjx1c2UgeGxpbms6aHJlZj0iI0MiIHg9Ii01NC44ODkiIHk9IjI5LjI2MiIvPjx1c2UgeGxpbms6aHJlZj0iI0MiIHg9Ii01Ny4xNDYiIHk9IjIzLjY1OCIvPjx1c2UgeGxpbms6aHJlZj0iI0MiIHg9Ii01MS40NjkiIHk9IjM0LjQzIi8+PHVzZSB4bGluazpocmVmPSIjQyIgeD0iLTU4LjIzNyIgeT0iMTcuNjE1Ii8+PHVzZSB4bGluazpocmVmPSIjQyIgeD0iLTMwLjQzIiB5PSI0NS42NDIiLz48dXNlIHhsaW5rOmhyZWY9IiNDIiB4PSItMzYuNTQ0IiB5PSI0NC40MDQiLz48L2c+PC9nPjwvc3ltYm9sPjxkZWZzPjxwYXRoIGlkPSJDIiBkPSJNNTguMjM3IDE4LjMzMmwuMDEzLTEuODggMS45MTYuMDEzLS4wMTMgMS44OHoiLz48L2RlZnM+PC9zdmc+;" parent="1" vertex="1">
                    <mxGeometry x="409" y="415" width="40" height="40" as="geometry"/>
                </mxCell>
                <mxCell id="FAwcwf4mKVhv5pW4rXHg-19" value="Worker" style="rounded=0;whiteSpace=wrap;html=1;shadow=0;glass=0;sketch=0;fontSize=22;fillColor=default;verticalAlign=top;opacity=30;" parent="1" vertex="1">
                    <mxGeometry x="614" y="570" width="200" height="100" as="geometry"/>
                </mxCell>
                <mxCell id="FAwcwf4mKVhv5pW4rXHg-20" value="Worker" style="rounded=0;whiteSpace=wrap;html=1;shadow=0;glass=0;sketch=0;fontSize=22;fillColor=default;verticalAlign=top;opacity=15;" parent="1" vertex="1">
                    <mxGeometry x="619" y="566" width="200" height="100" as="geometry"/>
                </mxCell>
                <mxCell id="xN60sLdvEwKI37UPjvCN-111" value="" style="group" parent="1" vertex="1" connectable="0">
                    <mxGeometry x="629" y="555" width="200" height="102" as="geometry"/>
                </mxCell>
                <mxCell id="xN60sLdvEwKI37UPjvCN-113" value="" style="shape=image;verticalLabelPosition=bottom;labelBackgroundColor=#ffffff;verticalAlign=top;aspect=fixed;imageAspect=0;image=https://upload.wikimedia.org/wikipedia/commons/thumb/3/38/Prometheus_software_logo.svg/484px-Prometheus_software_logo.svg.png;" parent="xN60sLdvEwKI37UPjvCN-111" vertex="1">
                    <mxGeometry x="38.0952380952381" y="37.008333333333354" width="39.682539682539684" height="39.357142857142875" as="geometry"/>
                </mxCell>
                <mxCell id="xN60sLdvEwKI37UPjvCN-114" value="" style="shape=image;verticalLabelPosition=bottom;labelBackgroundColor=#ffffff;verticalAlign=top;aspect=fixed;imageAspect=0;image=https://www.vectorlogo.zone/logos/ceph/ceph-icon.svg;" parent="xN60sLdvEwKI37UPjvCN-111" vertex="1">
                    <mxGeometry x="114.2857142857143" y="36.66666666666666" width="39.682539682539684" height="39.682539682539684" as="geometry"/>
                </mxCell>
                <mxCell id="xN60sLdvEwKI37UPjvCN-119" value="Worker" style="rounded=0;whiteSpace=wrap;html=1;shadow=0;glass=0;sketch=0;fontSize=22;verticalAlign=top;" parent="1" vertex="1">
                    <mxGeometry x="610" y="573.91" width="200" height="100" as="geometry"/>
                </mxCell>
                <mxCell id="j3j-qxB6jaAF0OhbkdxI-3" value="" style="shape=image;verticalLabelPosition=bottom;labelBackgroundColor=#ffffff;verticalAlign=top;aspect=fixed;imageAspect=0;image=data:image/svg+xml,PHN2ZyB4bWxucz0iaHR0cDovL3d3dy53My5vcmcvMjAwMC9zdmciIHhtbG5zOnhsaW5rPSJodHRwOi8vd3d3LnczLm9yZy8xOTk5L3hsaW5rIiB2aWV3Qm94PSIwIDAgMTQzIDE1MSIgZmlsbD0iI2ZmZiIgZmlsbC1ydWxlPSJldmVub2RkIiBzdHJva2U9IiMwMDAiIHN0cm9rZS1saW5lY2FwPSJyb3VuZCIgc3Ryb2tlLWxpbmVqb2luPSJyb3VuZCI+PHVzZSB4bGluazpocmVmPSIjQSIgeD0iLjUiIHk9Ii41Ii8+PHN5bWJvbCBpZD0iQSIgb3ZlcmZsb3c9InZpc2libGUiPjxwYXRoIGZpbGw9IiMzZjdhOWMiIGQ9Ik05OC4xMjggMzkuMDQ1bC41ODIuNDQ2YzMuNTIyIDIuNzQ4IDYuNjIxIDYuMDEgOS4xODYgOS42NzVhNDQuOSA0NC45IDAgMCAxIDIuMTEgMy4zMTVsNi41MDEtMy43NTNjLS43NjUtMS4zMjctMS41ODctMi42MTctMi40NjItMy44NjctMi4yNDgtMy4yMTItNC44NDgtNi4xNTktNy43NDMtOC43ODUgMS43MDctMS41MDQgMy40OTQtMy40MiA1LjE5Mi01LjYzMyA1LjA1OS02LjU5MyA3LjM2Mi0xMy4yNTggNS4xNjUtMTQuOTQ0cy04LjAzOSAyLjI2NC0xMy4wOTggOC44NTdjLTEuNjk4IDIuMjEzLTMuMDg2IDQuNDM1LTQuMDk3IDYuNDc0LTcuMDYxLTQuNTQ2LTE1LjI5My03LjQ0NC0yNC4xNi04LjE1NkM3NS43NDYgMjAuNDMgNzYgMTcuODA3IDc2IDE1YzAtOC4zMS0yLjIzLTE1LTUtMTVzLTUgNi42OS01IDE1YzAgMi44MDcuMjU1IDUuNDMuNjk4IDcuNjcyLTguODY3LjcxMy0xNy4wOTkgMy42MS0yNC4xNiA4LjE1Ni0xLjAxMS0yLjAzOS0yLjM5OS00LjI2LTQuMDk3LTYuNDc0LTUuMDU5LTYuNTkzLTEwLjkwMS0xMC41NDMtMTMuMDk4LTguODU3cy4xMDYgOC4zNTEgNS4xNjUgMTQuOTQ0YzEuNjk4IDIuMjEzIDMuNDg1IDQuMTI4IDUuMTkyIDUuNjMzLTIuODk2IDIuNjI2LTUuNDk1IDUuNTczLTcuNzQ0IDguNzg1LS44NzUgMS4yNS0xLjY5NyAyLjU0LTIuNDYyIDMuODY3bDYuNTAxIDMuNzUzYTQ0LjgzIDQ0LjgzIDAgMCAxIDIuMTEtMy4zMTUgNDUuMDIgNDUuMDIgMCAwIDEgOS4xODYtOS42NzVsLjU4MS0uNDQ2QzUxLjQwNSAzMy4zNjMgNjAuNzk2IDMwIDcxIDMwczE5LjU5NSAzLjM2MyAyNy4xMjggOS4wNDV6bS02NC4wMjMgNjEuNzg5QTQ0Ljg4IDQ0Ljg4IDAgMCAwIDcxIDEyMGE0NC44OCA0NC44OCAwIDAgMCAzNi44OTUtMTkuMTY2bDYuMTQ5IDQuMzA2Yy0yLjI0OCAzLjIxMi00Ljg0OCA2LjE1OS03Ljc0MyA4Ljc4NSAxLjcwNyAxLjUwNCAzLjQ5NCAzLjQyIDUuMTkyIDUuNjMzIDUuMDU5IDYuNTkzIDcuMzYyIDEzLjI1OCA1LjE2NSAxNC45NDRzLTguMDM5LTIuMjY0LTEzLjA5OC04Ljg1N2MtMS42OTgtMi4yMTMtMy4wODYtNC40MzUtNC4wOTctNi40NzQtNy4wNjEgNC41NDYtMTUuMjkzIDcuNDQ0LTI0LjE2IDguMTU2LjQ0NCAyLjI0Mi42OTggNC44NjUuNjk4IDcuNjcyIDAgOC4zMS0yLjIzIDE1LTUgMTVzLTUtNi42OS01LTE1YzAtMi44MDcuMjU1LTUuNDMuNjk4LTcuNjcyLTguODY3LS43MTMtMTcuMDk5LTMuNjEtMjQuMTYtOC4xNTYtMS4wMTEgMi4wMzktMi4zOTkgNC4yNi00LjA5NyA2LjQ3NC01LjA1OSA2LjU5My0xMC45MDEgMTAuNTQzLTEzLjA5OCA4Ljg1N3MuMTA2LTguMzUxIDUuMTY1LTE0Ljk0NGMxLjY5OC0yLjIxMyAzLjQ4NS00LjEyOCA1LjE5Mi01LjYzMy0yLjg5Ni0yLjYyNi01LjQ5NS01LjU3My03Ljc0NC04Ljc4NXpNMTA1IDk1VjU3aDExbDggMjMgOC0yM2gxMHYzOGgtOVY4M2wyLTE0LTkgMjNoLTVsLTktMjMgMiAxNHYxMnpNNzMgNTd2MzhoMjV2LThIODNWNTd6bS0zMyAwdjM4aDI2di04SDUwdi03aDEzdi04SDUwdi03aDE1di04ek0xMCA5NVY4MGgxMnYxNWgxMFY1N0gyMnYxNEgxMFY1N0gwdjM4eiIgc3Ryb2tlPSJub25lIi8+PC9zeW1ib2w+PC9zdmc+;" parent="1" vertex="1">
                    <mxGeometry x="625" y="616.5" width="37.88" height="40" as="geometry"/>
                </mxCell>
                <mxCell id="j3j-qxB6jaAF0OhbkdxI-4" value="" style="shape=image;verticalLabelPosition=bottom;labelBackgroundColor=#ffffff;verticalAlign=top;aspect=fixed;imageAspect=0;image=data:image/png,iVBORw0KGgoAAAANSUhEUgAAAzEAAAJqCAYAAAAbqM4AAAABhWlDQ1BJQ0MgcHJvZmlsZQAAKJF9kT1Iw1AUhU9bS0UrDhYREcxQnSyIijhqFYpQIdQKrTqYvPQPmjQkKS6OgmvBwZ/FqoOLs64OroIg+APi6OSk6CIl3pcUWsR44fE+zrvn8N59gL9eZqrZMQ6ommWkEnEhk10VQq/wIYhu9GNYYqY+J4pJeNbXPXVT3cV4lnffn9Wj5EwG+ATiWaYbFvEG8fSmpXPeJ46woqQQnxOPGXRB4keuyy6/cS447OeZESOdmieOEAuFNpbbmBUNlXiKOKqoGuX7My4rnLc4q+Uqa96TvzCc01aWuU5rCAksYgkiBMioooQyLMRo10gxkaLzuId/0PGL5JLJVQIjxwIqUCE5fvA/+D1bMz854SaF40DwxbY/RoDQLtCo2fb3sW03ToDAM3CltfyVOjDzSXqtpUWPgN5t4OK6pcl7wOUOMPCkS4bkSAFa/nweeD+jb8oCfbdA15o7t+Y5Th+ANM0qeQMcHAKjBcpe93h3Z/vc/u1pzu8HHdlyhSmiUwIAAAAGYktHRACoAPwA/LHBW6sAAAAJcEhZcwAAD2EAAA9hAag/p2kAAAAHdElNRQfmAQULGAH/PsyTAAAgAElEQVR42u3dWXIby9WoUYDBSXgGR+Kzp+HBehp+JqUZeBjwg8RjiY1IFLLZzVoRjvjjxj1qClWZ+0MC1OkEAACQyNkloLGL5wIAQMRA5njxfAAAiBhIGzCeEQCAoO5dAsQLAACZeJcZAeM5AQBI5c4lQMAAACBiQMAAADCJj8kgYDwrAACp+GI/oyLhHPTPBQBAMd5dZnQgnIP/+TwrAAAiBgET4t66eFYAAHrwxX4iBEL1Px8AACIG4VP29wEAQMRQeHgXFgAAIgbSRIaAAQAQMZAmFAQMAICIAQEjngAARAyICAAARAxtY0HAAAAgYhALAACIGARM9T+XyAMAEDEgGgAAEDHUiAUBAwDAK2eXgAWxcA74Z/LsAAAk5SQGJzAAAIgYAAAAEcMMTmEAABAxCJgmASO2AABEDAIGAABEDDFiQaAAACBiKBUTF9cTAAARg4ABAEDEgIARYQAAIgaDNgAAiBgSBIywAgDgkLNLIGA23G8XzxIAAEc5iREwAAAgYhAwDeNKNAIAiBgM0wAA8JrP8YsYPFMAAKk4iREwAACQineNBQyeKwCAVJzECBgAAEjFO8YCBs8WAEAqTmIEDAAApOLdYgGD5wsAIBUnMQIGAABS8U6xeMEzBgBgwELA4FkDADBYCRg8cwAAGKgEDJ4/AABDFAIGzyEAgOFJwOCZBADAwCRg8GwCABiUEDB4TgEADEcCBjyvAACGIvGC5xYAwDCEgMHzCwBgCBIw4DkGADD8NIiXy+X/v8X57GX2PAMAGHpIEjBCxnMNAGDYIWzAvBUvYsbzDQBgyCFtwAgZzzkAgOGG7fFybcCIGc87AIChhpQBI2Y88wAABhqWxsuogBEynn0AAIMM6QJGzFgDAAAMMOIlZcAIGesAAIDhRcCkihcxYz1wCQAAQ4t4SRswYsa6AABgWBEwKQNGzFgbAAAMKuIlXbyIGWsEAIABRcCkDRgxY50AADCciJeUASNmrBcAAIYS8ZIyYASNNQMAwEAiXmrcWGLG2gEAYBARMGIG6wcAgCFEvAgarCEAgAFEvAgYIWMtAQAweIgXIYP1BADgdDqdTndN40XAQJE3BgCAfjq9c7ptwBIvb9x4TmOsLQAAB3U4idl28iJgaMyNDwBMU/nd0q1D1M54+ee///v3//2ff/0j7s3nNMYaAwBgwNgfLzsC5tdo+UikqBEx1hkAgO7DRbt4uTZgIsaMkLHeAAB0GyrCfO4+8umLkMGaAwAYKMTLtngZFTCRQkbEWHcAAK6R6aeTXU6bf9LYy3ip8JPHRgZRphBk+7MMAHDYvWEn18AdITpg0LPtRAYAOCTiEBHyXdoIpwUzA8bHyrAGAQBZRDmJCfvxEh91gunPvpABAK6y6zsxl1Ow77gIGNebrSHjxQcAQkZM+Gj5dZjuNlD7rg1BYgYA4EMzP06WbiCJHC5dIuNyufhujJBxAwAASyMm5TupPsYkZBAyAECfiEk9/YsXEDIAQI+IES4seZ2cxrgNhAwA8JZrv9iftgCyf1k/wr/jAptCBgDgcMSk/b6L05eckeR1Q8gAALdETMqfNGYILjC9eg0RMgDAC5/9vHmKAaLDwDvjRy1n+Kia78dw5ZoFABR2V+Uv4h372ry+PN8KLgEA8Jl3NUMPDR2H25GnMZl+YIDTGK5cuwCAolKfxHR9d35UeGT7iWdOY/j1dnAJAEDECJhmIZP1RzYLGQAAUn6x3yD7u2s+Xlbl35vx0TKuXMMAABEjYLLFTLV/LFPEIGQAwOafImIEDEIGIQMAXLPxby0IAYOQQcgAAKdTki/2CxjcG3zmdnAJAEDEvLTlXU5DKiBkAICjEbMtZEDoImQAgKMRYzjFvQIAwFZHT1amT4yGUg7d0L7oz+3rGwAQXMiTGAGDe4cRt4NLAAAi5lfT3uE0hAJCBgCYETECBhAyAEC6iBl6GiNgAACA2REjYIAsLDIAUMiI05Qhw4GQYcgN7aeTMX/NAwA2C/OdGMMnsIB3SwBAxPzoD5cRAADIFDHDOI0BFnAaAwAi5kd/uJSAkAEAVhgdH77kz76b2Uke+9dAAGCBO5cAAADoHDFD3tX0jjqwiGNfABAxA2tIyABCBgBYFDHqA9ELAECqiDGYAtk4jQEAEeM0BhAyAECuiBkWMk5jcI8AALAqYgypQDZOYwBAxPhYGSBkAIBcETOuhpzGAAAAp3UnJcPe2bxcvEmKuKXU+ggAXGnVSYxhAAAASBUx42rIO+/AGo59AUDEOI1B0CJkAIBcEWN4BQAAbu+BDb+nL/kjZLFWAgCH7TiJMQwAAACpImZcDXk3HljDsS8AiJhxpzFCph+vOQCAiAHgY05jACCI3W9p+5I/192wTmGwbgJAe7tPYnysDAAASBUxANk49gUAEeM0Bq8vAAC5IkbIANk4jQEAEQPiFACAfBHjNAbIxGkMAIiYwUUkZLyWAACImBXzqpcEAADIGA3+EUx+3KBOYbCOAgAvlP9ivyEYAACKzfiB/2xbj1Cc4AhQKLKWAoCNt1PICCERAyIGAGy8rSJGCAkYrKcAQM9N13FGs8ARMFhPAYAKm66QaRQzIgZrKgDwJ1l+OpnBoMsEKGAAACgSMRj8IQOnxgAgYn6f1b1cYgwAALKdxJhyiwaAgAEAoGrEAETnI2UAIGJe8ZZ9MU5hAACoHjFCRsBAdE5jAEDEAAAA5I+Y88mJTGpOYSjOaQwAiBgxI2AAAOB0uq80Fx/4b7xTCgAAIqZ8+AigWy+6Uxj6iLBOeOAAEDEIIAEDbUPKAwyAiBFAveJGwEDbIPLwAyBiEDBAyfixUAAgYhAwQKnYsZgAIGIAKBM5AgdAxMAYTmEAgQOAiEHAAIwJHIsUgIgBAQOIGwBEDAIGIELcWNgARAwCBkDYACBiEDAAwgZAxICAAbghbCyOACIGAQMgagBEDAgYAFEDIGIQMACIGgARg4ABEDUAiBgEDICoARAxCBgARA2AiEHAACBqAEQM4gVA1ACIGAQMACGjxoIOiBgEDACCBkDEIGAAEDQAIgYBA8Ang0bUACIG8QJA6qixMQAiBgEDgKABEDGIFwAEDSBiEC8AIGgAEYOAAUDQAIgYxAsAggbo5s4lEDAAMCloLi4DMIOTGPECALNj5u9tyeUARAziBQBBA7Tj42QCBgB2BY2PmwHH5l2XINyCDgDmEgCLhYgBAPMJYJFAxACAWQWwMIgYlwAAzCyABUHEAID5BbAIIGIAwBwDePgRMQBgpgE88CIGAMw2gAcdEQMAZhzAA46IAQCzDuDBFjEAgLkHPMyIGAAw/wAeYkQMAJiDAA+viAEAzEPgoUXEAIC5CPCwImIAwHwEeEhFDABgVgIPJiIGAMxMgAcSEQMAZifAgyhiAAAzFHgAETEAgFkKPHiIGAAwUwEeOBEDAJitwIOGiAEAzFjgAUPEAIBZCzjgziUAAJjGG5QwgXcHLHQAgLkLPEyIGADA/AUeIhEDAJjDAA+PiAEAzGPgoUHEAADmMvCwiBgAwHwG/OBHLAMAxOJNTVD6Fi0AwKwGHgxEDABgZoNNfJwMACA+b3SCqrdAAQDmN/AQIGIAAHMcLODjZAAAOXnzEwWPxQgAMNNBBk5iAADy80Yoqh0LEABgvgM3OSIGADDnwQA+TgYAUJM3R1HoWGwAADMfuKERMQCA2Q+u5ONkAAB9eMMUNY6FBQAwB8JqTmIAAHry5ikKHIsJAGAmBDesiAEAMBvCCz5OBgDAM2+ooraxeAAA5kQYzUkMAABv8cYqChsLBgBgZoQRnMQAAPARb7KiqrFITLt4lx+X73x2awOA+RE3ISImScD8doOLGQAwQ+IGRMRkiBchAwBmSerynRhKB8xn//8AAMe2YpcA9YzFYGC8vLrZncgAgJkSNxwiJkvACBkAMFviRkPEpIoXIQMA5kvcZAiZlAEjZADAnImbCxGTKl6EDACYNXFjIWLSxYuYAQAzJ7n5Ecu0Dpgdvx8AdNzeXQJUsQddvMx4GJzIAIDZEzcSIiZDvAgZADB/4iZCxKSLFyEDAGZQ3ECImHTxImQAwByKmwcRkzJgxAwAmENx8yBiUv8EMCEDAGZR3Dg0CpkqP75YyACAWRQ3DsUjpuK/vSJkAMA8ipuGghHT4R+OFDMAYB7FTUPyiOn4L94LGQAwk+KGIWHEdIwXIQMAZlLcMCSMmO7xImQAwFyKm4UkISNexAwAmEtxs5AiYsSLkAEAsyluFMJHjHARMgBgNsWNQviIES5CBgDMp2Rw7xIgXgAAULoMbQzhkuiBcgoDAGZUpnMS06mGhAsAACqXFe0hXJI8TE5hAMCcyhJ3LgEAACBiCMPpgOsMAEn5OAkiJvN87BIAAICIgXGV6RQGAGZxGoOIMWQDAICIAYEIAMzkNAYRAwCAkEHEMJ+3+yO+KE5hAABEDAZuAIB3OI1BxAAAACKGuRylRHoxnGwBwA5OYxAxBm8AABAxIAYBgJmcxiBiss3PLgEAACKGXhXkFMH1A4D8nMaIGAAAEDKIGAAAABHD6XTyvZh9F95HyQAgGqcxIgbDOAAAiBgQfgDATE5jRAxZZmqXAAAAEUOvCnKyAADU4TRGxACCDwCEDCKGCbO14RwAABEDCD0AyMtpjIgBAAAQMYzlI2UAMMDlcjldLt7Er/JyugQiBvoWosADaBMwb/3fCBlEDIZ1AAgXL6IFRAybGsQlAIBx8SJs6rzULkFd9y4BvFGGTqcASsYLUGRWcwnqrM0WdxEDwLi9zV5g3iUuJzFg0wIQL5S+HYRMPb4Tg+EdgFLxMipghBDE5SSmUIOcfIENgKbhAh/dJienMaU4iQEA0sbL7IARSCBimO/mdxh8pAwA8ULVW8clqMPHyQCAFOGy8/f2Jl+pkPFiFuAkhlcs1ABEihenLsCredUlqLnmj9g0xJzHA2BnvNgXMAPzHicxvLtQP31/ar+BijmA9euutZcVt5tLoEIp+nA+fnt89f/29a+v7eMOgPHxYh/AHIwXjyER817IiBqbGEC3eLH+m4XxwlEoYroHjc0MoEe8WPvNw3jRKBwyXYPGhgZQO1ys+eZhvGg0iJiuUWNjA6gZLtZ7MzFeMJqGTKegsbkBwsU6j7kYLxaFIqZT1NjkAOEiZDAX48WiaMhUDhqbHCBeRAxmY7xQFI4YMQMgXKztmI/xIpE2ZKoGjQ0PEC7WdMzHeJFYGDG7QqZi0Nj4AOFiPceMzDH3LkGrhzH9jvT0/alMzFwuFxsfIFwg6OMgZFQmsR7IIXaexrxUIWjEDCBcrOOYlfk8JzH9HsRyu9Xz6UzmoHkeImyCgHABUJe8sXeN+oUinca8JfMJjZgBhIu1G/MyXhSahkzmmLEZAuLluKfvT8vXf+u2mRkvCElCJkPEZA8amyIgXD4fLrvXfWu2mRkvCAkiJmPIiBlAuNSPl53rvfXa3IwXgwQhkzFissaMjREQLZ+Ll51rvbXa7IwXggQRkz1kxAwgWmrGy8413jptdsYLgZARMzZJEC3CJdX6bn02PzOXfycG3tgks8TM5XKxUYJoES/WZxa/vEJGSRLnYRyiwmnMS1mCxmYJokW4xFrPrctmaLwACBkxY8ME4SJc0q3j1mVzNC4+IkbM2DRBtIgXIYNZGhceIVM1ZmyaIFqEi4jBPO2iI2SEjJgBREvSeBEymKdddESMiEkWMzZPEC3dw2X3mm0dNlPjgiNkxIxNFESLcEm3VluDzdW42CSJmK4hEzlmbKIgWDrHy8512vprtsaFRsjYIG2kIFaES7o12vprvsZFJlHIdI0YMQOCRbhYn6295mtcZJJGjJCJGzM2U8QK3cJl99ps3TVj4wIjZGyYNlTECsIl3Zps3TVn4+IiZGyaNlXECsIl1ZpsvTVr48KSLGKETOyYsbEiVESLtdh6i1nbhUXIiJh0MWNjRagIF+uw9RbztouKkBEyYgYBg3Cx/lpnzdy4oAgZG6kNFhGDaBEymLtdTFgcMUImR8zYYBExwsXaa43F7O1CImSETLqYsckiYESLNdcai9nbhUTIiJh0IWOjRcQIF2uutRXzt4uIkBEyKWPGZouIES7WWmsrZnAXEBEjZIQMAgbRYq21tprDcfEQMjZYmy0iRrggYjCHu3ggZGyyNlxEjGixxlpXMYu7cAgZISNmEDGCBeurNdU8jouGkLHRChkEjGBBxGAmd8FgfcQImXwxY+MVMYIF66r1FHO5i4WQETJCBhEjWGi6plpPzeW4WAgZm66NFwEjWEi1plpLzea4UAgZG6/NFxEjWLCWYj53kUDI2HxtvuSJGMGyxsOXhyW/z479wFqKGd0FQsgIGTGDiBEsjaKjStD4WBnmdBcHISNkhAwCRqyIklT7gjUUs7oLg4gRMs1ixiYsYkSKMBEy1lDM6y4KQkbICBlSR4xIESkZ9wURg5ndBUHICBkhQ+GIESlCRchYPzGzuyAIGSEjZGg3LAoVot6XQgZzu4uBkDFMNYwZG7FhUaggZKydmN1dCISMkBEyiBjBwsL702kM5ncXASFjqBIyGBIFC0LG2okZ3gWgZ8iIGSGDiBEsVA8Z66Y53l8ehAwBNmYbsuFQrJD1XnUag1neXxwhI2SEDIZCwUK6+1XIYJ73l0bICBkhg6FQtCBkrJmY6f2FETIIGfI+U6KFDPet0xjM9f6yCBkx0zxmbMq9h0HRgpCxZmKuFzEIGSEjZAj9HIkWM8bKfaFiyFgvEw06l8uM16zNDeBOR8ggZNj2/IgWM0HlkHEaw2ciRsj4SyJkxIyQIXjEiBZ7fLR9wcfKiBAxQsZfEDEjZIQMgSJGtNi3hYyPlfG5iBEy/nLYtIRM8ZixOceOGOFiX864H/hYGREiRsj4i2HjEjNChkXPiWix/woZIcO4iBEyFlFsXEJGyIA91n4gZKyV6SJGyFhgsXGJmcIhY2PGPkqmkBExXBMxQubP7txCGBz+zEdljnv6/rR9A4DB687L/yEkw6yJ1sqeobMz+D34kOSBdCpzjBMZ7I9k2w98rIxIgeJE5jUnMVQYNJzKBOdEhiTriBMWSq/31kqv3Yzg37lwQ5lnfOVv5lTmek5ksO+RbR/w/RiihMmE1y71zeBOxgYmZIQMggX7gJAheMQIGQs8NjExI2QQLNgDhAzpIkbIWPSxiYkZIYNowR6wfY3fFTHWybwRI2R+8MV+DDkD+eL/5/myPweeZ1+8Z+seMGON3/Vjl+kbQKuiX8TAmMFnaciIGZs3ogWir4Xe7BEymUPGxkCr533Hb+ojZh+b+XEKH5ewH2Htz7Cu+1iZCAn0+qW4Idy12MzEjJDBHoS1X8i4S5JGTNeQccdiQxMzQgZ7Dtb95iFjjcwdMR1Dxh2LDU3MCBnsM1j3g6zlTmNEjJCxuUD4mBEyQka0gJARMkJGyNhsIF3ICJq1m7gN2l4CQsY6WTliuoSMuxTEjJDB/oH1Ptj6LWJEjJCxCUG6kBEzQka0QM61XsgQJWKqh4w7FMSMkMEegXVeyFgjC0ZM5ZBxd0KSmOkeNELGvgBCRsgIGSHz7M6tA3mGuocvD21fhKfvT+7E+fe5aQVrvPV6+YBNytfxUvLBhcrrQJQ/SNdTmRnvSDZ+p9EeAJPX91FrtdMYgRH0tdx2cziJAUNfKjNOZJq903g+OXWBZev7qBOZnafRTmME0+r4N5DB5LVg9x/Ad2QGL4h132201sPmtd2JDJEiscKJjJMYuO2BtaJv4jsyn74/3aMQYBhzIkOkOKxwIiNiQMwImVobtPsRiofMTkKmjuwhI2Ig8fDY+aeV2aDfvPfECzQImd0n0ULGnhchZEQMFIiZzpp/0d+9BkJGyFS40TZ+32hSyEy/QUQMJNv8mL+ZB//yqlMXEDIhQoY6JkXp1JARMWDgFDI/w+X5f8HvJUDIhAgZpzFCZicRA4bQ1iGTJFzcNyBkhEz1GyzAXpTpOzIiBpLHjC/3H9vMnboAlUKm2OCLkBEx0CVm+FzIiBcgoltDxhf9iwwGQfanDCEjYiDG4MqCjSFovPjIGFizhQzhRH89RQxQ0vNmniBeACEjZOgQMkN/MREDlPTw5SFivDh1ASFTPmS48cYKtndFDRkRA8U3w47xEvBLssIFrN1LQ6bQ0IvX1OAE0deIW/7jx2+P7eNFnAIZ1+9Za/vXv77uXQDPlsCKMTjodb35F3ESA6SPl2AB4yNj0E/IExnfj6Hy6ypiAPEyNl4AISNkhMztN1Ttk6ybbwwRA6QMGPECCBkhQ9/X1MYLwdaFo/9hh+/EBIwXgKFr+cy13ndkBEPA1/TwL+AkBgz4XLfYOnkBpg1m1noElogBRNroeAFIGzI+Vpb0RvLdGBEDIF4AISNkhEz+11TEAIgXIGnIHIkZIYMHC5iyvt/yH1f8gv/Cj5JZE4Gw6/votd8X/RPeQDW/5H/oP3QSA+DkBVi31kyR8Qv/TmSE3y1EDBDexNMl8QK0DZndHysTMjzfBiIGQLwAQkbIVL55gp7GrH4dRQw02twQL4CQETJCpgIRA8VU/YfQKv7AAsAsKmSEjJARMQAf7pEuASBkhAwiBgCAwCGT7YReyFxx4zQ+jRExQBo+UgYImeMx8xkRTmOEjJARMdB0M6v6vZhRe6NLAAgZISNkRAzAMk5jACEjZBAyIgYAQMgIGSEjYgCCsyMCGUJm+xf+hYyQETHAkQ3spg2qKh8pA+wF42JGyAgZEQOQh90QEDJCRsiIGIB1nMYAQkbIECdkVkeTiAEAEDJCRsikuq9FDBTesPx7MR/vgy4BIGR+3zc+2juETM6QqfbxMhEDpOUjZYCQmRczQqZmzGT6dUUMAICQKRkyxA8OEQMwnrfxgMwhs/V7MhFCxmnMsZDJHjNnLyPUH7Srf+xqwHd/rIVA633i1r3k619fQwzmrI/AG6/74f/YSQwAQH5bP17mRCbxjXNDhOwMRxEDACBkbg6ZCITM8RjJdpLl3A1y8HGy+Rur9RCwZ9y4t0T4WNmvgznzYnDA9b3pF3ASAzn492IAWLJn3LK3RPqJZU5l5gVghEAUMQAANUNmy8fLhEydkJkYK+ftvwCwbi2+5T/2kTJrImD/mOnlPuOjZcVuop9BOOha3vyLOIkBAKhty8fLnMgUu4nGncwM+UVEDDTZhHwvBsAeImSoQsQAAPQJmSXfk/k1ZoQMM2JaxABlDPjej90NMEgOjBkhwywiBhrxkTIAhIyQqXDPiRiw6QBgT5kaMs8xI2TcayIG4A0dfpQ0QLaQeY6ZiCEjZnLeYyIG4MWe5hIADYfMpR8vixQyzzFDrkgWMdBsQfC9GABWD5wv96GHLw9CBhEDAECekHmOGSHjXhIxAD/5XgzAzcPnslOZQf8KvJBpFsMiBhrykbKP9zCXAGDdqYyQcd+IGLBAAEDKkIkUM0Lm0L2y7AUUMQAAhBlOhYzYDfkbAuPW1lt/gerfHbnxY3PWR4AJe0/GiIj2cbfuAXM6OYkBiwYABN17osSDfxTz3Xth2wskYgDe2bNcAoD9w2uk78oImT0xK2KA3/gpZQBkGWSFTJh4DfFCiBiwgQBAmpCJEDPNQiZMuIgYoAX/6CVAzSFXyCx7TcO+WSpioDkfKQNg4OC7NGR2x0zAkDkSH+c3/hfevecNAIDBIbNsuj+fz1tj4vn3DvhjmEt/5NxJDNTZMJiwN7kEAPH3Jqcy/fYtEQP4SBkA6UPmOWaEjIgBAIBbQ6bVqYyQETHAdZsEb/ATygB67lO7Q0bMiBhgAR8pA2BByLT6UcxCRsQAAFAnZtoQMiIGsCls2X9cAoApe9aSfcs/jCligOJ8pAyADTHTgu/JiBiAq/hyP0D4kGkVM7N/CxEDZNwIAMAe1jtkRAzQi4+UAbA5ZFrEjJARMQAA1IsZIYOIAQs/AKTbz8rvab7wL2KAQXykDIBgMVOekBExgNMYAEgXB0JGxAAM3VdcAgBWhcyAmCm/b4kY4E0+UgYAiBhgNR8pA4CkfLRMxAAHVTqNefz26AUFSDrPuwSIGAAAetSP0wwRA6TkI2UAgIgBevEFfwBAxACrOY0BAEQM0IvTGABAxAAAwMd8Mx8RA435SBkAverHTyYTMQA+UgYAiBgAAAARA/yBj5QBACIG6MVHygBYyJdaEDHA6XRyGgNAh/rxpX4RA/CrxqcxdkQAEDEAAAAiBviYj5QBACIG6MUX/AGYzEd4ETEAADSpH1/qFzFAzfXdJQAARAwgYAAAFrl3CUC8AABk4iQGBMzVHr89uqoApNm3qMdJDNgEAMDeRSpOYsAmAAAl9i4/mawPJzFgE7iKj5IBkGnfQsQAzTeB5gFzdosBCBhEDCBgALBvgYgBG4F4AaDfvuX7MCIGEC8CBoB0+xZ9+OlkYCMQMAAIGFJxEgM2AQEDQOp9y0fJRAwgXgBAwCBigNgbQIeAefjy4G4CKLZ3CRgRAzTdADoEDAD19i4BI2KAphuAgAFAvMR0Pvs3lkUM2ATECwCp961OAYOIAZuAgBnB22EA4sW+JWLABrDrNxYwAGTauwQMIgYabwLiBYBM+5aAQcRA801AwACQae8SL4gYaEy8ACBgEDFAio1AvACQLWDECyIGGhMwrz18eXARAKLWknhBxIB4AYBbu0LAIGKA6Su0gAEg1cYoXv7ofPbPk4kYKEy8ACBeeNlAIgYYtZgMXbXFi80AQMDQmYiBRMQLAAsMffNNvDDDnUsAVOYnkwHsI2AQMZDbkI8kGcgBSLX5+YK6ayZiAABYNUu7BIgYYNiG4DTGJg6QaiF1soCIAYQMAKv6Q8ggYoChG4KQcY0AMu1beL1EDFhgACDX5uc0BhEDnE5OGgBY0x9CRuiJGGDohiBk4r9GAICIAQBgLacxjV4jEQMsWWycxgAgZBAxgJBJzvUACL4BChlEDGBwB2BFe7gEok7EADYErwmAwR1EDPQemp3GAJBlzxIyMeedh9YAAADeSURBVF8TEQNs0T1khByAkEHEAAk3BABItQk2DhkRJ2JAyPzkNAKALHsWuPkgv4tLYF0EsG9h33qfkxiwGAGAfQsRA9gQAABEDAgZALBngYgBAEDIIGIAG4LrDQD2LREDFigAsGeBiAGbAgDYsxAxgE0BAOxZiBgAGy6AdRXXV8SABQsA7FuIGMCGAABgGALedXEJrIUA9iz7lgsA2BSsgwDYs+xbLgJgU7AGAmDPsm+5EIDNwboHYL+yfwEAAAAAAAAAAAAAAAAAAAAAAAAAAAAAAAAAAAAAAAAAifwPYtLTpLxbG+UAAAAASUVORK5CYII=;" parent="1" vertex="1">
                    <mxGeometry x="680.26" y="614" width="59.49" height="45" as="geometry"/>
                </mxCell>
                <mxCell id="MaK_5bkYck6iDH0XIZCn-1" value="" style="shape=image;verticalLabelPosition=bottom;labelBackgroundColor=#ffffff;verticalAlign=top;aspect=fixed;imageAspect=0;image=data:image/svg+xml,PHN2ZyB4bWxucz0iaHR0cDovL3d3dy53My5vcmcvMjAwMC9zdmciIHhtbG5zOnhsaW5rPSJodHRwOi8vd3d3LnczLm9yZy8xOTk5L3hsaW5rIiB2aWV3Qm94PSIwIDAgNjYgNDQiIGZpbGw9IiNmZmYiIGZpbGwtcnVsZT0iZXZlbm9kZCIgc3Ryb2tlPSIjMDAwIiBzdHJva2UtbGluZWNhcD0icm91bmQiIHN0cm9rZS1saW5lam9pbj0icm91bmQiPjx1c2UgeGxpbms6aHJlZj0iI0EiIHg9Ii41IiB5PSIuNSIvPjxzeW1ib2wgaWQ9IkEiIG92ZXJmbG93PSJ2aXNpYmxlIj48cGF0aCBkPSJNMjMuODYyIDEyLjYzOFY4LjgyMmwxLjEzLS4wNDdjMTAuNDYtLjMzIDE3LjMxMyA4Ljk5OCAxNy4zMTMgOC45OThzLTcuMzk2IDEwLjI3LTE1LjMzNSAxMC4yN2E5LjczIDkuNzMgMCAwIDEtMy4wODYtLjQ5NXYtMTEuNmM0LjA3NS40OTUgNC45IDIuMjg1IDcuMzI2IDYuMzZsNS40NC00LjU3cy0zLjk4LTUuMjA2LTEwLjY3LTUuMjA2Yy0uNzA3LS4wMjQtMS40MTMuMDI0LTIuMTIuMDk0TTIzLjg2IDB2NS43bDEuMTMtLjA3YzE0LjUzNC0uNDk1IDI0LjAyNiAxMS45MiAyNC4wMjYgMTEuOTJzLTEwLjg4IDEzLjI0LTIyLjIgMTMuMjRjLTEgMC0xLjk1NS0uMDk0LTIuOTItLjI2djMuNTMzYy44LjA5NCAxLjYyNS4xNjUgMi40MjYuMTY1IDEwLjU1MyAwIDE4LjE4NS01LjM5NCAyNS41OC0xMS43NTQgMS4yMjUgMSA2LjI0MiAzLjM2OCA3LjI4IDQuNDA1LTcuMDIgNS45LTIzLjQgMTAuNjIzLTMyLjY3IDEwLjYyM2EyMy4yNCAyMy4yNCAwIDAgMS0yLjU5MS0uMTQxdjQuOTdINjRWLjAwMXptMCAyNy41MzZ2My4wMTVDMTQuMSAyOC44MjIgMTEuNCAxOC42NzggMTEuNCAxOC42NzhzNC42ODgtNS4xODIgMTIuNDYtNi4wM3YzLjI5OGgtLjAyNGMtNC4wNzUtLjQ5NS03LjI4IDMuMzItNy4yOCAzLjMyczEuODE0IDYuNDMgNy4zMDIgOC4zbS0xNy4zLTkuM3M1Ljc3LTguNTI3IDE3LjMzNy05LjQyMnYtMy4xQzExLjA3IDYuNzUgMCAxNy41ODYgMCAxNy41ODZzNi4yNjYgMTguMTM4IDIzLjg2MiAxOS43ODd2LTMuMjk4QzEwLjk1NCAzMi40NzMgNi41NSAxOC4yNDUgNi41NSAxOC4yNDV6IiBzdHJva2U9Im5vbmUiIGZpbGw9IiM3NmI5MDAiIGZpbGwtcnVsZT0ibm9uemVybyIvPjwvc3ltYm9sPjwvc3ZnPg==;" parent="1" vertex="1">
                    <mxGeometry x="748" y="619" width="52.5" height="35" as="geometry"/>
                </mxCell>
                <mxCell id="Xc9OFvZ67c28g_YzAC6t-16" style="edgeStyle=orthogonalEdgeStyle;rounded=0;orthogonalLoop=1;jettySize=auto;html=1;exitX=1;exitY=0.25;exitDx=0;exitDy=0;entryX=0.25;entryY=0;entryDx=0;entryDy=0;labelBackgroundColor=none;fontFamily=Courier New;fontSize=22;strokeWidth=2;fillColor=#60a917;strokeColor=#2D7600;" parent="1" source="xN60sLdvEwKI37UPjvCN-1" target="xN60sLdvEwKI37UPjvCN-119" edge="1">
                    <mxGeometry relative="1" as="geometry">
                        <Array as="points">
                            <mxPoint x="556" y="395"/>
                            <mxPoint x="556" y="512"/>
                            <mxPoint x="660" y="512"/>
                        </Array>
                    </mxGeometry>
                </mxCell>
                <mxCell id="2" value="" style="shape=image;verticalLabelPosition=bottom;labelBackgroundColor=#ffffff;verticalAlign=top;aspect=fixed;imageAspect=0;image=data:image/png,iVBORw0KGgoAAAANSUhEUgAAAu8AAAF8CAYAAAB/mVUhAAAACXBIWXMAAAsSAAALEgHS3X78AAAgAElEQVR4nOydB5wb1bX/rxb+tlOwxHtp4CKZOIBxkUwNVTJJCAmEXToBwq6BwIM4eA1JgEDe7gJJIMnD2sQplGAtCb1YC5gOlnABm2LJBtMMllwoaUg2CQsu8//c8bnruzN3RlOlmdH5YrHSjMrUc3/33HPODUmSRBDE6wzMiSYIIRHYzBS3uSnFpicd3JUqIaTAva4oXufgb2nEjHJJ9WkEQRBkCL9N98YkSYpt1x5Siv7d/lRKSESK0OfS9v/R12FuPZH/27EeXivXa77OK17nJHgPkQh7Xvn1//1fAc8Y4nVQvCOegBPnTIyzv06KcbfhxX6OE/so7hEEaQr+9Ic/MnGeILIYpwKd7rmUkCQqxgkIaFlBC8R2LXFuWbyrX+8Q74PPh4j97ctysJ4K/ErvnN+huEcaDop3pK6ASKePGAh0+jfaJGehSIU8CHom6rEhQBDEd9x8000JIot0QkU59ZLHiCTFNcU591y43nviXb1+x+uyJEklWdATqUQkUvj9n/6IthypGyjeEdcYmBNNgVBnjzgebSF5XtSPmFHOid6EIAjSCDK3zKXiPCGHsmwX68ntIpYT48rXwRbvWq+LEpEKRJIKkkQKN9x8E9pyxBVQvCOOMDAnyjzpCfiLQt0eeRDzORD0GHaDIIjr/PXWv2wPdSFSCsR6UijOUbzrvB5yXIoQU1+gnvo/Z+aiLUdsg+IdsQQn1tmjWUJfGkUZhLz8QDGPIIgT3HHb7TGFWI9riFAU79bE+9D1klQmhMbPy4I+l/nLrWjLEdOgeEcMMTAnSpNJ21CsewYm5rMg5ivNfkAQBDHGXXfc2QZiPeWYWEfxLj4OavEO+z24vgyeefrI/uX229CWIzVB8Y5oAsmlbfDAMBhvQ5NhMyDkMXEKQZBB7r37nphEpDYQ663aIhPFu+56d8S7cn2RECkrSSR72513oC1HhKB4R4YwMCfaxnnY0bvuT8qcRz7b7AcDQZqR+++7jyaWdhCJtEmSFBWLShTvHhTv/PqyXI+ekOwdd9+FthwZBMU7wgt2+gjjEQkUVVnIh1qyI36wBo0/ggSY/nnzaMx6hyRJNCwmul3kaohrFO9q8ew98Q7bLT+v0rAa+rj7vnvRljc5KN6bFCjj2IGCvUkItdBHlZDQdiF/wRto/BEkADzY/wAt4ygLdkI97AohiuJd57W/xDu/vkrDaiRJytw7734sR9mEoHhvIqBCTCcIdgyJaSa2i3f6BJ6HylTEExLKjDh/FcZVIoiPmP/QQzHZuy5JnUQi0R1CfagoRPFe47V/xTu/vixtj5FP39+fxco1TQKK94DDVYnpxKTTJkYt3vnXxVCoJU1Coezwc4tY6QBBPMrD8+dvj2EnUuugkJP/oXhvYvHOH5cikaQ0FfPZBx9EWx5gULwHFKgU04lhMYiMvngnIbaMtPSRUCgz/JyXcCgWQTzAY488SivFdNLkU0mSwrxYR/EuWt/U4p29ZmE16QfmP4QjqwEExXvAGJgT7UAvO6LCuHhn68okFOompCU7fPpS9OAgSJ15/LHHOqBaTFJLrKN4F61H8a54XZSIlH7w4YczeA8HBxTvAQBi2ZloRy87osa8eGevq9QTT0It6eHtSzCeEkFc5MknnogQiXRCAuqOajEaYh3Fu2g9ineN17RaTZpIUmb+Y4+iLfc5KN59DBca097sxwKpgXXxzr/uJ6QlPfyshRhSgyAO8vRTT9EE1G5Jktr1xDmKdxTv4vWmX/fRBNdHHn8MQ2p8Cop3HwJlHrsJIclmPxaIQZwR7/C6JS/HxZ+Zw2FYBLHBgqefToGnXZiAiuIdxbtL4p29zhNJ6n70ySfQIeMzULz7CIxnRyzjrHjfERdPQt3Dz3gKRTyCmCCfy6XA057UE+Mo3lG8uyze2eu8JJHM4089ibbcJ6B49wEg2ruxNjtiGXfEO/u8nNw6/LuPo+FHEB2eyeepp71bIlJSJL5RvKtEJYr3+oh3ts9l2ql8YsHTaMs9Dop3D4OiHXEMd8X7oCc+RELdw057BA0/gnAsWrjQFU87infRehTvNsQ7+42yREj3U7kFaMs9Cop3DwIx7WkMj0Ecoz7inYQGPfEt3cNOeRANP9LULF60yFVPO4p30XoU7w6Id/abdNKnzqefyWNMvMdA8e4hMBEVcY36ine2rEhIS+ewk7No+JGm4tklS+riaUfxLlqP4t1B8c7W05j47tzCZ9CWewQU7x4A6rRTT3trsx8LxCUaI97Z5/Mk1NI57MT7sCwZEmiee/a5GCHbSz6KxDWKd531mqISxbsHxDtb3y9JUmd+8SKsE99gULw3kIE50Qh42mc27UFA6kNjxTt73UdIS/ewE+5Gw48EimVLl0aoqJEk0rVDkKrFNYp3nfWaohLFu4fEO1vfS2PiFy5ZjLNvN4iWptxrDzAwJ0pLPpZQuCNNBJ1MrPDJvFO78aQjQWHZ0mUdYMu78KQiTQLVLaXDDz6kE094Y0DPe53BZFSkIXjD886/pkmtHcNab8MYSsSXvPD88zSuPS1J1JaLPMxqzzh63nXWa3qE0fPuQc872X5K5edFOuq0eOlzaMvrCIr3OgEhMmnwPiJIffGeeGef75fj4Y+7FUNpEF/w0osvRraLdhbXTjREqlpco3jXWa8pKlG8e1y8s9d9tDLNkmVLMZSmDmDYTB2Aeu0lFO4IoqJVDqV5sB1DaRDP89KLL6EtRxAx9J4oHXzAgR3CtYijoOfdRaCKTAZLPyINx7ued/7zRUJCHcOOvQWr0iCeorB8eUySpIwkUVs+1LOOnneN1+h5F68Pruedf52XCOlY+sLzOKLqEuh5d4mBOVHqSVyDwh1BDEPzQJZ/Mv/c9OaHvx/Bw4Z4gUKhgLYcQcxB75U1B+23P46ougSKd4cZmBNNDMyJFrDyAIJYhlYyKGx+5PwUHkKkUawoFhPFQgFtOYJYp+vAffcrHDB13wQeQ2dB8e4g4G1fjpVkEMQ2UULIgs2P/E9686MXohceqSsrV6xAW44gziCPqO4/dV/0wjsIincHoLHt6G1HEFegXvjc5sdmoOcGcZ2XV76cWLlyJdpyBHGerv0TUwv7xRMxPLb2QfFuE5hsqYAeGgRxDdlzs/nxH6LnBnGNV15+mdryHNpyBHENem8V9p0Sx8mdbLKzr7e+gUDd9gyUukMQxH26Nj8+M0VCoY7/9400VjFAHGHVqlURIklZTEhFkLoQJoTMnjolniKS1LF85QqsC28B9LxbAGZJLaFwR5C6k5STWZ+8uA0PPWKXV1etYrYchTuC1Beqn0qJSZOxMIEFULybBJJSF0DvEUGQ+kPvvXmbn7okjccescprr76aRluOIA2F3nsL4hMnYUikSTBsxiAQJoNDqwjiHWZufurHKRJqaft/R16HYTSIIV5//fUYhMlgbDuCeIOuKRMn0TCathWrXsEwGgOg590AtHY7Dq0iiCeRE6A2L7gMw2iQmrzx+hspLDCAIJ6E6qvS5An7YGUxA6B4rwFUk1mOQ6sI4lm2h9HkfopDr4gmb77xBoY8Ioi3offm8kl7T8BqNDXAsBkNIEyGxkS2i9+BIIjH6NqcuyJBQi0d/y95NQ69IjKrV6+m1WSwMhiC+IfZE/eekCCS1PnK66+hLReAnncBdNIlqPeLwh1B/EWrPKnTM/+LQ68IeWv1Wwmw5SjcEcRfUP2V22fPvXBSJwEo3hVAfDvGRCKIf4nLAn5hN8bBNzFvv/VWCiddQhBfI+c0TfjKnuiMUYDinWNgTrQD49sRJBDIcfBbFvZ04OlsPta8/XYHxrcjSCCQ4+AnfGVPtOUcKN4BqN8+V7UCQRA/M3fLoqszeAabhzVr1mTQliNI4Ji79/ivYFECAMX7duFOjX2XagWCIEGgfcvin2e3LPlFBM9mcCmXSpHSmlIWc5UQJLB07fXl8U3vjCHNLt5pRZmBOdECGnsECTxyIuuWJdeigA8g5XI5gompCNIUtO+5x5cLXxm3R1Pb8qYV71AKEpOZEKR5kJOftjx7HSY/BYi1a9dikQEEaS7kogTNLOCbUrxzM6aisUeQ5iIqe+Cf+zUK+ACwbu06Vgoy2uzHAkGaDKrfSuNj45rSljedeAfhnsMqBAjStIRlAb/0Nym8BPzL+nXr0JYjSHMj2/JmFPBNJd5RuCMIAlAbsGDL0uux/JgP2bB+PZb1RRCENKuAbxrxPjAn2obCHUEQBXO3LEujgPcRGzZs6MBSkAiCcDAB3zQT8zWFeIfJl+ahcEcQRMDcLc/3ooD3Ae+88w4KdwRBRMgT842PjWsKWx548Q7CHY09giB6zN3ywu9QwHuYd1G4IwhSm7nNIOADLd5RuCMIYoK5W16YgwLeg7z77rtoyxEEMUrgBXxgxTsKdwRBLDB3y4t/QAHvId577z205QiCmCXQAj6Q4h2FO4IgNpi75aU/ooD3AO+/9z7acgRBrBJYAR848Q5VZdDYIwhih7lblt+AAr6B/O19FO4IgthmbhCr0ARKvEMd94xqBYIgiHnmbll+Iwr4BvD3v/0NhTuCIE6RCVod+MCId5yACUEQF5i7pXAzzsRaR/7+97/j6CmCIE4SuImcAiHeUbgjCOIi2a3FW5pu+u1G8I9//ANHTxEEcYNACXjfi/eBOdEICncEQVxENvpbV8xFAe8i/9wu3NGWIwjiFkzAR/x+hH0t3lG4IwhSJ0DA9/ne6HuRf/7zn2jLEQSpB4EQ8H73vFNjH1ctRRAEcZ7tAn7lrSjgHeRf//oXCncEQepJHGyOb/GteB+YE82gcEcQpM5Qm5PFg+4oWbTlCILUmfj42Djf5tf4UrwPzIl2E0LaVSsQBEHcJ7n15b9iUqUDfPDBB/Q4Jn2/IwiC+JH28bFx3X7ccN+Jd5g9tUu1AkEQpH60b33ltk483tapfFDpRCcMgiANpsuPs7D6SrxDSUis/4sgiBeYvfWVOwI3c189qFQq9LjNDv6eIgjiA+b6rYSkb8T7wJxozO8JBgiCBI7M1lV3YQlJE1SrVazljiCI16AVaGJ+OSu+EO9QEjKL1QgQBPEYYXkSp1fvxgo0Bti4cSPacgRBvIhsy/1SQtIvnvc0ViNAEMSjRLECjWGycLwQBEG8Rhz0pufxvHgfmBPFpCYEQbxOcutr9/rC6DeKTRs3prGyDIIgHodWoPF8MQJPi3dIUMWkJgRB/MDMra/dhwmsAjZt2kSPy0z1GgRBEM8x2+sJrJ4V7xDnjgmqCIL4iczW1+dhAivHhx9+iAmqCIL4jZyX49+97HnHpCYEQfxGWBbwb2QxgZUQ8u9//zsCwh1tOYIgfiLs5VwmT4p3mEEVYyMRBPEjvkl6qgNYbABBEL+S9OoMrJ4T7wNzoimcQRVBEJ/TvvWNB5o6/v0///5PGxYbQBDE59AZWFNe2wVPiXeunjuCIIjfyWx98yHfTPrhJP/5z39iGOeOIEhA8Fz9d6953jE2EkGQoODpmEm3+Oijj3AiJgRBgkTYa86InVVLGgTUc2/1yvYgvqJICKkQQkrwIPC6YHEnYvBQPsc8DMQs8a2r53fvNP4YT8ZNukQ3xrkjFmG2nLffdmw5rXTEPKbMlkfw+kQs0Errv68urfFEPpMnxPvAnGgMDD6CaFEGYZ7jRHphxIxyReP9bl6vKWgAEvCIYWOA6NC19a1Hcjt9+VuBL307MDCA9dyRWlRBjOc4YV64+Mc/csOWa95zl//k0ghnv+kjBX9xBmBEi+7xsXHZ1aU1JY31dcMrnnccYkV4ysygg/FtiEjXYsSMMmsQhoREgKhngj6FjQDCkd369qOxnfY42jPXsdN8PDCAce6Ikiqz4ezvRZ0zPXEP/PJX11VE4v5HF18c4Ww4s+doyxHChUI2fC6Phot3KAuJXsvmpgxGVH6MmFFueK/WCiDqBxsDSMBOcQ+8zpsXFjMZ5Ao0mLOEVHlbfuGMGVbDXRrGb66/vsLtg8ysi2bGFLYcxXzzEqflI1eX1jQ0WiQkSZJqYb0YmBOlvZflDdsApJHkoQdLxbrvDLwVIDwsBQIuVVehE2rZ/iAheB4a8jrElhFuneZr9efZ69Dga73Phwxsj/L7RZ93anu0P2/s+KjfL1wXolvTMqtlj6MCVwP+448/7iaS1EVbE9qmyO2K/E/iXtNXxtYTiS3f8R5D6+G1cr326+2/aWY94bZZvUy9Xr2f7r0ePAbydnPr4bVyvUOvi5IkZSUiZc//n/9pClt+0Q9mJCRJSkmS1CYRKTl4jDWPKxl6TRDj65X3jXi9M6+V132t9fV8TRTHgF/WIKauLq1p2PXeaPFeQG9kU9EPgj3rpTCYRjEwJ9oGQr7NdSGP4t0r4p3+ndoy7huBETmffPIJFTELzIhzFO/uvK6jeO+XiJQjkpQ997zzfDlS6hQ/uOCCCJFImyzkJalVfNy0xTeKd2OviffEe3F1aU3DwmcaJt4hXAYnYwo+eRhOR8GuAyfk3ZnUBsW7l8R7kYRaUi2xr/n+fti8eXNEkqSCJElRFO/i9er99K14LxJJykgSyZx97jloywVccN75EYlIbUSSOiSJJFG8B1q8U3oaFT7TEPEO4QNrVCuQoFAGwZ7xa/x6o4A4eSriOx0dlULx7iXxTl/3tcS+1qE6Tz5j8+bNWdnbKBAZapGJ4t2H4r1KxbokSemOs6ejLTfB+ed+PyZREU+kDiKRqJb4RvHua/FOGdeI6jONSljFigTBhHrZ0yNmlHGWXIvA6ITc8YGckM66hNUg9aZ9W+npbEvsSL/fK+iBDSbyiOlZHR3YVlvkhptvKkEJ7O7vn30Oc8jgXCHBIwM5bHWl7p73gTlR6m2aq1qB+JUqxLF3o5fdHcAbTw1/h+UqB+h595rnnb63SkItiZZoyrf3DYTN5CRJiqPnXbxevZ+e9rz3SRJJn3nW95oi8bTenNMxnXrjuwmh8fEkjJ73QHjeKdNXl9bUtaNbV/EOIqSEXsRAQEV7Gjzt6H2rE9D57TYt4lG8e1G807/Flmiq4TWD7fDJJ5/QyhvLUbyL16v303PivUrDYiQiZc4480x0wNSBs9vbI5JEOiVJ6pSIFEbx7nvxTvVQbHVpTd20UItqibukUbj7HnqR9tALdcSMcjcK9/oyYkaZ5hHQnJHpkFuA+Jv4trXP+Hp26WHDhlEv7SzVCsTrDNry0888oxuFe/24pa+vMvfWvm6Y0bUHzgXiX8Kgb+tG3TzvMPvkAtUKxC+gp92DGPbEo+fdq553tm5ay5jDVbM9+omPBwayEiGtIo+wyIOot17Ts46ed93XBj3vzNOePu2730Vb7gHaz/xeRPbCb3+E1Z519LwTb3veGdNWl9bUxY7XU7xjTXf/0oOi3duAiNce2ULx7nXxTuPfYy2jD/XtPfbxwEBEIkQuGykWmSjePSDeeyWJdJ9y2qloyz3I904/QxbxhEhdKN59Kd7rVvu9LmEzA3Oizpa9Q+oFnVRpHIbHeB8aTsMNwSL+I+z3KlzDR4yoQFI14j1kW37yqad2onD3Ln+5/bbKX++4nY6kjoNzhviL+PjYuM56bLHrnndMUvUlRVrdZMSMsq+H8ZsVmEeBeuFbBw8Bet697nlny2a1jD6krrGTTvPRRx91S5LUpfYQo+e9AZ73MpFIx4knn4S23IecfuppKSKHOJE4et594Xkn9UperYfnvRuFu2+QE5hGzCgnULj7F1qyc8SMMq0rfDwmtfqO2ds2POfr6jOf+tSnuqFOONI4ZFt+4kknxVC4+5fb77ozd/vddyUwqdVXhEH3uoqr4h08gDNVKxAvQhtbKtp9XfkC2QFMlkUNfy8eFl+R2fbO0ojP96EDxUbDkG35CSeeiLY8INxx913dYMuxU+wPZo6PjYu5uaVue959PfzbJNAGdtaIGeUUTrIUPGiuwogZZRqDNw298L4h7nfb+elPf7qE8e91R7blbSccnzr+xBPQlgeMO++5u3TXvfekoCwrdoy9j6s23DXxDqUhW1UrEC/BvO3YyQo4I34gl69CL7x/aN/2zvNtft6BT3/m01m83uqGbMtbjz8ebXnAufu+e9PohfcFreNj41JubaibnnccsvM26G1vMkZc+FZlxIWrOyEWHj033iez7d0XXR16rQPdkACPuMes41pbU61tbWjLm4S777uvdM/996VwcjTP45oOdkW8g9c9qVqBeAHakE5Fb3vzMuKCN7JQVhI9N96GJj5l/bwDn/nMZyoY/+4asi3/TutxaMublHvn3U/P/VTsIHuWpFved7c872hMvEkfIYR62wvNfiCanRH/83plxPmvprAuvOeJb3vvJV/b089+9rMFHIl1HNmWf+e449CWNzn3ZufRayAF1wTiPVyx347XeYeZHueqViCNZhZ62xERAzdOSoVCLVkSCoXFdcx1apdjnXfh+4XrjNV51/r8tJYvJnxd8m/Txo1ZiZBWUX1yrPNu6vX0bx97jK8n9ELc4fjjWjuJJM3WquOOdd4bxvTVpTWO3rNueN7Rw+Itqhgmg+gx4ryXWTIrDr16l+y2vxWDUD4SKx5ZR7blKNwRLeY90M/CaDBMzVs4rosdFe/gdY+qViCNogjVZHBoFdFl+PdXlGDoFafk9ia+j3/fZeTICpaPtAy15bFvH3MM2nJEl3kPPlBAZ4zniI6PjXPU9jnteUevu3foh/h2rECAGGL4ucXK8HOXt2HspGdJbvvbyk4/78DIkSNzmGdhGjm+/Vvf/rar060jwSH74IPojPEejupjx2LeMdbdU/SNmFFGDxdimY9v2b+DhEJzMebdMzHv/O9Pbfn8JF97YCuVSo5IJIkx7zVf937z6KN93WFDGstx3z4mIxGpXRTjjjHvdcex2HcnPe9oYLzBLBTuiF2Gn/0CNTDT8UB6kuy2f6wKQvw7xuXqMx2FO2KXBx6e34H14D2DY9rMEfEOdd3jqhVIvZmOiamIUwyf/jwV8NNQZHmOqN/L8UYikRLGv+sy/ahvfhMTUxFHePDhh9PojPEEjtV9d8rzjrHujYcKdzT2iKMMn740B7GTKOC9Rbv0j1d9LX4ju0ZoAm6vakVzQ++z479x1FFoyxFHeeiRh3E01Rs4opdti/eBOdEEzqbacFC4I64xvOO5Agp4T5KW/vl6zOf70I1VMQah91fq60d9w9dVhRDvMv/RR1DANx7qfU/Y3QonPO8Yk9dYULgjrjO8fQkKeO/h+/KRu+66awXj32W2C/dvfANLQSKuMv+xR1HANx7butmWeB+YE6Ven3bVCqReoHBH6sbwsxajgPcecelfb/o6/v2//uu/Ck0eeikL9699/eso3JG68PBjj6GAbyzt42PjbI2a2vW8Y8JR40DhjtSd4WctRAHvPWZKH6x2JAmqUfz3f/93uolrUrcd+bWvoXBH6sojj6OAbzC29LNd8Y4hM40BhTvSMIZ/L1/Ae99zZKXK20EoH1lWLQ0206d97chck+0z4hEefeJxFPCNw1Ybalm8w6RMYdUKxG1moXBHGs3wM3No9L2F7+Pf//tzn6s02Wju9GlHHom2HGkojz75RAbrwDeE8PjYOMv2zo7nHT1v9acP67gjXmH4GU9ncKp7T5GUKmt8bZc/97nP5ZrkmupJTZuGwh3xBI89+STVFX14NuqOZXttSbxDeUiclKm+9OPMqYjXGH7GU91o9D3FbKlatl2GrJF8/vOfp9dUPjBnRE1fMpXCuVEQT/H4U092NHHeSaOIWy0badXzjl73+lLE5GDEqww//YkOrNXtKbLSxrVBiH8PYlJ08YhUEm054lXQltcfS3ratHgfmBOljUKbagXiFrQBaxsxo1zBI4x4mFQTJht6lSidwMnPO/D5L3yhFECHRRnuEwTxJI8//VQF9B1WE6sfbeNj40w7W6x43tswUbWupEbMKJeaaH8RHzL8u4+j0fcW7dLG9b4Wv1/44hdpAm6vaoU/kZ0wRyST6IRBPM0TC54uYSezroStOMStiHcMmakftLIM1v9FfMHw0x7FEpLeIi1tesfX8e8weVMQhvE7Dz/iCLTliC94MreggBVo6orpdtOUeIcZVTFRtT5gZRnEdww77ZFMgLylfod6dHxd0eSLX/piJQDx772HHX44VpZBfMVTuQVYgaZ+xM3OuGrW845etfpQxGON+JVhp87vxKQnzxCXPnzX106AL33pS34e0SkeevhhaMsRv4K2vH6YshNmxTsmqtaHDkxQRXxOUKuF+JGZ0r/f97Xt3m233TI+LGNXxTYT8TNP53PNNnFaIzFlKwyL94E50RRUMUDcBePcEd8z7JQHMf7dW2Sk//wtCOUj/VTRqPPQww7DYgOIr3n6mTzGv9eH6PjYOMOJwmY879j7cp88xrkjQWHYyQ/40VsaVGj8e9bP+7bb7rtXfOTJ7jvk0EMxzh0JBAueeSYd8InTvIJhnW1GvOPwn7tUsYOEBBC/eUuDTFL6zz98PbPn7rvvTr2APaoV3gJzlpAggqGQ7mNYZxsS7wNzoljb3X26sZ47EjSGnZz1k7e0GeiSPvqnr8tHjho1qtvDXkDZCXPwIYdgzhISKHILnylB6VbEPcLjY+MMtZdGPe/Y+LoLhssggWXYSfP84C1tJrLSwAd+j3/36oRg3V89+GDMWUICSW7RQgyfcR8U7z4Bw2WQwDPsxPu87C1tNqJ+r/8+avRoL1bB6P/qwV9FJwwSdDB8xl2cEe8YMuM6aQyXQZoEr3pLm5FWaaDia6fB6DFjsh6aEKyMThikGcgvXkT1CnZS3cNQ6IwRzzt63d2jOGJGGWPIkKZg2An3Yvy7t0iTjzf6Ov59zNgxXplEpuOgr34V49yRpuCZJYu7cfImV3FEvBuuO4mYBisSIE3FsBPuznnIW9rshP0ePgM0ehi/58CDDsqpliJIsEH94h41dbeueB+YE03gxEyu0T9iRhkNPtJ0DDv+Lh2ALBoAACAASURBVJxy2zvEyScf+noIfOzYsY2cECx/4EEH4ugp0nQsXLI4h/N4uAadsEl3VFRXvOMQt6tgrxVpZjD+3TvMJJv/7WtbH41GGzEhGBYbQJod1DHuoWuTUbw3hh5MUkWamWFtd5TQ8HuKDNnykd/LR9Z7QrCOAw48EO040rQsfHZJCcsAu4au/tYU7wNzohF5SBVxmipmaiMIIcNab6Pe0j48FJ6Axr9n/bwD0VisngnRvfsfcICvjxeCOEQaR1FdIT4+Nk7ToaIp3tHr7hq0NCRWJUCQ7XTW2VuKaJMkWwZ8Hb8dGxerx4RgRZxpEkG2s+i5ZyvokHQNTR2uJ96xyozzoNcdQTiGtf4Vy0d6iy6y9RPdRCmvM27cODcnBJPj3Pfbf390wCDIDtD77g6aOhzFe31BrzuCKBh23K3UWzpLtQJpFFmybbPmcK1PcCshunvf/fYrqJYiSBOzeOlz6H13B00dLhTvA3OiMSwR6TjodUcQDYZ9py/torcUMUfU7/Xfx+2xR8WFSjD9++63L9pwBBGD3nfnoSUjY6JvFYp3PbWPWMaQ1z0UCnUoXneHQqEY9zobCoUkeB4LhUK5UCiUUrzfkWHvUCgUCYVCFfp7Lj8wfhQhWD7SU7SSbVt9XQZxjy9/OevghGBlLAuJINosQe+7Wwj1OIr3+mDK6w4CnD7o0HVakiS+HBkVurNgXUWSpJQkSbKAD4VCnfB+p4Z1u6EKhdsEYZZHxCbDjp2L8e/eIk0kydfx718e/2WnJgTrmLrvvhjyiCD6oPfdeYR6fGfVku0I34xYJmsi1r1Drvqw3dMjzxxIveuSJDEPPG1M6d8PCCHTwevexols3vPeCe/PSJJkSiDD985UrRBThO3OWgi36lV0ToxuH90vT8Tl0s6TaqFJgrY/Vhl27C25T+af22vi2kPcIwwda18LeLBNORuOiJ7E1Kk4G7aPCIo9hTZfGDYhoOKg484SS5YtrRx8wIFUB7Q3cjsChlCPhyRJGrIA4t3XqN6J2GGc0UmZqFAH8U4gBpg974VGyEgDVAThz26gsiRJRg0A246CgTr/VW57yhaEO/18TJIkVceGhQYJmM51cLxCnyRJukPqQdsft9n88PcLJNQSJyRESKgFHqHtg4WhkOI1t4yEhrwO2fw8ex2y8nnluhDdGtF7RcvEn++98XaSmLQ3SR52ECmve4fExo4h2UeeJsWXXyXRsWNIx+knkcrGD0nm9ntJtbqJJA8/lCTik0gkEiG5Rc+S/DNLSPKIw0gqebj8WyFjv9/r9wm1Vr/5ZockSXNpcycR+j+JiqrtD0K416r1+XgiIWw8kcYRwPYhA212BO41Kx3NWdDZzshhbzuownczKorX9HlO1A5b4eADDqRt+pqh95XyPjP/evtLaciDLWsCxq0urRmiIUWedzRUzpK3MZsqb4DMeCLjCuFtSlRD3L2RCbpKYGyiFhOcO3UMhrIz0A8GqeIxw0ygk6RrnAO4P46i9DB9Y99R115yUuLmnVpaPsPEZPzLnyeRz36qnptVV448eQa5ZfaVJDZm1ODP9t31ICmtf5fMPO9MEomMJKW1G0gkPFK+YPruyJLWY75O+m6/n1Q2biSELJPFO11fXLmK5BY+R3KLnpNfd13xY1Iovkx6fvFrkly4GMS7YWZCaJ5vJyUa/5WvZN584402haipRVXvPoDRyQXwsgz2UA8a0ogTOzlD0Oxpuw1vdR5CXBNwDSqFf1hwTFT3QSgU6ocRqqyV0XDGs88vK311/wPygt9ErJNShheLxLvfh0i9hlsJHFXBTeoURr1sdmbgLdYI5VEOeabhAq7AyEIjZ/9VjTLQhrzG8GjQ9kcXEDYJzsOjOYxNQ8LgmhvsoD7x0gb5YZSxXxxJYl9iXx+S/0W/FCGpqeNIct89SHS3/7JzfOpC18XnkNjo3Uj/o8+Qwqo3Sd/d80l5/bskPnFPWbz3P7KAlNa9Q4qvvE5mXXkdmf3zy0hi0oTtAv6O+0lp7Xoy7djvktjY0aT12G+SrssvIT2/vF7u+PQ/9CiJRseQl55dQCIRS2Yjs23btlhLS4tWZ3sIMILI6DYwqVGbTkfeKTrgejTqaOiIJxJGREwZQgZrOVhy9Z7FNhQKpSGsUil0006Gx4HDh+WrFKAj3gb2jT+GLKmxwnmJS/DeGPeezhoCMjD2lC9IYeF3WKcgY+C6ZrNZa3USWuExOxQK2R19TaN4dxSVLheJd/S8O0d5xIyyVWPNkj60Wtq0PKGKNpZ6vpD0Wg/DV6uDEFZ0UFLQKCS4540qZ5oRHPsENM5aBG1/hEAidQIes0XvEdAtMk5mWPv+RvkxlDL5y6PbcxWpkE9O3UMW8sclJ5LILp+x83OukHt2udzxyD6WJ7fe8/DgT0RG7kJ6b7qN9N35gCzmwyM/S6obPyRn//AK2fte2biJFF9+TX5ved0Gkl+8lPTdcZ/mJiYPP4TMu+c2EgkL+1JahEF4Gm0fmO3pV7zWwtL1Zoav7Lln5Y3XZe/7cgMf650Sjxu13RnISUrVsJ2NisEugahl28ZEWkj1TgvAiAzvyWXPy3BvpxXtGP9eLRuRoR0C6NiLCJI9NSve2XHNwW8ZbedTOsekF7aRfVc7LZpRowOlyXMvPJ89aP8DVJ0YxDIquyuqNqNnfBBz6HmWtWDep1o3TarGtPJWe71axtJJ+rS8EBxF0QWr8NB4iVoNc9D2R4sEXPc5RZUPzZJ9XHlUVZWCllBoneoDFii/VyG3PvISOefn95LPH9VDzrn6LlJ+9wMnvto2+ed2hJ/GJ35FFus8+WdfJFf95gZZuMsHaeOHJDpmd9J+WhvJL3l+ULgbJb9wCcn85XYrm53ctm2bUfsweO4bmQCtZM+99qQHu0e1YihFk3aQdTxrif02qCKWAY94TWjiJZQDpp/tgM8m4LlsT6Ckb5uiZDB9D4097oSKZAlJkqhY35XdZ/z7baJlK6hwm6vjgNKjUyCAeQJjT03eH7M458gak+28lpAuQwerU2GDWSnqgsXy01hFzjlUunyIeB+YExXdDIh1rFy8rCWP1zB6CZ2b0RK0Aajxm05QNRiWE1cYvBQMEabBOLvVozdSVs6KIQva/ugRBfGT4iZe0gspYEJGGTZR3iZJ21TvhjAZO9z68Itk/PG/IF+74A+k/O6/HN5940y/5Fpy5KkzyR4Hn0Lyz75Ejjz5B+S3f75L9fmLvn/60AOz7h1SWPmq6n1GafvOMVY/2rV161Yj1ws7l+yarzUBVycI26xyrgun2Wuvvbp1tkeOc588ZYqZEB69drOP67hGQZDKMdBcOWA9IiDQ5oEQbgeBSo/RAkh07ID1cnsDopyOLqxRzM/RAaFJbD4Fy3HNdaBW1ZRmsqeM6VwYkp49NUoVOrIdcO0sV7T/HXCM4xa1DIp3BxkfGzfEzig97xjv7hxWE1WNngM3RLZeIyQiX8P7L6LbRGwrSwbr4wzzPJ3hRyfge7ha+6ZK9mnS/dGjFfarjQud0IJdy8oGVzMRWh0iY41nlr9FxrddTW59aJkLh0Cf0vr3yK33PSa/p7zhPdkDX1y1WvgZGuseHb3bkGU09t0quWcW2dn07JYtW4yOzOjZs15ODLWCsKV/5xr1TNtAa0Kw7smTJ5sttxeG0BGRUyKhYVfDsL9mPPzsWPH5I+3c70ahM6AlmuT2CDy9MTtJiQqUHls9ZumsY5Rh/2oJ5WaypwSOs9WRDCX93HW0QMOD387tbwxGfQyPaix94fmSTicZMc8QW4ri3T20DGgtjDaKbkyEIGpk9CiZNJQ0XMZMo0wNzDgu+50dm5RDE6/o0afTsJZ1DLceQdufWsTh+siBEa8l4hl1n+TjnKtuJ+f0/FW13E3yzxk/5Q88mhsMm6Ex73bpueY6O98QNWHfwuAdFrUtKR17N9PBsA4Ve+29d0VQAaR/0uRJVjsNWtvKKn+JrunpNKxFtXQovMBmQirCPe/jOrhVoyOyTiUHw2htRnAstdB7H7VBx4OdajNQ7CFI9tTI9qpCJyxAt2sabHutJOsq7Gc/dBjoOUmZTLBF77tzoHivE25XFQhrNAiWAI+NWeNgprxVUcMzpcVUbthuHnjiWIPTJgixcJJZkGmvZaREHuFa3rqg7Y9R6DVFY25TOt/Je2d6dYTQIHbDZkRQ7/utDy0VrHGH7OOLLX0vjXm3S3ntOrve99YtW7boCTG+U691PuOC646ArZjqdqz83hMmZLmQlnINYVmLks71TQTeUvq7JRo6o3onB4hSpZ3n72NeHGkdr7yLxzMB51F3Pzj4NqZPsY7VH6f7nKhRjSxo9rTThHPDKr3cSNByA+19Gq6pbrg/wuD5N9M2YGlU59AV75is6gz9JmZUFeGGF7QWvPFljUU/97ooWG+UMgg4M8cky3lgiGCo2ExH0+z2dsIwuJmp+mvtW9D2xwyt0Lga6bxFYJZAJujzov2lNd/dgHrfi2+sd+W7lTzwhDXxrkV80gSNNWIKK1YKl5sgvXnzZiPXbdZkg9/hsvgaZMI++3SyGaInTppk5zfjGqEHInrA457SEYA8StHNC0N+5EJLKNHtSltMOqwF+04r2kHp+IlDEmamCe1pSpCDwLar14GRhCrXwdRLBOaJwbVXUmxb2ECuhszSF1+o1KFT0iwMuccGxfvAnCh63Z1Dy4gaReSNEuFIzCKUh+SHz5iXqAQxih2cYbTi7bdSwzkKxpEdy6SicTQT92c2RjAKcYtOdmaDtj96iK6RmTrbXeCGyNvBG8nsUVL0uQeXvEXCnxnuigf+a+elSWXTR6rl9eSsk80nlNJZVs1QrYhOkynoecl88skntRrymQaFLd2g46HzVreKIfvss09in4kT61URZyorf0j/GqylzbaNear5kaqK4H0i6PFf7kIysNa5t3JxMZEXNSC+g2ZPuwQhLBVOdJvpKIgIQ1lOPW2h7CDEoIP0geD+7TRxLaH33SHGx8YN3he85x3Fu3PU62J1yniwGMFeyD7vgefMY8ZPAFExaOzy8B2sMbZCFLZNqyFoxAiFHYK2P0MAz94CuD6UQ+IMFkfJ4kJ7uZrFrISfIc/QEfHRjiWuDtnADz8il/zmHtVyp0kepH37th19hGqZFcIjdyHxyfvIn4yOHT3kG0rltU78hFbIhNnOeh6SKGXb6aXykg4z2CmhMf0G44fZsWgHO83HgrN2u6iI+9ZiLpT/y0EFGtG5M4PW9ovaCC27xzCb6Bloewr7x0T3Gm55Xse+WqUq0BNJnfPbpbNOCYp35xCKdy/WRvUjeZshM52QUDLNgPFRhrOYBoa/KvBIwE3JvAALODGmRRWMSQ8kG1HPUghqC3c6MB34bO73nTZYWmjWJNfChNgI2v7w8MKB2ZNexe+HQYTw5SQ/gKSzbohlJYJrrsjfD8P/306v3vzjb26k3nc3uPWh50hl039c+W4jTO+82pHvqdIJnFauIuGRI8m8u/rkGVYZfX+9g1Tse98pMz/++GOlZ9BsexLjR+foaKCNmSe9ShWqdvCivaNWCAI4P9iJqnAdozx3zzE7K3LCKe0M76XWykcwCnPq1LJlboVOBNme6sHfG05UdNFq4zs05kUoGw3FWvbSixWsOuMYg+edF+9Y490Z7IrVNk406w1xkRrDpEbJgphSDjsyRK17D3QudoXrhiUWJeCGZp4dt0Zz2Da5VctXLwPfDYK2P4S7lio6Q74dnLcnCVOIF6BhUF53Q5IbP968ddlN81f88bhDx6u+1CkeWOBuwYqKTuJpdZP2OitUN24k0755PJn1kyvkT7d+59skHB5Jcs8sdOonMh8PDPCCQuucayHbTc5mBNHznoZqW4MlGyF0xoizhw8PYcc5xrXbeu2OXlEB3Y6DHorOld5vEPCqawlEp/GjPd0V2tQq99AioWirjbSzZjo2vNMwBU4VpSOxANdtzmD8u971iRhnUKej59157DY6RjtRVRDN2mPvNYCYNZFgZ570cbA9/I2fBYPPRNlyyEBnHns+VtlpWCPXITAmdigKPEPFOngLgrY/IroUjSi/n6o4Su5vTMPjwyhdefOiS+/Nv/6Jao1D5F98w62vlim++pZqmZtQAU9nV6V0XXkpSUyZ7ETSKiOsqHxiVTjRCiy00kjBwTrkXqErFAqV4PqWBY9RJwfExrP7l7XVUf4egpKcZip6EZuhl7xm6Bd0uOuNn+3pB4pRbmWHjp9TRdkJqtUpKpsMi+bFeCdcV/z9XIQiBAn4bTN5G4g9hJ53t3qpzUR5xIyy3RJ7Rj0h3TZLmxEuVlUZ607gu9eAOOe9KjPhwUQ7g8Uvt4GhmGUj1p2HN5DMAFUc7snHFfGWZVjmxshB0PbHLMzOzOJCZAg0/CzeOau4tqsCYcAat/vSP/z6OjfCZ/oXOFUtU02tGu/R0V9SLXMKGkLDwmVKJUfi3hnJgYEBqzHUtK57AewHFfDpOkzU1AiizH6CkO82aSdFArkKx629hpATXnRGK4cIYNvNHEmi385DOOXxqjXOEBR7ync2wgo91mew7r3I2ZGHc2PmHPPnMS4YVWHbEYHvr6lDnl/+UiEAOQheYPC6kMU7VppxDCd6lyJPiNJgF+HGsTyTG0yAwi6EmYpY9ySsyyuG8no5Y1mE6ZqnQZx7DMqfUcOZMTkZkx6i70m43JNnjZKoMRJhZkgyaPtjlQyED5Sh0Ymxus7g0UlxjUJYsO1yWMZHH2/57mPL3p590Un7O76BNHG1+Po61XInoLOr6lGusd4MNFE1edjBO/aLeuCfWUxSRxxG+v56u1Nx74yujz76yGoIZhwcAvLkbwYmMPIrPdzkSmY6OxUNO2F0kiSt8Byr7T87P1mdEeOkIrzHECZixINiT7u5Ag8hxWdi4JmfrfrUDlgiMysUMR0cJAUIexEdJwLvE4l+ftuZo4XNjstmTmUjY3GDHUD0vjsAqzizM3yV5bg3ZAhuXZwFeLBYu7iGyDeDkUYjCSKJGSk+1i8OxltuEBSTPE1VfZN1KiDweE9EStBYVWsY0z7FsH5MI1SsBI2RlnAQnWMznrOg7Y9V2mDbUnx4BHhflVOQd8K050XRdf/I0rfjT79UHiCEjHB6I2noTHxvZwcld9rjKHLR9BNUy+tJpVolrd85hpCfX0eyDzxEOtrPdPLX9SbX0aPKTSBDJ9453oGEdy/CV1OiuR4Rg3HvBWirlfc53zYI7xGgJAhVIzba/w6N50rM5j+YCUcJij3NwXbTEad5inXsnGmdW34eFa1OErOx/XDMmDc9UqO6F1/jnb9O6IgRHSFjr410mHICLz5iHvk8MPGudcIRc7gl3kVTeRPOAx/VubFVgNddZMRF6DUqot+b5lC4DCPNGeYEi7ejhioUCvH7rGeYKZ0ma83bLaGmRdD2xypzocHUagSrzFtEBVwoFJoOyytcknQnm+X3481bVV/gBG543re+/Tg58rs/Ui0/7qjDyQOPO5ZAOkh57Xr5wdM750+yeI9PmSQnrTos3q32dsKCmVmDmujGi0kznuKUQGzzIrMbOroitHIIEhaPMzvPRgSZVsdBhJn2Iyj2NMMdn7zGscookvwZ2VrbDja0T1Ebn9Tw5hOFsGdhV0wv5uBcJWGZEfGO2Ec+1soZVhHr0Hh3LeNoBpHXQStTn6/AoTUsJsINIccqhDidZMYbqsGkuFAo1GbSGHhldClo+2OUoiDmtl1QraACw7glaDjkhoKG1MAjCyVIC5DE1yMIK3OM0jv/dOV780tXqJZ1nnsKub7rItVyEfGJe8k13O3Q/+B8kpgyheTyzncYbMDbuaCGc/Yr7LWu8FK8Ly5IHkwp3mMWq7aE5Ufx95+oUlTSpMfVjHgPij2NccdNJNwJCG2Rw8zo8WJ5CexcVAWlfBmiUBr+t9koRTeEztY81i8sf6kkuDYQizDxjp53+9Qj1IAhugESNdbLQHkvLeMgoqL3fRxR8F44Jd61fpMd55SJY16t13TrOgRtf8yiFeoV1wizEL1XBcRzxvySDFVY9RYprX9/yLL/7dwxqBYbs5vqMyJav/01kjr0AMEa42QfmE8iEZFPoKHM4u6VoFWbYbTCqBH1hOZNjFSK3qe053p2QW9CIyswwVbgqrHwI2ls4j+zNd6NiG6t/fCrPY1qOOh4RI49YrTjAXkETKizCjQxjdKXypH+PMTHE76dpx5/KHlqtKOE3nf7yHodPe/O4ZR4Z1nZs1RrdiC6ydtqrGeY9rpLkhQxkHQznSUcOoTWPrCOZptBg0sNc4fJIVE3CNr+iLAqtlohlIvA9c8P1dbcTzgWorAyz0HLQyorzdB670/f1UsKr7xJTjj3chLe5bM1NzsS3oUkJk1QLTdDee06UiiuJNl77/DSYZoNw/r0IHVz10XQYB5Qw/eMhkBS2pVa94uonbJ63zKHUYwrnjCP26Y4CEMzhRWqBh1AgbGnJiYj03K6mRk1YO1/hiv7TLgREybulaFvaW60yGwOA4/o+kMswMS71kWBGEdkWK1QgRuHj0Xrg6EpPZSlpVSAkTCbMMKMocjAMG9nv8PCnUfpbWCGI2pwxKjDYyEmQdufQWyOumQgfEYZe2soFheEjZZnyjLJ/fd09PvaTzyKlDYM9bz/9pZ7yfHn/pT0XH+L/HreLdeRs04+RvVZHrvCnWfqgYeS7qt/oVreQJiNiunkRASF9lAoZMahUusaF9npWti1J6J5HMoW70ez4i4I9rRuc+xAJyUPDpI4c3pAtbiITkeOdcrKok4kzFdg5HirPouYRtbr6Hl3Dqd6lMobuQqN2QJumV6IQFUQhsDebyXWXU+8M6PtZm9aebObrbIzT1GPvtEEbX+swtdur8K1xBKg+AbZTCKd43XByy7EvItqvFc3/XtwVtX0zXeR2Vd1kuho/RCapI2wGTq7avuZ3yW5J+aT+JTJJJd/RvWeBhMHm+f3SmhljfhhRo/AXuvhdc8lX5lE1GbUwqy4Q3tq/jjzx0zuHIdCoU6Yd0CZwJpXOAM7iHhugE4d4c+DnneHaMEa745Ak1WdGnZT3hRseJAJnSLtJXPJf1UIWQmBd56dzzw38VIb3GxWyjSFwWOvVUEib6M0nBH0rk8/NuxB2x8lRr1tYTD2VU6gx6FhaWO1is0MZ0NZQa1YWEu4kbCqjHlX8sBjz5A9DjyeREZqh8/YEe6tx36LzP71L0gsOpZ0X/NLkjricJJ/ZpHqfXVAlNzImG5B2HqRaI1SfGZnktUTP3mL+WtWQ5P4c8POI5u4RznRkFHMiveg21Mt+DwCO557Fu8+W+N8FRTnuQIzs5f4cB+jMyK/UFheqeF8RAxAa723YI13R3AysUrL00gN7Diu+gY1WruyyW1gyCoG3nWaRELrvnbDo2Bw+JmJfaVrkA1FKodCp8PvuJFYxrxVEcXNzm+b0WtX7eqsP0HbHy2MXAusoY8rqh+wmQvZdWxliFVP3DSU3rlZOWG1vEFfvMsHaNOHpLjqTdVyntjYUaplRuh/6BFy9nkzSM/PryM911wr13ynNMD7rpekR+1V2sVwPK8wD8SQUfTuiUINMasl8kxrABBubZCbVVbEubNtKHNJjnrw9szo/dss9pTA/g0RvJIktXHLzDoO9a4hJQVuUib22blwvgc7ffR6MJGfEtRE9HoSwbAZZ3Ayjkvrwl4Owp5O4lAIhUIV6BGn4fkCuKnaYertCsShZaFxUIp3kceri4uF42FDaRFF4+Dm9OU5zqvPh/t0w7YXBb/P7xNdP46OSEBHp9EEbX+0MHIvsIZe6Xlls/pGoNEIlHjvu+8JcvE1f1ItNwstE0nkyjT64l1USjI+eSJpP/O0He8JjySl8nYN4LGSkXEoI6olOINC0UwHBRwlIttNwH7oCSiRZ5UI7L0R2qBdmA336SxOTLL7OwrbpLW9BD4zmDRpYqStWewpgX0UdUSYVnDT5hUUnQO+sz03FApJ9EEIWVPj2uPBuHcH2BnLRDqCluC2gp4XRlluT5TFX+Q8mkmd99WiCDeZljGNCYyjk7AY/05BHWM2MYSyQ8IbFnkmvFAoFHehEo4VgrY/WhhtSGjD26bVWAexysjcX11Ciq++LazxbgZaaYZBBXp14ybhp/nl0bGjyexfXUMq1U2k7687qstUqxtJ5w9/QLp/dgWJjfOcTo6DSHTTzjQa6rFsMzmTbE5g0/tB4GmNZOgSCoUSJifX48VkO5wnlvyZ5raj1vbwHQozoq5Z7CnRCbuKaeS4mUVv9lk2gZeo41eGdR1cGKQR0PNun9TObv9Ck+DkxZjmZtErWfCKKN9f1pjdjr9Z+xUl+voVIiwNxrmbJaY4PIuqiCIY4pzg+DLjrGzA2KycXYp1aQ/EzgZtf7QQeYhEMwYm4L1C8W4jFMuTXrQjT7+UVDb9m4RUa8wT5TzuiUl7k/yS52t+RyQcJiecJvYLdJx7PomEIyQWi5LcU4+r1jcY0fXkN3rguhQ5UcIWZjgtaHxXDuy9SGjVwuxxVvb0wpD82Qf7w0Z7tUShCDNtSrPYUz3oee4xaytptZhQKJSH48T0hlbSrtZyAr/fDcduuYlrGMW7A2DYjDM4KWTZzaCspZq3WHqrW2BolbQqevetXAhNF2xPCm7WTJ2mLI+AYQ4LOiRCwQfvFXkpwh7w5AZtf7QQbZeoFG0YPF+yV5V6/uhD9S7zeFK80zj3Fa++XTNZ1Qixsbsbet/9t91MZl5wrvy8uPIV1XqettZjSfr6X6uWu0wPiD29sArR9eQ3lGKRp2xBzIg81GwWbi1bwtAS6WaPs1ab0g7bl7MwKZRov7QIoj01eqzyXLUXSyEoNFcNtEFHDYGupKiYlTWhc7y1wIozDtCCYTP2cbDSDOGmhV+gMEqJGsJES9wXLHpiGKxxYca6IOhYuEG0xv7yGEmKajRB2x8tzNgTeRIXKFG2XHl8QqFQ2r+IXAAAIABJREFUxkzMM+R2eG7KUCKL97+R/73oDBIb/UXVOrNEuFj21GEHaX76hDPOJb1/vFm1XEQkEiGlUt2LQHSB2NM7Z1pi0y8oDyr/ehbU1zbl9RXU2S5DMQMiELJKtNabjZnSe38U2q8OaCuYKNWdadXkaG4Q7anefaDElpOCVYzR6MwoqUJHexzkB2Q5DRDhbL54aE/Bi8WC32YH9yIp9Lzbx+lMdeVNyQxfuMbNLWrkioLvE9ELZSb5x1QoP0lvzAxUlQlBnHK9es6iBkK0zNBkHNTLC0m87FFhCTfwoInAqqo8kEmf5hKArXZ4RdsuWuaX/XEK1rmk3vc22MZOEHaq7dfBkxP65JeulP/SajM05t0uNFTGSWjce8/VvyDp386p63EZNWrUNu6l0utIEyCnBsBLl+bEY1GRwNkmqJdtFL7dicK1b6ctEtkhPYw4hGaCiGdijbVF/SAG+XOuK+w1EG2zaFmQ7Ck7ZhU4hlZDUObW0BOMPjimFSiOISnmX+iEzmdVQ4No4fUKP54HY97t43QvUvl9RnvjcUEDWDHRQ+/kbr4EDCWydXmYBTBrcZjMKsxLxCfUxMBg9XElBo3sY60a9ywuezY0qGk4Jm0CbxWdzr/fwrTaQdsfEaIQGaPMhO3jPTttRkQ5XJ9aXsWGwmZUTR40hTzw5LOObkrcQSGfSh6hWuYmd9x+R8vZ55z90erVqz8F12eFnyQGnARmyih6kdkgVAbvR24bk1BRJ2XhvktD2EMU7MlM1TvMYfi+tVABKKr42yoII7IS/tEM9lSJvJ9wb1jq2BoMT2SVfEoao/dZOGasTHXY5GgAet9tgp53+zidfGGnjJJS6OcMeh1mgjFNwoP/niIYKTnW3aWa7rXgtyfGeQIYdgxBEUYbeFJcAq+WIGy1MXQZtP3hsRt7QcUMX6+65vUGjZGR4d+GUF7/NxId9YVBEW8G0Syr/ARNkfBI1XqrpH/7u7rWej8ieQSZPn36p+Bll0LYzobrIAjENDzCBO5H08mS4O1kn+u26LkegomcE6194THrWbVzroNsT0XYui9A+OvF10+DTkkKvOx6oyysIp1ZzzsmrdqkxaanDHH+IqQG+Xjutd5NVouYjnHRg6+/nQYjFFXU020UMUGHxM45iICB4u+DnMJgKQWpk7N4Bm1/7N4P7XDN1pwtFZJcU16vFJFbukKOeV9hIWSmvP5d+W9YY7bVWrXezSCXjbz4x459nxGuu+46vXfFRWEKPqTWbKNayaxGyZkIe9ET+UbFplKk2U6WEMTxW8WP9lSvc1HmwoymQdx5pwPJ/XpFJ+ho1wc1RiPYMa1AZyBmMmwRxbs9kuh59x7KSSfsJODp3Xx6sJkPq2Co0lZKUtkkLzCKjAxX45bAc6sxdKJGNadI/lW+h50TM56GoO2P25SgUZOFOY2Fp0lW8DcHjddyQWK3o0R2+ZTtr6PCXT7Iu3xGtc4IVLhXN34ov5NN0MSwOsuqFtn779ZY4w4bN27U+l52/dcjOb4e6IlmO51n5vE0eg/o3eNGOwBK4SgSgmbuSS27qEdg7CmI3374zj7I95gGE0jFYDZV5kTLQty5qWT+GvQqVtfSDYPXMg0LAltcwNn66wuKd/vo9ZqtULAoRpz0njLSYJhpXfdGeN1Fw4NJOOYlbn1E470Ms8cmZbAhM+v9EG2jn/dHj+nQEFmlCxrFDqiMMA88QhnBBCy9Og25LZL772X7O5h4r276t2qdEahwTx68n/xOfoImhmgmVat0X3WNY99lE0/mL9hAJHAZdmxr1mRegJYdKJsYwVKKNLt5CVadQiIb6Ut7CgK9GzoGdHs7uaRZpjFYrP2utOqLTWca27apFjRMhh/dgM5HVDDioQfGvNsExbt99IyCFbLQ82YY8RhUDdwMVsR9BxipRiSNiSbZYMyDOH3WiMRrNABmRy+6BN4UuwRtf7TIWYh/1KIIx43VIeaHrvnGs+RW6Exryl5/hlWa0SI+4cskPmG8xtodlNa9Iz9Xet4pickTVMuU/GvD6yQ+eaJquZK+W/9a15KRkyZNIt/61rdUywNITOHhZPa4KkmS1RlkSyDmzHhgtexAxcQ9W1B0zCsg/q1eOFb2P1D2FMrlLgBb18XloIVB1Ec4YR9RfNZK+8w6x8tN5gv1wWzAEfjtCKsQZlILYa13m6B49x4luDGYIew2YBRZTKWozjv/HrNEIWO+0TealmeV77A4vY1ujGQwgrY/SsJcQ2MHdjz0hEEf/JYrsdHR3f9btcwMBS7OXRQ2U3z1LVJ8dbVquRIW+242QbX1mG+St19ZSqafP7PmRE2U+JQp8kyr9aJarZLf//73ZORI4X71wGQyQaBDISDDMDpluVwkTVoF2+zEiJmZxNkORTgTmz7fyoXTD2LQDkGwpx3gtKvCg3fg0UTuNSDu5ed0DgxuvanjpxFuo+ckZJ3OKmdnmfhPwHVtxIGIOAiKd+8RU1ScSStuCr2bzAnKXMJs1QHD6gS8Z6HKHQPeIDvpeS3W8NTYJWj7w8N+p80BYy5qZFgnlAmWDDfToqMcsd+etr+OhcwQG2EzPLEx6tlVU4dqT9Q088Lvk9jYMaTrpz9SrfMC69atIy+//LLsgWd89rOf3TZy5MjrApbUFhXc9zmaqOlAOUEz175I5DKMhirlYF9Y7LOd7XeifQmCPc1y4SgdBkJQ2mkyNyR0m+38iewq/x39EE4zDYQ7O3YlxbVahETjiFcnxwsyKN69SVpRG5c3qnoGVlQ5qAhi3Izonwd/vSDcCTftdw/0/NkxKCje4xSsSo9bHaWg7Q9PAUaAumwkTDP4e0Dp1auAZ9YV4U6J7zVatcwsBQcmZeKJjVWLdz16fvl/ZNq3TiS5hUt03rWD4ooVpFKprwONVpyhAp5xwQUXtKx+8829zc486gN42512uACAUU+w7m9qeGWVpKFzzsJWrIyOVMFOOOERD4I9LcC2sxBAdmynwl/R+S3ByLwT+WhRzuvfykJ1aGUbPvwIOgwx7nUBRgSQOoPi3XvoGleNm1iPOIhxPdHPw0TSdEmSGj1BSpWbaTELjQQfH1kRGFAnhjOZoXc6FCNo+yOiAzqReh6+WhQFx0FZXYI2LN0W4z0N0f6dg21/R/HVNfLf477+VdU6efk3Dh18nvxq7egHUXJqXCfmPb/o2e2PhUtIWByaoqJQXKFa5iaLFy8eUnXmvPPOo39a//b++34rE6lXUYZAiNdgFR0bs6uKMCpOa4lzI+K9AOK9j8tLMQvd3pjNkMyg2dMuaP/5c8l+QyTQWafJqaozhNMfrVDRRtmBjihGMYKWWO4bULx7DBiW0vM4ueFl5GvJEjB4rCSf1WQqJ2CTTLGkGuUEUimbk1rVgvcoVQUNgVmCtj8iWCysncBpZegYW8aLnTAkSs0lLvCz844h8b3G2PriysZ/D4bKJPb5smo94/r/nSE/yz9XW8ckBDOqiirQKOl/6FFS1S7LOIR0729Vy+wyefJk3W/4yU9+Mvj8xhtvZE9nv//e+25NdOMGtTzQKU7sxC16rEWYqepUyzmku01wz0VBGLfbFG92Oy9BtKf89le5v6JjNdNhPRBWnM9ObqImHq3OmpOdCKQGKN7t42jsG/R0Z6tWGEPk+RF5GspcKb9eVksWykEW4QZm00xXHKwnawY2fJeCbWXJuL1cAk2bILTH6eFR/nvtNFRB2x8V4El0ItsxLJjuPSo4Fm1ulIjcdeSnq/97/jGq5WapbPr3YJJq71xxBNoDTywmhVW1E1b1iI2xH97D0//Ag6Rz1iWq5XaoFYozf/78wedjxgzpNGXee+89kXDxIrXuVX4/pjuYT6Tn7FFSqzNUy9YzwerEfW6n7QyaPRXdIGkY/e7QEO9uM1dwnvXOGYr3OoLi3T5O31R6N0ctRK47pbGi4jwBlQo6IKZNBrzszNilYX13nSdnYoS5v3MVvX02GhCFxmiq6tP2yTtc9zxo+yPCje+vanRAiw7E1Av5YON/Op3wosVGfYHEJ4yTn+slq95676OqZSKSh+wnWOr8RE2UTN+tqmV2oImperzyyvZKOLRs5GmnnSY/p3HwX9rtS3GNkAE/UuA6m7oebhepJV6NincnsDOqGzR72i2wc7QMI5tnRS9Ex63RBZHddWokHmdYtQmKd/s4Ld4zNia3ERkTZaywXlhOgYuxm0uTUSB0hj680oCyySnYMeqEuEm9MplmKSsSn9wkaPvjNGENwcGMv9N1DauQKNmm0XiZgobO1ANRLLyfYGEzNP6dlo8kUAP+lFNOoU9nvvvuu36YabVWYYCkS/MtMEGtnCmTJ19jPUPUhsjATJpO2ZA+lxKS/WpPOwTe9zZokysauT1sH0VeeycQ2V3RMiugl94mKN69R9qGR1HUkVDGCieV3hMaFgMhD1mF9z4O70842OO2Cmt42L4wgxWFRsVuT57v4ORMJG7h/jiD2Q6r1gQtdpE7rzvve0HJ7uRkvX0PkBWvrVEtFxHfp/ZETfGJ6nh3Bp2oiQl4+tdrYv7yyy/XquUu86tf/Ur+SxNXlyzZXhnnzrvuInfffTd7S+bdd97xeoPfbUJIiWy1VZjnNaVxHxXh3p5pZM4QnURaI22A0Q6v095iv9vTNkHHjo0cZAW5Pb3cPgZlLgTEBCjevUd3De+NHiKDIooV7oaZ0bphZrc1YDy6wSsv8tDI392g+HfCxUDHoXHhPUROGGfecFb0PFAcdn4zaPtDNK4/o7gSAmOCKsQhD3oDd556flbjXjBE/5NLhRMziYiM/Kxg6VD0ElNn/k8HmXfbDSR56EGkunGT/CA2PPKdMy+yVTJSKdQfeughEh07VvU+/v3sM6xs5KSJQ2aEDeuMGHqFuCCZTznyySbiadURyWZh921Mo/MQ5+yNaL0S1SgH2H2tREVGj6Ct0cJp8e53e8p/f5nrhLVqePiz3Hkyex254akv+uD+DBQ7N/sB8Bp0iM+GUTc0JEun44bEWKVgUiYJMuQZM8GDQf+mGhQHz1B6GrQaLZ4iNBhGDFcJjGMMjDRvPNn3OFmnOSj746Q3sVdRnUNJ2cEQhKLOTMLdNbZDF71Ydx4jlWb0SB12EMk+/BRZ8NAdJPvwk2T6BZfIAn72dVeRsy+YpfNJMT1XXU1SqRRJpaYJ19ciHo+ThQsXDr5r5cqVqk9ceumlco13SjgcJueffz658sor5dCZH//oR3LYzP333c9/JPnOO+9077777l6NgWfVumKcbWV1uPlrNQbLYk6MdtH7NhQKVTUSvZUYuY47BUJMT6weT5NvQeB3GhDwZZfbD7/b01KNEXh5ciRwvEUFSbm6gMawYj/1PhOHkcqg5Kd4HhTvHgOSRrVukKpBz4beTUa4m56RF3lbFITBQ0/AODayl600zqlaRkOSJL3GR4t61bkPyv44GXbDRI+W2HCqo9AHcbHCRnvnqedVthRu7nBrFlcz5Jc8r/nu3KKlJL/oOTLr8qtJbOzoQc+7HbLZfsviXcm1115LL1ry0Pz5ZNGiRfLayy69bFC8s4TWQw45ZNDzTsNnbrzpRnLwIUPq7Xdt2LAhN2rUKDdLAFpFntSGOjc44aW8T2ez+1ujs2iVAje/gqbtN4jsvVbcE3r2hlV1MSLcSR2SFX1lT+F6IVAtjnrakyCwVe8F2PHLwDlvsxDW2gbnS6uDYAUM36kjGDbjPUo6cYO1BDMrFckbxyp4MfnvVBr3GBdDXBbERfZAOa4e8LI0engspRCKkQaV0nKKoO1PLbSub7a8DMdEz4toR0iX4VoeBxWVhMKdsXPi3IIZjxJLUk3sPU61zg75JS+S/keeJvtOO4ns9PmJJHPn9omQxyWmkRO+dyHpu+N+EgmPlB+DO7pWv8qLHpm+PsdmW6VJqBdeeCE5/fTThyzjueGGG8ihhx5KVq/eXjrzhhtvVL0HyGxYv96L94fIATJbIHxbmY2GfCMnvJXMfjg1GmVGzLbDTJsZgyGfSYcnqFLie3vKCXoRslCHdthqWF8JylCaCdF1I9kasQiKd/s4XR6vTUeYiBoHBj/VNL9NGSgzpdVAVAXxfGnF+hj3oJ6limDmtXqi9MY6OeEJ7o9zCJWXzvVd4v46PUrAqm1Mg3kNTJVA3Sl+dlpjHgUVxdfWkKt+dyeJjNwR72409l3EWaccO7iUxr0nDz1Afn72D68gu+5xACmv2zC4vlLdSEpr1w++Tv/+JhIda60OPBXO6V7LIf9DYCE00egOU3Psd44d8h7qfb/zzjsHf/vRRzVLaEY9Gl8b1RBdquuddhhhwqOCQ/e6E97sPCfmlO1arW2MQ7thJO/FjcnhlNuifO0He8on4Wtd31WY+ZSdH6ujNzTfrZEVyPw0+ZonQfFuHzdKRWpVBDDa8+UbC3l4mca5axhNZcMSV0wSFYahtS74y2axK0Hj0yiUN7+el9YPBG1/iODaqgXfkNipJlOEcBh56nRJkkKSJNE8DRoeYyfcokPn3hzCVXPuGqzxTgzEvutVm6Eed0Zu8Quk68cXkuQh2wU8Hx4TnzRBfs2LeSJ739cTq2QyWhrCHDRUZu3atUM8+Sw8hodN0HTlz36mWqegdf26dXq1rxtFt+BeVlKm5XcJIfPgHnFisiYnQnCS3D1opV1TznAqgt6bqVqjXQ7gd3uq1dZnYN1yeF2w2HFL2JgMUgsz2xHkkeW6gOLde3TADSkS2oTLQhd5NWOCdbyRtNPY9Su2qauOMeEilJUPRMfDTwRtf+ygPBaDIpxOgEq95/Bgwlz5SEA4TNrJuOKdpkyvGLnmC69ub8NoBZnoqC+o1ovQqzZTXv/u4POrfvNHssd+R8nx79dfc9mQajIlgUjvOONU1TIR4bC4jGO5XCalkjMhypdedtmQmVS1OOuss8hdd90lV5+hkzbpMHvd2nVe8+AlDYiiqOIat32AbXZKRSg91U4d55jOKLCT+N2eljVG+joU+9LmUg6BqOSoCLaNVUxWrS8tDk9e0Iy4UTpRqzwU4W5UkYcjJliXYCEuYOBreQ7zIIyUpAT76rb3RInSoPD7otcxcXwKfYcI2v44JZSHHBdehFOPHb2O4VH3uvQ7TWnPcVVFhDAve37pSnL9Fd8XvUVFad17qmVaVDd+KK+5+Mprh3jeRUmqmdvuUi1LHn6Ialm1ulG1jJHLOaMLqXC//fbbVct5aJIqC5f51tFHk/O+f57qPQoya9eu9ZMXryi4750awRTlKxn9XC1E7Y1V3JozJEj2NKrRYWKT1vG6zY12WHRNijoUbIQ0rPEZLXCSJnvk0fNuH6cvwoLgBuHRukGSGkNRymE1rXFwZviTGsO4/EyXrOffrhHj6RZs35mx5fdLy/vQS2OcVUu9QaD2B4bClR6uqoXGkd8/rRGohrHT5LO6jTg9sk8uJT2/1RerjPIGY+L9rFOPI8lD9lct10Ik6AtFdbiKHk6J91pcc801Q95x1913ky/t9qUanxqMtfYSRcF9wCgJ2gynDjCzGWYdcqIQjcG2xOG5PZwssaskaO2D6LwQ2D/WRmc02v1aiDoGPGHFNVyEz+g5TMxsB4p3m6B4t4+jXp8ayaVExyOvty6j8ZwnCgbOSIZaAarPkDo3nKzzwIyalkHmmRkKhaQ6dzKMErT9IQLjHtZphIzgxZKARDB8LdM3bwHpu/9p+TmdXdXoDKtGKb78OqlU1YLcDNWN2l52IieVjpXrrjOcFO+0drsW/G+apL1cLms5NRpBt8693CoI6XBKyOQEITlW4dsSvwitINpTER2QcNqhMSJuBCM3G3sPm4ApA+GyWpgZAcCYd5ugeLePlmC2BGSAK+NqbXkfeU8HPNeKZ0saTOxhXv4y1ASucNnvbsKLpT6FcfajMQja/hCHGnr+ONQ7NMsQO006U1gRp/+pZaT8zt8HX//52k5yUftxjv1u8ZXX5YcTJA8/dDDWvRUqv8SnTCGJeHxIiUYn4975ajNK7rjjDtUyE2TKpZJXROY8E+1C3sEOKus4643cWkFki6yEmvS67OwJoj1lDLbZEP4ahmOZrcO+sSIWoiICZe6463nlRd+J2KDFw54t3zAwJ+rkzdMmEAVGL3RmUHkjJmp1tbzvDGWvvCzoQMzmPBxhQYKTG/DXahaMF9tXP07NHLT9IQ7VAvaFp2+niWdklSNV+WWvqN7X/+RzqmVK9KrN8NCQmejo3clZp4naUWNEx44hTz/2AEkdcdhgrHuhuEL+W1yxgvQ/8KDqe5yMe9eCxrszRo82Xd7SqaotTqEaldGg4GCyKS+ebCdocrXYRY4Zdp/nDY7WVqG2uJud8SDaUxV8mUg4nnrx/G5TEugFXfaLJ9Drbp8cet6dQWTc7GB1/JiVmSwxIS+KL4TGQsv7LiJqoAPRWQfvO69Y2NTUrMFu6OyXFgna/hAN0VDWWK4Vm+unGsDdrGNbfK1Eqpv+M2TlOZelSXnD32pWndGrNsPT9eMLSHn9O+TWO605V1uP/RZZvjRH+v5yB+n5+XWDy8tr16rey1MsOpd6QKvI1IKG0Jx6yik13qUiXlpT0gs5rCd6928VigLQKkoxCH+wDWfrW2v8vlGM3IdJznGj542n2zMbZhB3C1/aU4OdN34mVCZ+c9DBcqPqm9655LESooU13h0AxbszeMFTWAbPQwmEdi0PqN1GTnlzR3WSad2Aev4XKIxan0alHD8QlP1h15Vy9MdM4+mbjstOE7/LykdWWYlInil7j5PDZqiAt0J09G5DPlVa+46l7wmPHEnuvzNDZs44n0z//gzS91dzISqFgnOFfTbqxNzT0pBXX321PGETTVi1QNeaNWu8Hr9Mr+8EVFFqc3jGamovxgnssx2MTNBEwPM/DaoxKXt706Gca728xEFrH8qcw40/H2mzo94G4/vVxsw5MFnVATBsxhnqeTFqucAKiu2oMgElmkwJvDS6Je9qwHcO8mCc6+n1EnlySz7u1Qdlf0SlTLWGyt1sIOrGTvucSu+97qIgOZWWjbz+yvNqet4rUP5RCV/jncglJd8xVW2GkjzsYDL3hl7S8/NfkyOPbiP9Dz2iek8tnBTvejzyyCOycH/xhReshM4wsmveftvrQ/NudjAyDoWvGTmG/OhZK3i6YwJdkYDcqHq1EUGxp6y9L3GOEbYPbYrOiZNY8ahr2XklKN7tg2EzDuGkIa5lXLTCVwpwc/M3HbvZtW6WtIaRU1LLi0N/cy4zzg6XFtMiIejIRFyYNa5eBGV/RPeCndlSfcFOE05J55at+odyW6nHve/+J0n7id/Q3Q29sJmzTjlWtcwIdAKnrssvJrHoGHLCd6eT4sod8fg0UbXrikvJ7F//Uveb4vHt5oYmsPKzo7oJ/S0aNjMWZlu1sus+iHF2q3NRAeE8S7XGPKwt0muTlCKPzcgtKnwQFoh6t/CbPdVqh1kbnQCH21Qut0FLC9RCZKNtY2LeDT9V9vEsLV6t5uAznBSrVkMGOsDbkocHizGUh2dV795Rl1u0TjlzZQxmtxwHJSKVAbdV+M0C3Jh6xt4pOjkjxgyfXuxf3Sf0MUlQ9oed+1r13Ysueo0aworXSp8T/W7ffU+S8C6fUS03yq13PzT4ztK6DSR56AE1PxkdM4p0nHEKSf/+JtJ3247wk/jkifLfWHSsXBKy+xp98c5XmXEy7l2PsWPH6qw1TOvbb73VqEQ+veueQWPdaZ5QSjQyahUqoGAE1Gi7buSkWmmTWCJrHsI9ZNHuwkywWvjNnmolW89lc6xQpxgI5EKNuQRqoXccapF3ICQLPe/2qbSMmFH2uqjxA1GHK84QQUJpvoah5YdJ+XCELJSf1ELkfV8OtW/5RwG8WezGV87wluN+t60OyaszOfEXVvxV4XKVAycI2v6QGkP3gao4oHe9P7Ps5Zqed6OU1xmLeS+v20B6//hneZKm6Njt4SfsL5GryrxMzj7vB7ozqxLwgjuJXp13xsqVK+XwmVr16A0w+63Vb2meF5eoGvQsRrm4bD37bBUjIWnTdUQjJWJjFDUJYR20M8HqkWslqLtBUOwp3+bLnTxJkrKSJFGnXETgSNMFOop6dlkLZgiSGp/X0yaD7J+YGtH4PGKC1aU1hZ3xgDlGwuEhwU6FZ5JvhIo6Q2YRgeHW3C5qtKACgN7kC0Tn9wjcjPznkzD76q4eMYplMFr8MYxojBCw8KMOAwKTNdK5Osf7e3l/kuCZMWugq3qNqw8QHftBiq++pVpmldQhB5CryB8Nf7q8dr38t1LZOPjcCrRcZDJpb/4fWst98uTJquU8jz76qPxwiMzq1atT48ePd9sOMW9kVKcYgJ7ddhqRU64KbQEfxqZn9xM2vaRRmAQpAd/l1XAJL9hTrePML6cj6VlFBbmMyeNagVw35WdiNWx2B8xfoITZetH1JkJ0TBELMPGeF8SuIeZI6YlkC7QpjD0vbPQagLjCm5I2EIuWhs6Ck+KpCgbBrZGdIhhPZeKs6DqOahgeEUnYbjNx2kmdBtsoQdkfrW1WkgVDngTvUWudxY3T6DZKpfXvkykT9iArXn1btc4MtNoMDZs57ltHkgceedrUZ5knm9Z5r1SrNb3uSvJ5647TMWPGyImoF1xwgWodgfKRWlVoqJDfZ599yBhrCaxxsG9ulNPj6eDsrlY4mNa17YaN7FDcT0VOsH0Af+eqPqXGiREyWbibiIl2gqDYU9YmyyJZUPqZdgz0Rk8GgU4USyYe1CoslAnKTvJhr6wIhpZw74VrfoEJ7YPx7vaRDTEmrDqHbuNtgZjAg24UvqGqebOAd9xpz3EYwm/cijutCIZ8c4IQICs0IqQjKPtTq4GeBeXaCtx2BSGhVff+p4mrkZHm496P+2aSbH33RbL1veVk6/sF8vaL2z3S8279Hdn291Vk2z9eI9v++QbZ9q83ybYP3iLbPnhbjndn0KRV1basXSf/jU+pHcLCQ8W7laSoiLoCAAAgAElEQVTVa6+9djD8ZtGiRar1pEb5yOnTp5ODDjqI7D5qFBk1apRchWb0mDHk+tn6uYfr169n39u++s03B+PKIc6choS0QVjgkORWGioSCoVykIAvqb5YzAKF0BLFBVfB66lc50bVpaxCUFU4r/FUgyEsWt5ns3RDW6DlXXaDoLUPUeW2w/FM02tV9W4FMLq+HDpsC/gHC42FTt080AwpbnRBq3PQzeXMoee9zjDxjuUi7ePURcmMasKGR4b3NhhqbSGpVdTg2MWtcBJROTKiY2iU1Cf7zjhB2R/l9davSF5lcb5zwStY5a555iV0NtC6Pqg8erFRX1hm95cTk/ZSLav5mcn77Hg+ZRKJT95nsM774LZFx5L2751OWr9zjPyaVp8xQn+/+cmh/vCHP+iKcwL13SdOnKhaToX60UcfTS655BJy7733yo977rmH3HzzzeTiWfoFVe67/36y7377kksvvZS+zLz5xhuyeARPI+9hVN53nXA+a41EVjRykXICT38eRlNF97homS3AQ8u3HyxWeSZ4wI20V3HBfpiln40CCLzGbhK09oFA0uqgM447nkmak0Y7oVDtTfnIQQ6A1mR5SpLwaIWwKlFoVR7uE9mGY6WZuiJf1+h5dw6atOqkZ6HVoUQmM1OGu+ElDzs1g6ACrTg70TIReudKJcQ43DLqQdqfKiRc58FYh3XiKcMCT1bFTwJeK1m1tOFvhguqJw+eqlpGSR28n2pZLRJTdohgGh5TqW6UQ2ZOOG3HbUgTVi/+8U9J/4Pz5dcshIaWaNSDxr2bZS03e+tll11GbrvttsHXNFyGficV2DSshocK96eeekoOm6HifdLEieSmm24iZ599Njn33HPJwQcfLAt5ZceAvu7t7ZU97xzhUqn0MHsJoQbMG59mFV8gMV9U5lAFVHZhXsoershAu6JUZS94KDPQceXvhaqL8x0IvxdGGvRP9A607lujFEDg1Tv3yW/2VHmu8oKiFUTQRrPjGofrrkvwYNubE/yOVXLcthjSGPtP3Tfm87wmT4Ged2dpRK9Sz1teNBoPR3Y0aNbmXdcn7dKQqahBEC0TYdWIaMWtOoFo20XLRHhpfyrQkBjxXoq2IeozI5/gSuPxDJ67wqq3SHn9+6oP1iI6Zrca71AT5zzvxZWrdJNUqed95owLB1/Xqi5jNO6ddgKeXfIs+dOf/kQOO+ww+UGFOg2boZ54xu9//3tZtB933HEqEX7+eeeR8MgwWbZsmbzuhBNPJI899hjZtGmTvH79hg3kkh9dQg455BBy1VVXDX7+ueeek5/ff//98mv69yt77kmO+uY3J3zxi198j/sJdn7CnBCxMtrZJpgwhxe9MQhHoMt6oewuE3lhgSCzDXhotZwmWjH5digLxGaRE4uNqGonsp2iZSLqbU+VDoCYhp5opUmrUGY0bbSjCbRb3D6RJqhwx8ioxhDtD2KeIZ53rPXuDE5enH0GO1VanpEq51kygyved4vbwtDqoKQUng471RGqDk1sYoSg7Q9PQueaDCrsHCntaIWd639WNm2hce9aVKqbhGtiY3ZXLatF2zFHybHu0TGjyf23/3mImBdRWLFCsFRMuVweUvtdizPPPJNMmTKFLFy4UBbs9EEFNf27ePFi+VNUzNOa7t/73vfkdb/73e/kB+OGG2+Un82cOZO8/PLLZNWqVYPrdtllRyw/FfO33HILOfW002Rv+9y52nmYRx999Bdff/11Zqf5HWHeSaUQEXk/B2FxxwpRVAbBwzp0vBe+g4ovxe84LmxpaBCUaGwkae7ecFO8B8GeihwYWna0FcIPZ9bJxivPXZXrGFYxWbXuyO2MLN6x1rtjOHlx5gQ3DdGIseRhcW0pKzGG8BndBssinZDN7iQpxSRTdsqRmU3aHTIJkVbohEmCsD/NOgGHaL8HK5AsfuEV3bK8xVWrVcuSB++rWmaUzgvPkUNm5A0bK56ptPU73yaZm/5IIjVCZVTbamCypmh0u+5YIegY0FrvVLjTkpF8AistI0mr0tB1PD/60Y/IK6+8MmTZLX/+s+p7qXCnn6Uif24mIwv8E044gfzwhz8kf/3LX0h/Nkuu+OkV9K3Z1197LaK8t8BbzQuRfgMCuJvzQMoCDya1Y/HtMcXoZxg6DfzviOx8PajWaEvMEFV69CVJYmUMy/C83gStfVBSFnjsGVpJ01ZQxryHuc5G2kQ5aBTvDkBrvBNFzLsbyYrNBo1717qZzJIQxKdVDXgPStBg2GkQOi3EHNNOxa46VQyiMGGUFQGv5YGYCUa1l3ufXjwi0dmvqKJahBH4fTGzX0HbHx6nw3D0rnWvkILjrWzEkkaFWWXjh6pl0dHmQ2YY7WecLE/Q1PuHm0nrd45WrSeQtFpYsZKkkoer1ulhRLzT8BuaaEonXCLgZb/8ssvk11SwU+FOve58zfclS5bIHvbTTjtNfs0mdKJhMcqQmmeffXaI953yf7/5jfw7J510Epne0UF+/atfkSuvuJJcdNFFcrWaCRMmyN+zbNmy8N333POYwL6yylvsfmnVy9cBr3sJJjuis1JHFLNZ80mjzC7SsJlOSJqlVZf6XE7k1LLHRCHCHAfyCJKKkQc3CIo9VTrNtLaF36Z2je2JOFgVR+saqmrM0K7igKn7NuOIrBsMnmtevNczEzzIONW7nAlCvcrdxGHuoUXM7sRI8HnNRkuDJJSa0jOOSZvhMyISCtFU1DBmDL1jx9A7fspz4TS+3R9FXoPeNpt5jx/EOxNoWo1lj2qJApHn3UrIDCO38Fn5WX7Rs6RcFse89875E5l21DFk1o8uU63Tw0jS6s9//nNSqVbIT3/6UzlMhnrFL7/8clmwM3jx/pOf/IT84+9/J+eff778IIrZWPlY/HPOOUcW6Sz2nXLiiSeSo446Sn7+s5/9TH4wTzyBuHfWAaDPb7/99gN32WWXKSBM8nCOWBvIKm9piRYZKrrp5DvUq8ycJVB+klb9iMDybrgvYhBKM5NVDAEBT99fzwne6gHr3THR3siRfT/ZU+X3GtVkIrvjZPukdcN3o9e97gxeE/xQbq6G8EKM0Wa0N2oAM8koRJEgZAs61BsKhdw45W0ue2IyDpSn1PNG1TuR0k/7wxtoVpdY7/uZZ9K3dd5BiInietm+x0DA5aDSiGFSh1gPm4lFd4TK9Pzy/1Tr7UDj3mtxww03kOjYKJHof5Ikf2bhM8+QFStXktNPP5089NBDZG15LfnBD34gh8rMnz9fflDRTz3t9PGb3/xG9sTTGHYaNkOry/T09MgTNhFJIieffDLZZZeRZN36dXL9d7qMh9aHp4toJRsq2NvPOov89KdXyHXn6QpJkugM0J0T9tlniLgE77lpGw5eehZwL88qCvHttCqNsBMKU9y7SUmnXXd6VuMy2HeWB8A8rV4Ky/WqPRUNZ+n9jpHf7HMgOVlLU+QVo0y1cNpp16wMdqR48S46QYh5kgNzopERM8r1TgIug2Fy8nenQcyulnGwglYv3irK4cE2xfZWofHQasC8hu/2B+I5MwovuZHZUoPgLOjm9oO3oZ0g5Dq1xML1P7uQXHz1H1TLGdHR1j3vEa5uO01YpVVntIiOHSt7yY3OuGpEvMsx75yWprHvF1y4vaoN9bhTr/rhRxwue8OpJ596yGkt+pHhsCz2s/PmyR77XcBznk6n5RlWaclLVlJy3dq1ZJ99JsrCnpaMPOnEE8moUepZWDs6OshFP/wh2X333Qf1/ffOOosc39ZG2traMlOmTPnhypUrz4HzNySGF6ajNyQ8IK47AyKe3cO5Bnsd9dp1Nsux3dAZdkFEQLTz93W1zvXdlfjFnqa17IQNhB1Gk4i+w1QxjAP33S+CjmHHGLyX+LAZTFp1Did7mbpDtxxRyEAfrBZjN0EUhnXNeqCULXtVEcvX7eAwMZsCm/cu/P/27j26jereF/hvbCcRT5vyfhQphfIIECuUdwhWgPJKIUqhCQEaO5TydBuF23t67+GeG5ke6GH1QhzqPjjQRm55kxCZ8H4kMgESEkhk3lC3ljj0z3uXfO66raCEfdce7bHH0oyeM6M9M9/Pipctje3YkrX11Z7f/u3iwabdRQOHW3+fqAgA+ifFcoHAE+trRDmEdl+MF73XHnvtWg/xYkbBvX2fvdX3P75uCYXqaBOpCRe1i6wkFLS3HHXevHnqzPqCBQsmesn//M6f04033jhR/17cY57Pvp94QqF0hs/O89DOy2P4Bk3/OT5OW7dtU2vf+Yw8byFZ1Nd9Aq91V2fmBd56cseOHfTPt91GG5LJzr6+vhW6Htn6nVjLboNfZnzt0JUdJizY6MguEYPxpR5BXU148djUzFzhpvE0ZkNNuBW/l9HEXU+NpbmG4x/UZeLxNBHe0XHGUo38servh2GTmeohg8UsWi2f/gkl5vCW1GSwBXV70eDJL68q3pK8Tp0GpwWbtSjG7Im8Fl77fcw0Y3txO2iL04fE33VC9/jVP44j4oWwqfZ99qInH/g5/Z8PXqDdn22l1X2Nd4Dj7SKrkf30Uxp5592yn7lw4ULq7Cy8HgtWEfR5i8gpP0t7O807++wpAZ2Xz4jdT6sSW7lS7STzu9/9jlbeeit99h//Qfu276vO2vPNm4x8+OGHJdfy8K7hJTQvv/zy5brDvAa9R5Q5VZq4COsXtIp6dz7289l69W9DhJyw2ILejja8lZT7u6tnP4VaGxmU+//t5orxVDxHa5Md+r0iahkERnTv+8SYZNUkib4Jx/Ja9o4REN4tonWaIYMdVo3qrqB2C3npjAW3W9qg7zCJGZPi2ZycOKWi//x+C05ZGv3/GqOBvLvKJ4RusxlJl7KjFVgz1fL71Po35pVd9rQwpr1A7iya7dLGU9OyCR7al11xEf1l6xO08MLaur5Uot9ptRE8rA8NDaldZnj45t1bKlm8eDHdcecdE5/Fd1Xd8tpraljmGzZp+Gw838ipHF77zt3eN7nul4f4J9ato1tvvVX9ePXq1SUz7+vXr6dLL7u05AWC/vP4olf9plHivlqr2x6+Ev04nBCbMY2JsJ4SkxTa56zWFrNW+J5WsnpSrtbHLiYFC8qNpxMTbHwNhm6B++qSzyylPQdrL5L4C8e4GJuseuG0Qvw/i2pt+Xn6t07pcPOaJslMyefFvYfTFU53Q/XqXZipf5CvELM/xfXD7eK+WiQepFoP2rD+Adto1xnxPdKKovQZ9HolC0JYf4UXBwAy04K60Zip73JhdJzLvvtS4rnDDz3oRrJncbgqeOQRZXdZNdLZOZtGRgo92rUa902bNlFXVxeNjY0ZfMVUvJZ9YGBAXZDKa9hvuummKcfnzp2rhvhPP/1U7e/OW0je8a//qta8F7v7brHgtmhBKnfPPfeo73lQ5zur8k+5/IrL1UD/TyK0qzutMqaWzrz55nbavmN7yffRKf0BylP/BsRERPHXdhmULnSL2f2wE7Xg/DlAUZShJgWobB2ztH408QKH/x2JBe4Rg78dI9rfnNbcgp/VNnqubgTPH9E6/14x626dKS+Ei2fe8SrZOlbVORq9oBoUbcr4q2x+Sp4/sNKiNZnlTwjilbwddcrBcn2UwTWKS7M8fwZPa/dXZFj3OIkWPSkX7/ZIaq4+43tLH06+ZEuIW7jgQrV0ZvVdt5ccqySXK33dz8tm+Az8vffeS7ffXvl78gDPF6o++OCDJcf4YtS77rpLDe7co48+SnNOPll9r/fe+++pl3iAv1sEdQ3vOnPmGWeqZTTcX//6V/rsr5+p/+/Sq66a8rlPbthAvxwYqBTc6yK2qa9lHU+7DYsTy6l23dKQxTt2eq0Fpi2KJtk2iJKtevZaqcdgmef2cVEm08gLTTy/Wwfh3SG864wV9eZGM0H9Nu3YVo5dA3Ez6kDBXmYzzX6gnW3rKqpzzZmcxm7v/R+r/7cdT9Sxm6+jDY+spZU//Z8lx4ys+NEtE9dms5+WfMb++++v7ljKy2h+9rOflRw3wmvf77zzToMjpXjovu222ya6yXCPPfZYyedp+Oz6mWedSevWrZu47ve//z0tXbp0Sg94B6yo42++2+QFoOXEeothEc61emgzxaUaI0V7jdSi9BUgVJIVY0e8QvA1myDRds3VHx8Ub0b3YbfBOoBx8XcSamRn3NNPOTWELjOWMg/vgd6s0ZML1K/cg68W+gfiiNgQpGx453WVVj45iAex2St0I0YDhZFOp57EABw0risJGxaPWcMZ0PH/+/9es+tF7LkLrqi6ZGbNL39Vcp2RalpFanhwL94dtRz+ucuWLaPXxW6rZgtRNXy2XY+HdqNFqpLaLOrinSgtiIrnIy0ALDLoZGZUWpOrcsMfo/HeDRusyUJ7jg+LjyOi5GiRCNIjIoDPF7v58tlwRRwncWxY3E9J8abdJ93i+8bLhP6s+B6LtL0pLCi7xay7hUYzY1PyeXHNOxnUV0P9eiyasc4Vf6y9IlYUhQ/GMYNuFlGx8MrKYtqESe27EaPBflwsbuwsus5okB8qt0JfQpVOK3rt94GC5eKJMaJbND4sgnpaPPGqoZ2felYUZXnRpk457bH71WevR00CVFPwxan6nU016bS9J2h53/ZFixbREUeU9myXTFqEqUbZfsZbC2Li+SIu/gb1E0Arxc8RE3+DI7oF2FrXM6Oxf1h8H/14r+45UuMmPrXy2niqNaHgbRjDYvItJm7HpFmOEJspDor7QBtX9PfToPi/I+ItJp7Hg+K+4987pe0QbDGEd+uUvOgyCu8phHfLBPMDwWigN2vlop2SkG5SjxaqcHq0HolynTOqFNUW85UbMKrdGMUtvPb7FEkY/F1aRcpT7yJwm70w1p9qnvKkW+E0tDYzalk7O7MNmtrb96VY703Ud8ddJcc0RsGdC4fD1NFRPjfxenbt65m20JTvako09TqT4xMfM6KJa205bnCd+PjDjz56IZVKbSv55SZ/brNSKJmFxI6vaXHGMyrG9NWiTWFc1+UspL24NGg5nBahLye65+hfCITsbkTgweeHnCiH5YtVQ+KFfqbK2e+Y7sxdTv9i0GBSj0wmyyx1ximnRpvYltOLSu5HhRWt4M8PBPVbPEPjhgO92aoDr6hlL35m1JfJZEzCevH36bCi2wwAOOerz94Ik9Kyq9B9poVI4W/K5HuavKyQdr3uc2jq5yYeXkeDDz2uDQrqu+Etbxj+Pp2zT6LYih9RcmgjDT21Ub1u1apVlEwm1TaR3GWXXaZeN3v2bPUyf/7Q3rTwO3m5EJzrOU4T33fyc6o6roX1ouPml3Uh3vDz2ZzOcNh0ksFtRIOAkGhCMEGU7mhhPCbO5obExx0iPGiBPCzCZVJ3pmhYBMiQaJe5RrQ9BB8645RTU4yftTF9nNV+uXi80V/nA8tHM2NTJn6Mwjt/8FXuBQa1mBnozaIMAQAq+uqv2+KktntrPLyX+3r+uUqVX2/0BEr+CO9Zpp5sCPtmIkTMsncUnxnVZt+1ySMx495RPJkk2mCi+YVPnXnqafzF4VijYR3hfYqZo5mxKY+z4m4zJEKmJ7Yvl4hhvRoAQLGWw8+IGywmhOYImi009irRhrgkfIvrM7rLOaOzwEZfC76CvGOtbHFwJ6PwLpTU10BDohbtuAoA/hA16eABzutO79qFxXcAFZx12ukd2JjJcoZ5HOHdGe3oZw4A1Wo57PQcujVIpX/Xzp1ofQhQXsyk0xzUzzCPI7w7J4bZdwCoVsthpyZFBxBovna7O6gAuNlZp5/RgUlKWxjmccPwjrp3W2D2HQBq0nLot2JGPX6hKTp3vr3TV/XvADXArLv1DOvdySy8C4ZpHxqC2XcAqFUP6t+lsWLn229jR2gAnbmYdbeLaQ5HeHcWZt8BoCYth5ycxrghleTbb72FSRiASZh1t4dpDi8X3lHfZw/MvgNATVoODids2DEZ6oP6dwDh7DPOxKy7fUzHGdPwHujN5lBraQvMvgNAPXqwFkkaXW/t2IFxHACz7nYZGc2MmW4OZxreBdPUDw1ZJXayBQCoSstBnTn0UJbK6h3bt4f9fiOAf8078yyeY1bhT8AWZfM3wnvzoGsBANSk5aCTeP17H241aSS3v7kdZZDgV8gx9imbv8uG90BvNo3TtLZZmB8IomsBANSk5cAT+fbjw7jVpBBEgAE/mnfWXJ5fFuLOtwVvEZku943LhnfBdLUrNAyDPgDUI4r2kdLo3v7mm9gNF/wG+cU+FXN3NeG97NQ9NKQzPxCM4yYEgFq0HDArJxawghz639y2DeuYwBfOOWsuzy2duLdtUzF3Vwzvgd5sEjM8toph8SoA1Eo54Hg+Nq/BDScFtI8EX+iae3YIHfNsNT6aGWs8vAsYlOzDB/2EV385ALCPsv+xMbT0lUbntq3bUEoAXpdAa0hbVZW3Ed7l0JUfCOKVLADUowdnR6WxYtvWrWhEAJ4UOXsezylduHdtZV14R+mMI+IonwGAWilf+2Yap7Glktz6xhtoHwmeEpl3Ds8nWKNnr6pKZqiGmXfC7LvtUD4DILHd76wN7X5nMLL73T9IF8yU/Y7mY8dQyQFoBozl4EUol7Ff1Tm7reQac/yO6zY9ClZQy2cCvVnUTQLU6R/D/9JBihImpYUUUoi/L7wpYaIWfky7TIXLLeGJ6yY+X+nSX1YmPl+1XNJwxstn0qL3ODTXwjdef73nrLlzEeLB9eafcw7KZZxR9XihMMZKrjSTHwhm8MTgiDligywAT/ti6JrIRJCeDMshRVFCU8O0+jkR9WTh1PDNQ3q7Qfgmg/BOBl9PBv9/yWVl6tf3tZ60TMrTxyw3xm+PXYa/W/Hvz28dpczvr/t6/jyhPVcYfawe4+/1x9V/9R2nie87+TlVHReXi4+bXy78n7UcJ93PXHrdlOPjjLHw3LPPzpTcUQAuce45XWFGbBdjVOZxYf/l4vFGf51H8I2Zqi6drmXmncSU/oqSa8FqCb77aqA3m8MtCzL4fPAsPjvdURQIO4gKM9xFYTmsHpsaFkOkKMGp4VmERfeRtp5Z6ZiZZuPZPiJaVXIQnKa1jwzjlgc3Orcr0oESMMfUVJpea3jvR3h3RKe4rbEJC9RELHouffWutERKZlZ5oKbCDLduZpmH7k7jmVoQpA5jSnswzv7z0whOc0uh8/Utr/XPnXc2FhSDG/VjMybH1FQuXVN4D/RmM/mB4AjuTEd05weCadS/QzXyA8Ee8eDHgiLgokSUwd+DFFa8tmVL+ux58zCDCa5xXmR+DOscHTMymhmrqbyunuk0hEnnrM4PBHHKFSoK9GZ5MIigpasjpJ/RVvY9MicCPMihf8urr2IsB1c4PzKf/62uxr3lmJpzdT3hHT3fnZVC/3eohljkHMaOm0BqgD8iRURrcGNIQa1/f3V4GP3fQWrfnn8uzxsp3EuOGa+nFXvN4V0sokTPd+eog35+IIhBHyripW1iBn4Yt5Z9dr/3oCtmUZV9DovhxZw0gghFILMLzj2vQ+Q7lNs5JzmaGau5OUm9q9BQOuOsTqz4hmrxF9iB3iwP8IO40WzjphfTUZwtlUbnq6lhjOUgqwTWNDqurjxdV3gXp+cxm+OshfmBIAZ9qFqgN8sXsa7ELWYL15SyKXsfys/GoNuJPLqHUylsMw9SueC883m+WIh7xVF8oWpde/o00v8Ns+/O4x1o8CQMVRPdipZj5tVyrlqHoux1cAJnYqSyKrV5M1oBgxQuPP98dJZpjrpzdN3hXXS3QCBw3mrRFhCgKuhEYws3rkHhT9DZkmuhWdZu3rQJYzk01UXnf7sHnWWaYnw0M1Z3NUWjO69g9r051iLAQy0Ct4yhE421XNf2T9nzILSPlM/aza9sQgtJaIqLvn0BzxFrces3RUP5udHwjhrs5kGAh5oEbv4zOtH4nLLnAWmsg5BOatMrryDAg6MuvuBCBPfmaig/NxTeRVs61FE2DwI81CRw82gucNMn6ETTOOk3ajKj7LF/P17ASYW35Uu98vLLCPDgiEsuRHBvssFad1Qt1ujMO6F0pukQ4KFmgRs/Ricaf0P7SLmoAf7ll15CgAdbLbjwIgT35ms4Nzcc3kXbSMziNBcCPNQscMOHfABZhBBXn93vP+TaoKUE9kP9u3wKAf5FBHiwx4KLLkZwb77hettD6lkx886hZ23zIcBDzQI3fJBEJ5q6uXrXYyXQwXf7XFNyAJqJB/hdL734IsZysNR3Lr4EwV0OluRlS8J7oDebwuy7FNaiDzzUKnD9e2nRtxydaGrjql7vhmbsG8P9LqW1L77wAgI8WOLSSy6JIbhLgc+6p6z4QayaeSd0npHGauzECrWa8cN3cmIGfgg3XtXcH94LUP8up7UvPP88zmpDQy67ZEECfdylYVk2syy8i41gsAGIHPhOrMn8QNDVp/XBWTOuG8nNuG5XFI/jqnnj8TV974zYwAnks+qF557HZAzUbOF3Lu24bMF3ktg5VRrZRjZlKmblzDuh9l0qC/nip/xA0Cuzg2Czzx/o7Pj8gTn8lF4Qt3VVvLOwcNpeCbQPlVb38889l37u2WcxGQNViV56KX/eT4kcAHKwNB9bGt4x+y6dTiJK5weC6F4AZX1+/+ywGOxd278cGhbD+C0tdSx/9plnMJZDWYsuvYz/jaTF3wzIwdJZd7Jh5p0w+y4dtXsBFrKCmfy/nxgVwR2DfW289UKnbQ+0j5QbPyOWevbpZ7CQFQwtumwhf57fJZ73QR6W52LLw7uYfUf3AvmoC1lRBw96+ftm8V7vGzDYg6otkMbmXVLjj9O1zzz9NOrgYcLl0WjHdxdGsTBVTiNWz7qTTTPvhMVP0uoWdfA49epz+d8eG8rfdzyfbV/h99uiEbvff8R7j6XW6f1o/Su97qc3bkxvfOopjOU+d0V0kVbyiIWpcrIlD9sS3tH3XWqdKKPxt/xvjomKmkjUtzfOq2ey0D5SfnwsT20ceqnG3JoAABbxSURBVApjuU9dsei7WpkMSh7lZFlf92JtJddYh9f4bHbxje51vIyGP0H3BHqzGb/fGH6Q//VRHURKPyktmKGxjje7ObVMy9FXu6MYw6XHy2hWPzU0FGGM9SyMRnN+v0H8YPHll4cYU3uGYwJGbratAbWrbEabfceGL3LrEt1oMHPjcflfzYyI2XYEd2t5txVrSysfw9eUXA8y4i0BM0MbNmDBscctvvyKGM6cusKQXbPuZPPMO4laH/QZlVs7ZuG9SyxQjpPSgtp2e3h7AbiixMTOuzgtLz8+lm9IPrlhiDEWW3T5dzGWe8iV31scYoxhtt09bJ0UtW3mnQqz7xnM3LiGNguPVp8eIV6QZbAo1VZ+WDCI+nd34RNm6SfXr8cZVY9YunhJHLPtrrJmNDNm64tnW8O7EMfA7xp85mZVfiDIQ3zE7zeGW/FddfMDwRRaQIJFMugg5jrqGdX169al1z+xDmO5S1215MrIVYuX8NC+CmO5a4w7sd+R7eE90JvNYeMm1+GnyDfnB4JJHgT9fmO4BS+RyQ8EeZu/MczQOMYXt7OiKPx0/WDJAZCdOpave/yJxBOPP46x3CWuWbo0dPWVS5NiwThK1twlPpoZs33huMIYK7nSDnw2F3+ErtVHRP3ihRhISCw6jpvOzigthTdSxMfKlMuKdh3pjpleLv167bIycbnc1ytV/DzF39/o6636ecy/vprbp/WEpUrJ7e1BX331Fa/vTzPGgtrzBn+vvRF/r7uO1H/1HaeJ7zv5OVUdF5eLj5tfLvyftRwn3c9cel3p8dLf077LE7eB+nPrjhcujxNj/YxR/+Irl2Asl9D3r7q6g69XIGKrtPux+HFVeOxN3s80cV83frn4777ScScvU9FtoL9OInxDJkdKKZ0M7xG0HXM1fiqoHyFeLvmBYI8I7cGyPxjCu23hnZSWOa2z1FPbnvfVV1+FGWO7jJ5MEd6Nj5f+nk0L79rxccZDPLH+K5cuxVguge5rvq+GdvHWXhrOEd7JHeF9vp0dZvQcC+9UCBoJtKpzPYR4CVQd2jUI73aG9/mts5Y4MmDLYPfu3TxgqNuwI7y7Mrxrlydm4pdefRXG8ibo+f6yDkYsRozU0G4ezhHeSf7wPjiaGespudYmTixY1Yth8arrtYvFMxnemUa0IgSH8NCeHwjyBYRrqw7uYDdf1RK3trb2Yw8PT5gYyx9+8KH4Qw8+iLHcIdd2d3csX9YdF4vBsRjV/cadXtTv6Mw7Tc4Yri05AG7F/2j5wpo4esTbQ7xAiom3+gZ5zLzbOfPe1zpria8W5X/55Zf8bzIzZbYQM++Gx0t/T2lm3o1m4pOMUfyaZd/HWG6DH/Qs573a40Qsyhi1T94PlWbWMfNOcs+8Lx/NjCVKrrWR4+GdCmEkhW4YnjQsymmSfr8hrJAfCIZFYG+81Azh3c7wvqZ11hLftVL88ssv+Zb8m43Ct3HIRHiXPLzrLw/zmvhl3d0Yyy3ww2t/EBX17F3F4Rvh3fXhfXg0M+Z4O1a7d1g10yPa2YG38BdkXfmBYJaI+KvQBGbjayNm2aMitKM7kzv4YaOmEm1tbal//OMffeK0P3iLOpb/IZHIMkYJvrNnz7XLMZbX4Ibrfshn2XsYsR6UOHqaY3Xuek2ZeadCSIlj0PeFYRHkk1jgak7shtojdke0Hmbe7Zx5H26dtcS3G+F88cUXvH1kJ2bejY+X/p6umHk3ujxMjCUYo+S11/0AY7mBm66/gS9AjRIP7Yy6qplZx8y7q2fe+0YzY00pmWxaeCf0fvejIVEfjyA/Gdi1N3sXLCG82xneqXXWEl/0ejfyxRdf8BnGNPH6d4T3kuOlv6drw7v+8hAjluQ18tddf72vx/Jbbrqpgxjxshj+ttD4djMP3wjvrg3vjvV0N9KsshkNn2ncVXIteNVC8bY2PxAcFkE+FejN+qJHttitNiLCuj0z7AAOmz59eubzzz/nY/kG3Pa+MTGW33/fv4/wshpGLHXDjTf6Yiz/8S29fL8DvuYjivV7vtWUchlNU2feCeUzUMBr5FPam1fq5EVYD+sCe/PqHjHzbuvMOynKnNbjF/siuJj5PJ9PMKJuoxlhoxnEcsdNZ9Yx8172soMz72aXx3lZDWMsxd9u7r3FE2P5yh+vCImwHmHEIsQoOPn3UTRzbng7mc+cY+bdlTPvTSuX0TQ9vBPKZ6AUD/Np8cYDfdoNZTZiF+GwLrDLs0gJ4d3u8D6/9fjFvtmoycjn+XwHI+KhrdM4ZCK8+yC8T14upL3xQpDnY7ka6NM/WrFC6rH8J7fe2sEYhakQ1sMirE+0RC0J24aXEd49HN6bWi6jaXbZjCYqgho2KgASoTcoTsuqZ2VEB5uMCPMZ8eZ4qBfdYMJiY56Q7mO8+PQ3X23UZGRGIJDL5/MohQS9dl2JjTqW39u/JssY43sEpIjU9xke7m/9yX9xdCz/7//00w4RzkPEKCRm1UPoDANljIu82nRShHdeJiHKZ1aXHAQo0AL9lPrC/IA6zo4QUU4X6klcNitj4MfK7SYY0oUx7eMOBHQow/fhnQsEAum///3vKzGWQxmGY/k9v/hffH53hDHKMcZyxFhanD3IqTP3xjPG/HM7JmaF9WdACpfDuuMhHs7FZYzlUI/4aGZMilIwWWbeeYDvF2UHWMgHtdIGYiwcgmYp92LQV/bYY4/+v/3tbxjLoR76UI2/H5DJ0GhmrF+Wn6el5Jrm6hGnJQAA3MSXGzWVgbEcALxivNndZYpJFd5F/bIU9UQAAFCfPffcE2M5AHhFdDQzJtVCa9lm3nmA5wsS+0oOAADICyVbRfbca0+M5QDgdrwtpHSdxKQL71QI8HGxrT4AALjUXnvtFRcLygEA3Ga42f3czUgZ3oUoaiYBwC12f7QOde/GMJYDgNtI0xbSiLThXdS/R0oOAADICR1nDOy9994Z2RZ7AQBUEJGtzl1P5pl3HuB5n+6VJQcAAOSDXu8m9tlnnyTq3wHAJVaOZsbM9omRgtThnUT/dyIaLDkAACAXhPcy9tl3X6xlAgDZDcrUz92M9OFdiGHREwBIDmUzlUUxlgOApEZE3pSeK8K7rv87Fj0BgKywYLWCfffdN4cNnABAQuMy9nM345aZdx7gM1jACgDgbu3t7WksYAUAyfAFqhm33CmuCe80uYB1eckBAIDmw0ZNVero6EiiGQEASGK57AtUi7kqvFMhwCfQtQAAwN069utAMwIAaDa+g2rCbfeC68I7Te7AikEfAKSy+6P1qHuvwX777deDDjQA0CSDsu6gWokrwzsVAnwPuhYAgGTQcaZ26EADAE4bGc2MuXbtjWvDuxDBoA8AEkGv9xp97Wtf03bTzrrqBwcAtxpxewMUV4d30UIygrZjACAJhPc67L///mgHDABOGBedZVzREtKM22feEeABQCYom6nT/gcckMZYDgA28kRwJy+Ed5psIYlBHwCaDQtWG3BAIcBHXfsLAICstODuqpaQZjwR3gkBHgDAEw488MAU9vMAAAt5KriTl8I7TQZ47NwHAM2CjZoscOBBByUQ4AHAIj1eCu7ktfBOhQCfxKAPAOBuBx18MAI8ADSK756a9Nqt6LnwTpO7sGLQBwDH7f54A+reLXLwIQjwAFC35W7cPbUangzvhAAPAM2DjjMWOuSQQzCWA0CtPBvcycvhnRDgAaA50OvdYoceeijGcgColqeDO3k9vBMCPABUh48RgxbdVgjvNjj0sMMwlgNAJZ4P7uSH8E6TAX4R2kgCgIHlbaeuSLSd8qMei8IhymZschgCPAAY4/lukR+CO/klvNNkFxr0gQcAzbga3E+LTQz2baf08o/nNzhOYMGqjQ4//HAEeADQ0/q4e66rjBnfhHfCRk4AMEkd7NtOv7VklqbtWzenxDiRxe0lp8OPOMKKF1kA4H6e24CpGr4K74QADwATwf0npoN928k3pcUM+kjJwcqwUZMDjvj611MYywF8zZfBnfwY3mkywIfqfGIGAPcaUYP7Gf+14mDfNueGnAiHVi1kBYt9/civYzIGwJ/4WB7yY3Anv4Z3KgR47YkZAR7AHwrB/cyfVj3Yt825PtcWvo4vZF1TcrCM3Z8kUffukCOPPBKTMQD+oo7lfxr7S86v97tvwzuJAB/ozYYxswbgeUNqcD/rv9U12Ld2XhurcZEkOs44KBgMapMxw775pQH8afCTv/w57OfgTn4P75pAb5bPrPWVHAAALxhsm3tbtO2sf25osG+dvbyWRZLo9e6wYCiUC80MocwJwLv6Pv7zKM9rvofwLgR6s3G0HwPwnOVtZ/+LZYN96+zuajvRILw3ycyZM/n9vdKXvzyAdy3/aPRPcdy/BQjvOmIzpzlY/ATgevwxPL9t3qqSVpCNaj1pWTWdaFA200Qzv/GNfmzMB+AJ/DE858M/feKLzZeqhfBeRHSiqbdFHAA0n7qYadq8eMqun6T1xGsqdaLBgtUm+8ZRRyXRlADA1fhjN/zhnz7xZUeZchDeDQR6s5kKT8wAICd1Yeq0c263fbBvPeHqXOsJS2vuRAPOOeroo9JYyArgSjx/RT745OMM7r5SCO8mRCca1E4CuEfftMgd0WldP3O0C0HrrCVGnWiwUZMkjj766NzR3/xmBE0JAFxj5fsffdjz/scf+bqjTDkI7xUEerP9qIMHkJpa3z4tcmfTFjO1Hr8Y2/VL7pvHHBNHHTyA1NT69vc++rAfd1N5CO9V0O3IilOvAHJRayKnzf832+rbq9V63BUpfY317k+eQt27ZI459pgk1jQBSInnq9C7H36A+vYqILxXSZTR4NQrgDzWTDvvF+Fp594lTU1k63GXp3UBHh1nJHTsscdmjj3uuDDWKgBIo++d99+LvPPB+yiTqRLCe41EP3icHgdoHv7YWzTtvLtjMt4HrccuyrUeE+XhEDNIEjvu+ONjKKMBaCq15HHk/ffQv71GCO91CPRmU6KMZsh1PzyAuw2rZTLn35OU/bdoPeYyzCJJ7vhZs7QyGpREAjiL56dQ+r13m17y6EZtfr8B6sXLaIgomh8I8tkb/qqx3Z2/CYBr9E27YA1maMBSs2bNUlsDv/+eOvu3CrcugK34bHt81zsjWJTaAMy8N0h0o8ECKAD78MfWnGkX/BLBHWxzwoknxkVnMYzlAPZQGwzsRHBvGGbeLSA2dQrnB4KYuQGw1pppF/1aytp28J4TTzpR3WH73Xfe4eFiBe5iAMv0vZXehQkYi2Dm3UJiMStmbgAal1V7t1/8WwR3cNxJs2fHRGOCLG59gIaoZ07f2rUTwd1CCO8W4z3hA73ZMFpKAtStT12UevF9WMgETTO7szMlSiIxlgPUp2/7zrfDO3btROctiyG820TMws9EFwOAqqkzNNMXPBCfdsn96NQCTdcZDufC4TDOqALUhueemW++/RZm222CmncbiVr4SH4g2ENE/ehIA2CIdx/on/6dtRjoQUrhOXPUWvidb+9EdzEAc3wsj217a0fC9DPAEph5d0CgN5sQfeEHPf/LAtSG9/oNT790EMEdpHfyt07Wuothjw+AqXi+CW3dsR3B3QEKY8zzv6RM8gPBiJiF7/T7bQEOUloKb6SIj5UplxXtOtIdM71c+vXaZWXicrmvVy9nSWnpmb7wIdS1gyu9tWNHhDGWYIyCRIz4c2nh6VT7uPBG6j9nLpP4GdT/m3THxeXi47ZeVm8Mo9vF5PjEz0yTv0tdx2u4PHE7TL3NTI9Xfbn4dqapfxNU/fHC71XpuDWXSfd/aP9nuePi8ghjLPb6m9swljsIZTMOE7uzhrG5E/hUoUQm+ghm2sHVTjn1VHWn7e1vbud/yzGM5eAz6mZLr23bip7tTYCymSYRmzvxUpo1vrwBwI/U06rTFz2G4A6ecdrpp8VRFgk+w3NLaMvWNxDcmwRlMxLIDwRDopRmod9vC7BJc8tmhklpiU2/fD3ahYGnbdu6LUTES2lYF8pmUDZjeNzdZTNDvERm+PXXMhjJmgvhXSKiHp7P4nT5/bYAizUnvI8QtcSmfy+JWkjwla1vvMHr4eM8xJcL2wjvRuEa4b00nDc9vA8zRvHUllcxlksC4V1CWNQKlnM2vPPFqPHpizei6wD42uuvvRYlRv2MWNAobCO8G4VrhPfScN608D5CjMU2vTqM0C4ZhHeJif7wfCY+6PfbAhrkTHjPKqTEp1/5HEI7gM5rW7b0iJn4YLnwjfBuFCoR3psQ3rOMKP5KajPGckkhvLsAQjw0zN7wniVFic9Y+iIGeoAyXh0e7iFGcbtm4hHeEd4bDO9Z/iLzpc2bMJZLDuHdRUSI70FNPNTMnvCeJVLiM65+BQM9QA2GUylbZuIR3hHe67zMa9oTL77yMsZyl0B4dyEsbIWaWRveh0lREjOuSWGgB2jA5k2bImIm3pLuNAjvCO81Xh4mxuLPv/wSatpdBuHdxfIDwbDYHKTb77cFVGBNeB8iaumfsWwLBnoAC2165RXenYbPxneXC+cI7wjvxsdrvjzIGPU/9+ILaN/rUgjvHiD6xPdglz8wVX94H+ez7KS09M/ofgO9fQFs9PJLL4WIUQ8jFmOMtSO8I7xbGN7HGWP9xFjimReex1jucgjvHiPq4mNoMwlT1B7e1UWoRC3JGcvfzOHGBHDOSy++2MEYi/INcYhRp1lYR3g3Oo7wXnR5hBHr3/jssyhz9BCEd4/SldREMRsPNYT3QbWe/Qc7URoDIIEXnns+LGbieZhvR3hHeC89XnJ5nDFK8pn2p555GqUxHoTw7nH5gWCHCPCYjfez8uF9RFFa+klRkjOuG8EsO4CEnnv2WXU2nhjFGLFOhHez474O73xTJb4pWDK5cSPGcg9DePcRURuvzcajZ7yflIZ3vgtqkkhJBG74ADMzAC7yzNNPh3hJjQjzQYR3k3Duj/Ce5WGdL0B9ciiJWnafQHj3KdFusgdlNT5RCO/jREqSh/bATZ8k/X6TAHjBxqGnIozUTjVRUhe5Irz7ILxrZTGJdRueRImjDyG8Aw/yURHiEeS9Z5yICoH9ljEEdgAPG9qwIcoYRdX6eNJ1qzENlQjvLgrvvFsMD+zJx9evw1jucwjvMIUuyEdQWuNaWTWwE6UCvVkM8gA+9OT69TzE802g+PugcahEeJc8vGeJsRQjSj7y+GMYy2ECwjuYEh1rtDCPxa5yGyGihAjsqGEHgAnrHn+Cd6yJkLoRFHWah0yE97LHnQnvI1SoYU8+9OgjGMvBEMI7VEXXtSaCWXkp8Nn1lG6GHZ0FAKCixx99jHet4XXyvEY+wviCV9PQifBeEq6tD+9ZYpRifIadseQfH34IYzlUhPAOdRGdayII847RwnpKhHV0FQCAhj3y0MMhEeYjloZ5hHfj47wUhnhQLwT2xB//gLEcaobwDpbQhfmweI8ym8YME1FahPU0wjoAOOHBP/yRh3mtzCbMGHWZh9IylxHetcsjYmY9zcP67xJrMZZDwxDewTaiHWVY94ZAb4wH9YwI6zyoo/UXAEgj8fu1fGY+LMJ8mDHWaRBSEd4ZG2HE0qQGdUrf98D9GMvBFgjv4CixCJa/aTP1IR+V3IzoQzr/GItLAcCNHrj/fh7mQyLM85n6EPFQbxbOvRXes4yxjFqnTixDjNK/+u1vMJaDYxDeQQoi1HeIQE+6910uuofGRSgnUe6S04V0nCoFAM/77a9/w8O8uihWhPOICO9dLgvvw+K6lDjOS19yawZ+iZAOTYfwDq6gC/ekC/bFH5PFYV8fxkkXxjXaKVGEcwCAKtzbv4bX1IdEeI/ownKkKJx3lYTtxsL7cNHllC68ax/nfnH33QjnIDci+v9pPqKlX08F5AAAAABJRU5ErkJggg==;" parent="1" vertex="1">
                    <mxGeometry x="330" y="418.5" width="69.17" height="35" as="geometry"/>
                </mxCell>
                <mxCell id="xN60sLdvEwKI37UPjvCN-127" style="edgeStyle=orthogonalEdgeStyle;rounded=0;orthogonalLoop=1;jettySize=auto;html=1;exitX=0;exitY=0.5;exitDx=0;exitDy=0;entryX=0.5;entryY=0;entryDx=0;entryDy=0;labelBackgroundColor=none;fontFamily=Courier New;fontSize=12;fontColor=#000000;strokeWidth=2;fillColor=#e3c800;strokeColor=#B09500;" parent="1" source="xN60sLdvEwKI37UPjvCN-4" target="xN60sLdvEwKI37UPjvCN-119" edge="1">
                    <mxGeometry relative="1" as="geometry">
                        <Array as="points">
                            <mxPoint x="565" y="419"/>
                            <mxPoint x="565" y="520"/>
                            <mxPoint x="710" y="520"/>
                        </Array>
                    </mxGeometry>
                </mxCell>
                <mxCell id="xN60sLdvEwKI37UPjvCN-126" style="edgeStyle=orthogonalEdgeStyle;rounded=0;orthogonalLoop=1;jettySize=auto;html=1;exitX=0;exitY=0.5;exitDx=0;exitDy=0;entryX=0.5;entryY=0;entryDx=0;entryDy=0;labelBackgroundColor=none;fontFamily=Courier New;fontSize=12;fontColor=#000000;strokeWidth=2;fillColor=#e3c800;strokeColor=#B09500;" parent="1" source="xN60sLdvEwKI37UPjvCN-4" target="xN60sLdvEwKI37UPjvCN-106" edge="1">
                    <mxGeometry relative="1" as="geometry">
                        <Array as="points">
                            <mxPoint x="565" y="419"/>
                            <mxPoint x="565" y="520"/>
                            <mxPoint x="420" y="520"/>
                        </Array>
                    </mxGeometry>
                </mxCell>
                <mxCell id="Xc9OFvZ67c28g_YzAC6t-18" style="edgeStyle=orthogonalEdgeStyle;rounded=0;orthogonalLoop=1;jettySize=auto;html=1;exitX=1;exitY=0.75;exitDx=0;exitDy=0;entryX=0;entryY=0.75;entryDx=0;entryDy=0;labelBackgroundColor=none;fontFamily=Courier New;fontSize=22;strokeWidth=2;fillColor=#0050ef;strokeColor=#001DBC;" parent="1" source="xN60sLdvEwKI37UPjvCN-1" target="xN60sLdvEwKI37UPjvCN-4" edge="1">
                    <mxGeometry relative="1" as="geometry"/>
                </mxCell>
                <mxCell id="Xc9OFvZ67c28g_YzAC6t-19" style="edgeStyle=orthogonalEdgeStyle;rounded=0;orthogonalLoop=1;jettySize=auto;html=1;exitX=1;exitY=0.75;exitDx=0;exitDy=0;entryX=0.75;entryY=0;entryDx=0;entryDy=0;labelBackgroundColor=none;fontFamily=Courier New;fontSize=22;strokeWidth=2;fillColor=#0050ef;strokeColor=#001DBC;" parent="1" source="xN60sLdvEwKI37UPjvCN-1" target="xN60sLdvEwKI37UPjvCN-119" edge="1">
                    <mxGeometry relative="1" as="geometry">
                        <Array as="points">
                            <mxPoint x="574" y="445"/>
                            <mxPoint x="574" y="528"/>
                            <mxPoint x="760" y="528"/>
                        </Array>
                    </mxGeometry>
                </mxCell>
            </root>
        </mxGraphModel>
    </diagram>
</mxfile>